<svg width="197" height="178" viewBox="0 0 197 178" fill="none" xmlns="http://www.w3.org/2000/svg">
<path d="M98.1534 177.071C152.362 177.071 196.307 152.875 196.307 123.028C196.307 93.1803 152.362 68.9844 98.1534 68.9844C43.9448 68.9844 0 93.1803 0 123.028C0 152.875 43.9448 177.071 98.1534 177.071Z" fill="#F0F0F0"/>
<path d="M48.1133 161.825L6.92233 138.121C6.82071 138.087 6.73256 138.021 6.67016 137.934C6.60776 137.847 6.57422 137.742 6.57422 137.635C6.57422 137.528 6.60776 137.424 6.67016 137.337C6.73256 137.25 6.82071 137.184 6.92233 137.149L28.5833 124.695C28.8456 124.563 29.1355 124.494 29.4296 124.494C29.7236 124.494 30.0135 124.563 30.2759 124.695L71.5059 148.39C71.6075 148.425 71.6956 148.49 71.758 148.578C71.8204 148.665 71.854 148.769 71.854 148.876C71.854 148.983 71.8204 149.087 71.758 149.174C71.6956 149.262 71.6075 149.327 71.5059 149.362L49.8059 161.804C49.5452 161.939 49.2562 162.012 48.9622 162.015C48.6681 162.019 48.3773 161.954 48.1133 161.825Z" fill="#E0E0E0"/>
<path d="M79.2354 169.947C85.882 169.947 91.2702 166.85 91.2702 163.031C91.2702 159.211 85.882 156.114 79.2354 156.114C72.5888 156.114 67.2006 159.211 67.2006 163.031C67.2006 166.85 72.5888 169.947 79.2354 169.947Z" fill="#E0E0E0"/>
<path d="M163.601 124.751C176.213 124.751 186.438 118.875 186.438 111.627C186.438 104.379 176.213 98.5027 163.601 98.5027C150.988 98.5027 140.764 104.379 140.764 111.627C140.764 118.875 150.988 124.751 163.601 124.751Z" fill="#E0E0E0"/>
<path d="M165.749 131.119L124.354 107.359L136.575 100.339C137.344 99.9067 137.344 99.1809 136.575 98.7359L88.4753 71.0232C88.044 70.806 87.5676 70.6929 87.0843 70.6929C86.601 70.6929 86.1245 70.806 85.6933 71.0232L17.2645 110.417C16.4964 110.849 16.4964 111.579 17.2645 112.02L65.3083 139.668C65.7396 139.885 66.216 139.998 66.6993 139.998C67.1826 139.998 67.6591 139.885 68.0903 139.668L78.1244 133.931L119.524 157.691L165.749 131.119Z" fill="#E0E0E0"/>
<path d="M19.7862 92.1827C20.2853 88.7785 18.8488 81.361 15.9496 76.4233C13.0505 71.4855 7.94234 67.4377 3.79764 68.2153C-0.0823197 68.9324 -0.39046 73.8313 3.6197 77.6631C7.62986 81.495 13.7753 86.5105 14.9341 92.3209L18.0719 99.6995L19.7862 92.1827Z" fill="#7E57C2"/>
<path d="M19.7862 92.1827C20.2853 88.7785 18.8488 81.361 15.9496 76.4233C13.0505 71.4855 7.94234 67.4377 3.79764 68.2153C-0.0823197 68.9324 -0.39046 73.8313 3.6197 77.6631C7.62986 81.495 13.7753 86.5105 14.9341 92.3209L18.0719 99.6995L19.7862 92.1827Z" fill="black"/>
<path d="M19.3522 96.8828C19.2988 96.8699 19.251 96.8403 19.2158 96.7983C19.1807 96.7563 19.16 96.7041 19.1569 96.6495C18.5753 84.6874 10.516 73.8615 5.16908 70.9498C5.13502 70.9372 5.10409 70.9175 5.07844 70.8918C5.05279 70.8662 5.03301 70.8354 5.02047 70.8014C5.00793 70.7675 5.00293 70.7312 5.0058 70.6952C5.00867 70.6591 5.01935 70.6241 5.0371 70.5925C5.05486 70.561 5.07927 70.5336 5.10865 70.5123C5.13804 70.4911 5.17171 70.4764 5.20734 70.4693C5.24297 70.4622 5.27973 70.4628 5.31508 70.4712C5.35043 70.4796 5.38353 70.4955 5.41212 70.5178C10.8632 73.4857 19.0744 84.493 19.6603 96.6322C19.6621 96.6652 19.6573 96.6981 19.6463 96.7292C19.6352 96.7602 19.6181 96.7888 19.5959 96.8133C19.5737 96.8378 19.5469 96.8577 19.517 96.8718C19.4871 96.886 19.4547 96.8941 19.4216 96.8958L19.3522 96.8828Z" fill="white"/>
<path d="M18.8835 107.925C18.6187 105.933 16.7135 102.43 13.3153 99.2847C9.53946 95.7855 4.41392 93.6687 3.51554 91.2538C2.44356 88.3422 5.10398 86.126 9.33982 87.2881C13.5757 88.4502 20.3113 95.4183 20.2245 104.426L18.8835 107.925Z" fill="#7E57C2"/>
<path d="M20.0162 106.037C19.9687 106.027 19.9253 106.003 19.8913 105.968C19.8574 105.934 19.8344 105.89 19.8253 105.842C17.7073 95.3622 10.5854 90.7527 7.11774 89.7807C7.08582 89.7716 7.05602 89.7564 7.03002 89.7358C7.00402 89.7153 6.98234 89.6899 6.96622 89.661C6.9501 89.6321 6.93986 89.6003 6.93607 89.5675C6.93228 89.5347 6.93502 89.5015 6.94414 89.4697C6.95326 89.4379 6.96858 89.4082 6.98921 89.3824C7.00985 89.3565 7.03541 89.3349 7.06443 89.3189C7.09344 89.3028 7.12535 89.2926 7.15833 89.2888C7.1913 89.2851 7.2247 89.2878 7.25662 89.2969C11.0932 90.3726 18.1674 95.0468 20.3374 105.743C20.3502 105.809 20.3364 105.877 20.299 105.933C20.2617 105.989 20.2037 106.028 20.1377 106.041C20.0974 106.049 20.0559 106.047 20.0162 106.037Z" fill="white"/>
<path d="M61.3764 3.35893L58.7247 4.87957C58.7382 4.76485 58.7455 4.64948 58.7464 4.53397V3.76501C58.7464 2.40421 57.7872 1.85557 56.6024 2.53381C56.0928 2.84564 55.6563 3.26252 55.3221 3.75637C55.1311 2.02837 53.7814 1.40629 52.1409 2.34805C51.2075 2.95524 50.4308 3.77257 49.8737 4.73395C49.3165 5.69532 48.9945 6.77374 48.9336 7.88197V9.02677C48.9215 9.48341 49.0135 9.93683 49.2027 10.353L47.0023 11.6188C46.6545 11.8421 46.3653 12.1448 46.1585 12.5016C45.9517 12.8585 45.8333 13.2593 45.8132 13.6708C45.8132 14.4268 46.3426 14.7292 47.0023 14.3533L61.3764 6.09349C61.723 5.86884 62.0113 5.56588 62.218 5.2093C62.4246 4.85271 62.5437 4.45258 62.5656 4.04149C62.5656 3.28117 62.0361 2.97877 61.3764 3.35893Z" fill="#EBEBEB"/>
<path d="M34.3556 5.17333L32.893 5.73061V2.52517C32.893 -0.0193117 30.8532 -0.628432 28.6398 0.641648C26.4134 1.91173 24.634 5.00917 24.634 7.54933V8.03317C24.3221 7.93837 23.9927 7.91478 23.6703 7.96414C23.348 8.0135 23.041 8.13455 22.7721 8.31829C21.9375 8.86286 21.243 9.59498 20.7447 10.4557C20.2465 11.3163 19.9583 12.2815 19.9034 13.2733V13.485L17.8592 14.66C17.307 15.0193 16.8475 15.503 16.518 16.0719C16.1885 16.6408 15.9983 17.2789 15.9626 17.9346C15.9626 19.1399 16.8306 19.628 17.8592 19.0233L34.3512 9.51925C34.9035 9.15999 35.3629 8.67633 35.6924 8.10744C36.0219 7.53854 36.2122 6.9004 36.2478 6.24469C36.2522 5.05669 35.4015 4.57717 34.3556 5.17333Z" fill="#EBEBEB"/>
<path d="M68.9931 136.286L130.847 100.741C131.588 100.259 132.205 99.6098 132.647 98.8465C133.09 98.0833 133.346 97.2271 133.394 96.3472V74.7256C133.346 73.8457 133.09 72.9895 132.647 72.2262C132.205 71.463 131.588 70.8142 130.847 70.3322L88.1239 45.7773C87.3335 45.3787 86.4601 45.1711 85.5741 45.1711C84.6882 45.1711 83.8147 45.3787 83.0244 45.7773L21.175 81.3222C20.4339 81.8042 19.8171 82.4531 19.3745 83.2163C18.9319 83.9796 18.676 84.8358 18.6274 85.7157V107.337C18.6753 108.218 18.9309 109.075 19.3735 109.839C19.8161 110.603 20.4333 111.253 21.175 111.735L63.898 136.286C64.6877 136.683 65.5604 136.891 66.4456 136.891C67.3307 136.891 68.2034 136.683 68.9931 136.286Z" fill="#7E57C2"/>
<path d="M66.4456 134.821V113.2C66.397 112.32 66.1411 111.463 65.6985 110.7C65.256 109.937 64.6391 109.288 63.898 108.806L21.175 84.2512C19.7645 83.4434 18.6274 84.1 18.6274 85.7157V107.337C18.6753 108.218 18.9309 109.075 19.3735 109.839C19.8161 110.603 20.4333 111.253 21.175 111.735L63.898 136.286C65.3041 137.093 66.4456 136.441 66.4456 134.821Z" fill="#263238"/>
<path d="M132.214 71.5806L65.2694 110.055C64.9 109.552 64.4338 109.128 63.898 108.806L21.1794 84.2555C19.9034 83.5211 18.8531 83.979 18.6622 85.2707C18.7727 84.472 19.0547 83.7063 19.4891 83.0257C19.9234 82.3451 20.4999 81.7656 21.1794 81.3266L83.0244 45.773C83.8147 45.3744 84.6882 45.1667 85.5741 45.1667C86.4601 45.1667 87.3335 45.3744 88.1239 45.773L130.842 70.3365C131.38 70.654 131.847 71.0773 132.214 71.5806Z" fill="#7E57C2"/>
<path d="M132.214 71.5806L65.2694 110.055C64.9 109.552 64.4338 109.128 63.898 108.806L21.1794 84.2555C19.9034 83.5211 18.8531 83.979 18.6622 85.2707C18.7727 84.472 19.0547 83.7063 19.4891 83.0257C19.9234 82.3451 20.4999 81.7656 21.1794 81.3266L83.0244 45.773C83.8147 45.3744 84.6882 45.1667 85.5741 45.1667C86.4601 45.1667 87.3335 45.3744 88.1239 45.773L130.842 70.3365C131.38 70.654 131.847 71.0773 132.214 71.5806Z" fill="#455A64"/>
<path d="M133.39 74.7256V96.3256C133.346 97.2066 133.092 98.0644 132.649 98.8284C132.206 99.5923 131.587 100.24 130.842 100.719L68.9975 136.268C68.271 136.634 67.474 136.839 66.6607 136.87C65.8474 136.902 65.0369 136.758 64.2842 136.45C65.5038 136.951 66.4542 136.268 66.4542 134.8V113.2C66.4041 112.054 65.9926 110.954 65.2781 110.055L132.214 71.5806C132.928 72.4799 133.34 73.5803 133.39 74.7256Z" fill="#37474F"/>
<path d="M120.188 81.9918V87.7115C120.149 88.4161 119.945 89.1019 119.592 89.7135C119.238 90.3251 118.745 90.8453 118.152 91.2323L83.4323 111.199C82.3083 111.852 81.3925 111.325 81.3925 110.033V104.313C81.394 103.249 81.0567 102.211 80.429 101.35L119.25 79.037C119.865 79.9002 120.193 80.9336 120.188 81.9918Z" fill="#7E57C2"/>
<path d="M120.188 81.9918V87.7115C120.149 88.4161 119.945 89.1019 119.592 89.7135C119.238 90.3251 118.745 90.8453 118.152 91.2323L83.4323 111.199C82.3083 111.852 81.3925 111.325 81.3925 110.033V104.313C81.394 103.249 81.0567 102.211 80.429 101.35L119.25 79.037C119.865 79.9002 120.193 80.9336 120.188 81.9918Z" fill="black"/>
<path d="M119.233 79.037L80.4117 101.345C79.9938 100.759 79.4534 100.27 78.8276 99.9112L49.9405 83.3094C48.8165 82.6658 48.8165 81.6117 49.9405 80.968L84.6605 60.9923C85.2932 60.6748 85.9918 60.5094 86.7003 60.5094C87.4089 60.5094 88.1075 60.6748 88.7401 60.9923L117.645 77.5854C118.273 77.9493 118.815 78.4445 119.233 79.037Z" fill="#7E57C2"/>
<path d="M80.7285 79.0758C77.9249 80.6872 77.9249 83.3008 80.7285 84.9122C83.5321 86.5235 88.0805 86.5235 90.8841 84.9122C93.6877 83.3008 93.6921 80.6915 90.8841 79.0758C88.0761 77.4602 83.5321 77.4645 80.7285 79.0758Z" fill="#FAFAFA"/>
<path d="M75.8026 123.265C75.8335 122.661 76.0067 122.072 76.3082 121.547C76.6098 121.022 77.0313 120.574 77.5386 120.241L125.023 92.9517C125.99 92.3987 126.759 92.848 126.759 93.9626V103.073L75.8026 132.376V123.265Z" fill="#263238"/>
<path d="M77.4648 125.922V123.174L125.287 95.6949V98.4424L77.4648 125.922Z" fill="black"/>
<path d="M32.9711 80.0392L80.7936 52.5554L83.1329 53.9075L35.3191 81.387L32.9711 80.0392Z" fill="#263238"/>
<path d="M34.0822 80.6872L27.2076 50.4472L75.0301 22.9634L81.9003 53.2077L34.0822 80.6872Z" fill="#37474F"/>
<path d="M27.2076 50.4472L26.1009 49.7992L32.9711 80.0392L34.0822 80.6872L27.2076 50.4472Z" fill="#263238"/>
<path d="M26.1009 49.7992L27.2076 50.4472L75.0301 22.9634L73.9234 22.3154L26.1009 49.7992Z" fill="#455A64"/>
<path d="M35.4666 79.8923L27.1642 43.3192L70.9592 18.1509L79.2616 54.724L35.4666 79.8923Z" fill="#E0E0E0"/>
<path d="M36.6862 80.6008L28.3794 44.0277L72.1787 18.8594L80.4811 55.4325L36.6862 80.6008Z" fill="#FAFAFA"/>
<path d="M28.3794 44.0277L27.1642 43.3192L35.7487 81.1408L36.6862 80.6008L28.3794 44.0277Z" fill="#E0E0E0"/>
<path d="M27.1642 43.3192L28.3794 44.0277L72.1787 18.8594L70.9592 18.1509L27.1642 43.3192Z" fill="#EBEBEB"/>
<path d="M72.9859 101.752C72.9736 101.624 72.9267 101.503 72.8502 101.4C72.7738 101.297 72.6707 101.217 72.5519 101.168L71.4018 100.507C71.0858 100.348 70.7364 100.264 70.3819 100.264C70.0275 100.264 69.6781 100.348 69.362 100.507L65.022 103C64.903 103.05 64.7997 103.13 64.7233 103.234C64.6468 103.337 64.6001 103.46 64.588 103.588V104.145C64.6032 104.27 64.6513 104.389 64.7275 104.49C64.8037 104.591 64.9053 104.67 65.022 104.719L66.1721 105.38C66.4882 105.54 66.8376 105.623 67.192 105.623C67.5465 105.623 67.8959 105.54 68.2119 105.38L72.5519 102.888C72.6695 102.838 72.7718 102.759 72.8481 102.657C72.9244 102.555 72.972 102.435 72.9859 102.309V101.752Z" fill="#263238"/>
<path d="M66.1895 104.832L65.0394 104.171C64.4795 103.847 64.4795 103.307 65.0394 103L69.3794 100.507C69.6954 100.348 70.0449 100.264 70.3993 100.264C70.7537 100.264 71.1032 100.348 71.4192 100.507L72.5693 101.168C73.1292 101.488 73.1292 102.032 72.5693 102.339L68.2293 104.832C67.9127 104.989 67.5635 105.072 67.2094 105.072C66.8553 105.072 66.5061 104.989 66.1895 104.832Z" fill="#37474F"/>
<path d="M67.2702 104.369C66.9678 104.375 66.669 104.304 66.4022 104.162C66.3145 104.119 66.2367 104.058 66.1733 103.984C66.1099 103.909 66.0623 103.823 66.0333 103.73C66.0163 103.665 66.0129 103.596 66.0233 103.529C66.0338 103.463 66.0578 103.399 66.094 103.341C66.0999 103.331 66.1078 103.321 66.1174 103.314C66.1269 103.306 66.1379 103.301 66.1496 103.298C66.1614 103.294 66.1736 103.294 66.1857 103.295C66.1978 103.297 66.2094 103.301 66.2199 103.307C66.2409 103.32 66.2561 103.341 66.2625 103.365C66.269 103.389 66.2661 103.414 66.2546 103.436C66.2302 103.472 66.2136 103.512 66.2061 103.555C66.1987 103.597 66.2004 103.641 66.2112 103.683C66.2615 103.821 66.3643 103.934 66.4976 103.998C66.7369 104.119 67.0016 104.183 67.2702 104.183C67.5387 104.183 67.8034 104.119 68.0427 103.998C68.1283 103.974 68.2038 103.923 68.2575 103.852C68.3113 103.782 68.3404 103.696 68.3404 103.607C68.3404 103.518 68.3113 103.432 68.2575 103.362C68.2038 103.291 68.1283 103.24 68.0427 103.216C67.6934 103.039 67.2932 102.987 66.9099 103.069C66.8854 103.072 66.8606 103.066 66.84 103.053C66.8193 103.04 66.8041 103.019 66.7971 102.996C66.7931 102.971 66.7984 102.946 66.8121 102.925C66.8257 102.904 66.8467 102.89 66.8709 102.883C67.3007 102.794 67.7485 102.855 68.1382 103.056C68.2511 103.098 68.3485 103.173 68.4173 103.271C68.4861 103.37 68.523 103.487 68.523 103.607C68.523 103.727 68.4861 103.844 68.4173 103.942C68.3485 104.041 68.2511 104.116 68.1382 104.158C67.8718 104.301 67.5729 104.374 67.2702 104.369Z" fill="#FAFAFA"/>
<path d="M67.3092 103.726H67.2658L66.1938 103.108C66.1835 103.102 66.1746 103.094 66.1675 103.084C66.1604 103.074 66.1552 103.063 66.1524 103.052C66.1496 103.04 66.1491 103.028 66.151 103.016C66.1529 103.004 66.1571 102.993 66.1635 102.983C66.1693 102.972 66.1773 102.963 66.1868 102.955C66.1964 102.948 66.2073 102.942 66.2191 102.939C66.2308 102.936 66.2431 102.935 66.2551 102.937C66.2672 102.938 66.2788 102.942 66.2893 102.948L67.357 103.562C67.3682 103.567 67.3781 103.576 67.3861 103.585C67.394 103.595 67.3998 103.607 67.4031 103.619C67.4063 103.631 67.407 103.644 67.4051 103.656C67.4031 103.669 67.3985 103.681 67.3917 103.691C67.3821 103.704 67.3695 103.713 67.355 103.719C67.3406 103.725 67.3248 103.728 67.3092 103.726Z" fill="#FAFAFA"/>
<path d="M60.4867 103.618L70.0347 98.1227C70.0976 98.1 70.1519 98.0586 70.1902 98.0041C70.2286 97.9496 70.2492 97.8847 70.2492 97.8182C70.2492 97.7516 70.2286 97.6867 70.1902 97.6322C70.1519 97.5777 70.0976 97.5363 70.0347 97.5136L64.5056 94.3384C64.3428 94.2564 64.1629 94.2137 63.9804 94.2137C63.798 94.2137 63.6181 94.2564 63.4553 94.3384L53.9073 99.8378C53.844 99.8594 53.789 99.9001 53.7501 99.9543C53.7112 100.009 53.6903 100.074 53.6903 100.14C53.6903 100.207 53.7112 100.272 53.7501 100.326C53.789 100.38 53.844 100.421 53.9073 100.443L59.4321 103.618C59.5955 103.7 59.7762 103.744 59.9594 103.744C60.1427 103.744 60.3234 103.7 60.4867 103.618Z" fill="#263238"/>
<path d="M64.4839 95.1246C64.3214 95.0416 64.1414 94.9983 63.9587 94.9983C63.7761 94.9983 63.5961 95.0416 63.4336 95.1246L54.0679 100.529L59.4365 103.618C59.5993 103.7 59.7792 103.742 59.9616 103.742C60.1441 103.742 60.3239 103.7 60.4867 103.618L69.8568 98.2091L64.4839 95.1246Z" fill="#7E57C2"/>
<path d="M57.2014 100.784C57.4505 100.632 57.7344 100.547 58.0262 100.535C58.3179 100.524 58.6077 100.587 58.8679 100.719C59.367 101.004 59.3453 101.402 58.8115 101.708L58.3515 101.972L58.9677 102.326L58.5598 102.559L56.3334 101.263L57.2014 100.784ZM58.1735 101.872L58.5468 101.656C58.9113 101.449 58.8766 101.224 58.4469 100.961C58.2747 100.851 58.0756 100.791 57.8712 100.786C57.6668 100.782 57.4652 100.833 57.2882 100.935L56.9149 101.147L58.1735 101.872Z" fill="black"/>
<path d="M58.4426 100.049L59.367 99.5224C59.5803 99.387 59.8241 99.3067 60.0765 99.2886C60.3288 99.2705 60.5816 99.3152 60.8122 99.4187C60.8836 99.4442 60.9464 99.4889 60.9937 99.5479C61.0409 99.6069 61.0707 99.6778 61.0797 99.7527C61.0887 99.8276 61.0766 99.9036 61.0447 99.972C61.0128 100.04 60.9624 100.099 60.899 100.14C61.0423 100.115 61.188 100.108 61.333 100.119L62.4224 100.201L62.175 100.529L61.1291 100.412C60.8498 100.341 60.5544 100.372 60.2958 100.499L60.1699 100.572L61.077 101.095L60.6647 101.328L58.4426 100.049ZM59.0328 99.9155L59.9963 100.473L60.465 100.201C60.7254 100.054 60.6951 99.8377 60.3956 99.6649C60.2581 99.58 60.0995 99.535 59.9377 99.535C59.7759 99.535 59.6173 99.58 59.4799 99.6649L59.0328 99.9155Z" fill="black"/>
<path d="M60.9989 98.5979L63.2253 99.8939L62.8173 100.127L60.5909 98.8312L60.9989 98.5979Z" fill="black"/>
<path d="M61.7887 98.1443L64.5012 98.4035H64.5967L63.9284 98.019C63.6289 97.8462 63.0604 97.587 62.9041 97.5006L63.1949 97.3322L65.4213 98.6282L65.1392 98.7923L62.3746 98.5288L62.2271 98.5072L62.9649 98.9392L63.9284 99.4921L63.6593 99.6477C63.49 99.5483 63.0387 99.2459 62.7392 99.0774L61.4676 98.3214L61.7887 98.1443Z" fill="black"/>
<path d="M65.3953 96.075L65.621 96.2046C65.4734 96.2867 65.0481 96.4725 64.8398 96.5934L66.8882 97.7728L66.4759 98.0104L64.4275 96.831C64.2148 96.952 63.8936 97.1939 63.7461 97.263L63.5204 97.1334L65.3953 96.075Z" fill="black"/>
<path d="M78.4023 124.773C82.6962 125.597 86.7881 127.245 90.4501 129.624C94.6001 132.3 98.0477 135.925 100.506 140.195C103.265 144.953 107.235 148.903 112.016 151.648L119.524 155.968V154.049L112.016 149.729C107.242 146.982 103.731 142.74 100.97 137.983C98.4965 133.724 94.6078 130.363 90.4501 127.706C87.1546 125.567 83.5114 124.014 79.6826 123.114L78.4196 123.84L78.4023 124.773Z" fill="#E0E0E0"/>
<path d="M78.4023 124.773C82.6962 125.597 86.7881 127.245 90.4501 129.624C94.6001 132.3 98.0477 135.925 100.506 140.195C103.265 144.953 107.235 148.903 112.016 151.648L119.524 155.968V154.049L112.016 149.729C107.242 146.982 103.731 142.74 100.97 137.983C98.4965 133.724 94.6078 130.363 90.4501 127.706C87.1546 125.567 83.5114 124.014 79.6826 123.114L78.4196 123.84L78.4023 124.773Z" fill="black"/>
<path d="M163.21 128.924L119.524 154.062V155.963L163.21 130.812V128.924Z" fill="#EBEBEB"/>
<path d="M119.524 154.049L112.016 149.729C107.242 146.982 103.731 142.74 100.97 137.983C98.4965 133.724 94.6078 130.363 90.4501 127.706C87.1546 125.567 83.5114 124.014 79.6826 123.114L123.356 97.9672C127.189 98.8694 130.836 100.425 134.137 102.564C138.299 105.22 142.066 108.746 144.553 113.009C147.313 117.761 150.941 121.84 155.719 124.587L163.228 128.907L119.524 154.049Z" fill="#FAFAFA"/>
<path d="M87.9329 123.036C87.8432 123.037 87.7557 123.009 87.6841 122.955C87.6125 122.901 87.5609 122.825 87.5375 122.739C87.5141 122.653 87.5202 122.562 87.5549 122.479C87.5896 122.397 87.6508 122.328 87.7289 122.284L113.335 107.532C113.427 107.482 113.536 107.47 113.637 107.498C113.738 107.527 113.824 107.593 113.877 107.684C113.929 107.775 113.944 107.882 113.918 107.984C113.893 108.085 113.828 108.172 113.739 108.227L88.1325 122.98C88.0723 123.016 88.0033 123.036 87.9329 123.036Z" fill="#E0E0E0"/>
<path d="M92.0819 125.028C91.9927 125.027 91.9061 124.997 91.8355 124.943C91.7649 124.889 91.7141 124.813 91.691 124.727C91.6678 124.641 91.6736 124.55 91.7073 124.468C91.7411 124.386 91.801 124.317 91.878 124.272L117.484 109.519C117.53 109.493 117.581 109.475 117.634 109.469C117.687 109.462 117.74 109.465 117.792 109.479C117.843 109.493 117.891 109.517 117.933 109.549C117.975 109.582 118.011 109.622 118.037 109.668C118.064 109.714 118.081 109.765 118.088 109.817C118.095 109.87 118.091 109.923 118.077 109.974C118.063 110.025 118.039 110.073 118.007 110.115C117.974 110.157 117.934 110.192 117.888 110.219L92.2816 124.972C92.2213 125.008 92.1524 125.027 92.0819 125.028Z" fill="#E0E0E0"/>
<path d="M95.8534 127.425C95.7823 127.427 95.712 127.409 95.6501 127.374C95.5883 127.339 95.537 127.288 95.5019 127.227C95.4747 127.181 95.457 127.13 95.4497 127.077C95.4424 127.024 95.4457 126.971 95.4594 126.919C95.4732 126.868 95.497 126.82 95.5297 126.777C95.5623 126.735 95.603 126.7 95.6494 126.674L121.255 111.921C121.348 111.878 121.453 111.87 121.551 111.901C121.648 111.931 121.731 111.997 121.782 112.085C121.833 112.172 121.849 112.276 121.827 112.376C121.805 112.475 121.747 112.562 121.663 112.621L96.0574 127.373C95.9947 127.407 95.9246 127.425 95.8534 127.425Z" fill="#E0E0E0"/>
<path d="M99.5077 130.38C99.4184 130.38 99.3315 130.351 99.2606 130.297C99.1898 130.243 99.139 130.167 99.1161 130.081C99.0933 129.995 99.0998 129.904 99.1345 129.822C99.1692 129.74 99.2303 129.672 99.3081 129.628L124.914 114.876C124.96 114.849 125.011 114.831 125.064 114.824C125.117 114.816 125.171 114.82 125.223 114.833C125.274 114.847 125.323 114.871 125.365 114.903C125.408 114.936 125.443 114.976 125.47 115.023C125.517 115.117 125.527 115.226 125.499 115.328C125.471 115.43 125.407 115.518 125.318 115.576L99.7117 130.328C99.649 130.362 99.5789 130.38 99.5077 130.38Z" fill="#E0E0E0"/>
<path d="M102.689 133.81C102.618 133.812 102.548 133.794 102.486 133.759C102.424 133.724 102.373 133.673 102.337 133.612C102.31 133.566 102.292 133.515 102.285 133.462C102.278 133.409 102.281 133.356 102.295 133.304C102.309 133.253 102.333 133.205 102.365 133.162C102.398 133.12 102.438 133.085 102.485 133.059L128.091 118.306C128.183 118.263 128.289 118.255 128.386 118.286C128.484 118.316 128.566 118.382 128.617 118.469C128.669 118.557 128.685 118.661 128.663 118.76C128.641 118.86 128.582 118.947 128.499 119.006L102.893 133.758C102.83 133.792 102.76 133.81 102.689 133.81Z" fill="#E0E0E0"/>
<path d="M105.241 137.733C105.151 137.734 105.064 137.706 104.992 137.652C104.92 137.598 104.869 137.522 104.845 137.436C104.822 137.35 104.828 137.258 104.863 137.176C104.897 137.093 104.959 137.025 105.037 136.981L130.643 122.228C130.735 122.178 130.844 122.167 130.945 122.195C131.046 122.223 131.132 122.29 131.185 122.381C131.237 122.471 131.252 122.579 131.226 122.68C131.201 122.782 131.136 122.869 131.046 122.924L105.44 137.681C105.379 137.714 105.311 137.732 105.241 137.733Z" fill="#E0E0E0"/>
<path d="M107.953 141.569C107.864 141.57 107.776 141.542 107.704 141.488C107.633 141.434 107.581 141.358 107.558 141.272C107.535 141.186 107.541 141.094 107.575 141.012C107.61 140.93 107.671 140.861 107.749 140.817L133.355 126.064C133.448 126.015 133.556 126.003 133.657 126.031C133.758 126.06 133.844 126.126 133.897 126.217C133.95 126.307 133.965 126.415 133.939 126.516C133.913 126.618 133.849 126.705 133.759 126.76L108.153 141.513C108.093 141.549 108.024 141.568 107.953 141.569Z" fill="#E0E0E0"/>
<path d="M118.057 105.665C117.986 105.667 117.915 105.649 117.854 105.614C117.792 105.579 117.74 105.528 117.705 105.467C117.678 105.421 117.66 105.37 117.653 105.317C117.646 105.265 117.649 105.211 117.663 105.16C117.677 105.108 117.7 105.06 117.733 105.018C117.766 104.975 117.806 104.94 117.853 104.914L124.406 101.134C124.499 101.08 124.61 101.066 124.714 101.094C124.818 101.122 124.906 101.19 124.96 101.283C125.013 101.376 125.027 101.486 124.999 101.589C124.971 101.692 124.903 101.78 124.81 101.834L118.256 105.614C118.195 105.647 118.127 105.664 118.057 105.665Z" fill="#E0E0E0"/>
<path d="M122.202 107.67C122.112 107.671 122.024 107.643 121.953 107.589C121.881 107.535 121.83 107.459 121.806 107.373C121.783 107.287 121.789 107.195 121.824 107.113C121.858 107.031 121.919 106.962 121.998 106.918L128.555 103.138C128.601 103.11 128.652 103.091 128.706 103.083C128.759 103.075 128.813 103.078 128.866 103.091C128.918 103.104 128.967 103.128 129.01 103.16C129.053 103.192 129.089 103.233 129.116 103.28C129.143 103.326 129.161 103.377 129.167 103.431C129.174 103.484 129.17 103.538 129.155 103.59C129.14 103.641 129.116 103.69 129.082 103.731C129.048 103.773 129.006 103.808 128.959 103.834L122.406 107.618C122.343 107.652 122.273 107.67 122.202 107.67Z" fill="#E0E0E0"/>
<path d="M125.969 110.072C125.897 110.072 125.827 110.053 125.766 110.017C125.704 109.981 125.653 109.93 125.617 109.869C125.59 109.823 125.572 109.773 125.565 109.72C125.558 109.668 125.561 109.615 125.575 109.564C125.589 109.513 125.613 109.465 125.645 109.423C125.678 109.381 125.718 109.346 125.765 109.32L132.318 105.54C132.364 105.513 132.415 105.496 132.467 105.489C132.52 105.482 132.573 105.485 132.625 105.498C132.676 105.512 132.724 105.535 132.767 105.567C132.809 105.599 132.845 105.639 132.871 105.685C132.898 105.731 132.916 105.781 132.923 105.833C132.93 105.886 132.927 105.939 132.913 105.99C132.9 106.041 132.876 106.089 132.844 106.132C132.812 106.174 132.772 106.209 132.726 106.236L126.168 110.016C126.109 110.053 126.039 110.073 125.969 110.072Z" fill="#E0E0E0"/>
<path d="M129.632 113.009C129.56 113.009 129.49 112.99 129.429 112.955C129.367 112.919 129.316 112.868 129.28 112.806C129.253 112.761 129.235 112.71 129.228 112.658C129.221 112.606 129.224 112.552 129.238 112.501C129.252 112.45 129.276 112.402 129.308 112.36C129.341 112.319 129.381 112.284 129.428 112.258L135.981 108.478C136.074 108.424 136.184 108.409 136.288 108.436C136.392 108.463 136.48 108.53 136.534 108.622C136.588 108.715 136.604 108.825 136.576 108.928C136.549 109.031 136.482 109.119 136.389 109.173L129.831 112.953C129.772 112.991 129.702 113.01 129.632 113.009Z" fill="#E0E0E0"/>
<path d="M132.809 116.465C132.737 116.465 132.667 116.446 132.606 116.411C132.544 116.375 132.493 116.324 132.457 116.262C132.43 116.217 132.412 116.166 132.405 116.114C132.398 116.062 132.401 116.008 132.415 115.957C132.429 115.906 132.452 115.858 132.485 115.816C132.518 115.775 132.558 115.74 132.605 115.714L139.158 111.934C139.204 111.907 139.255 111.89 139.307 111.883C139.36 111.875 139.413 111.879 139.465 111.892C139.516 111.905 139.564 111.929 139.607 111.961C139.649 111.993 139.684 112.033 139.711 112.078C139.738 112.124 139.756 112.175 139.763 112.227C139.77 112.279 139.767 112.333 139.753 112.384C139.74 112.435 139.716 112.483 139.684 112.525C139.652 112.567 139.612 112.603 139.566 112.629L133.008 116.409C132.948 116.447 132.879 116.466 132.809 116.465Z" fill="#E0E0E0"/>
<path d="M135.347 120.379C135.258 120.38 135.171 120.35 135.1 120.296C135.03 120.242 134.979 120.166 134.956 120.08C134.933 119.994 134.939 119.903 134.974 119.821C135.009 119.739 135.07 119.671 135.148 119.628L141.701 115.843C141.794 115.79 141.905 115.776 142.009 115.804C142.113 115.832 142.201 115.9 142.255 115.992C142.308 116.085 142.322 116.195 142.294 116.299C142.266 116.402 142.198 116.49 142.105 116.543L135.551 120.323C135.49 120.36 135.419 120.38 135.347 120.379Z" fill="#E0E0E0"/>
<path d="M138.073 124.216C138.002 124.213 137.933 124.193 137.872 124.157C137.811 124.122 137.759 124.072 137.721 124.012C137.669 123.92 137.655 123.811 137.683 123.708C137.71 123.606 137.777 123.518 137.869 123.464L144.427 119.68C144.52 119.626 144.631 119.612 144.734 119.64C144.838 119.668 144.926 119.736 144.98 119.829C145.034 119.921 145.048 120.032 145.02 120.135C144.992 120.238 144.924 120.326 144.83 120.379L138.277 124.159C138.215 124.196 138.145 124.216 138.073 124.216Z" fill="#E0E0E0"/>
<path d="M145.021 125.918C145.679 125.658 146.38 125.522 147.087 125.516C147.371 125.513 147.655 125.539 147.933 125.594C148.147 125.633 148.356 125.698 148.554 125.788C148.636 125.831 148.671 125.879 148.667 125.935C148.661 125.967 148.648 125.997 148.629 126.022C148.609 126.048 148.583 126.068 148.554 126.082L147.899 126.458C147.808 126.514 147.706 126.548 147.599 126.557C147.498 126.568 147.396 126.568 147.295 126.557C147.019 126.516 146.738 126.516 146.462 126.557C146.1 126.62 145.754 126.752 145.442 126.946C145.294 127.028 145.156 127.126 145.03 127.24C144.933 127.326 144.853 127.43 144.796 127.546C144.759 127.638 144.759 127.74 144.796 127.831C144.84 127.935 144.92 128.019 145.021 128.069C145.154 128.147 145.302 128.195 145.455 128.212C145.647 128.218 145.838 128.198 146.024 128.151C146.285 128.09 146.541 128.012 146.792 127.918C147.087 127.814 147.447 127.684 147.864 127.529C148.267 127.377 148.678 127.25 149.097 127.149C149.433 127.066 149.778 127.02 150.125 127.011C150.418 127.002 150.71 127.035 150.993 127.11C151.27 127.184 151.536 127.294 151.783 127.438C151.997 127.552 152.183 127.713 152.325 127.909C152.442 128.073 152.5 128.27 152.49 128.471C152.472 128.694 152.393 128.908 152.26 129.088C152.086 129.332 151.871 129.545 151.627 129.719L152.26 130.086C152.292 130.096 152.319 130.115 152.338 130.141C152.358 130.167 152.368 130.199 152.368 130.231C152.368 130.264 152.358 130.295 152.338 130.321C152.319 130.347 152.292 130.366 152.26 130.376L151.505 130.808C151.428 130.849 151.341 130.87 151.253 130.868C151.166 130.871 151.079 130.85 151.002 130.808L150.364 130.441C150.037 130.579 149.699 130.689 149.353 130.769C149.018 130.849 148.676 130.901 148.333 130.924C148.011 130.943 147.688 130.929 147.369 130.881C147.078 130.836 146.795 130.746 146.532 130.613C146.453 130.575 146.414 130.527 146.419 130.471C146.424 130.439 146.437 130.409 146.457 130.384C146.477 130.358 146.502 130.338 146.532 130.324L147.187 129.948C147.284 129.897 147.39 129.866 147.499 129.857C147.602 129.843 147.705 129.843 147.808 129.857C147.941 129.881 148.076 129.897 148.211 129.905C148.366 129.917 148.522 129.909 148.676 129.883C148.863 129.852 149.047 129.806 149.227 129.745C149.454 129.662 149.673 129.56 149.882 129.438C150.056 129.338 150.223 129.226 150.381 129.101C150.507 129.008 150.615 128.893 150.698 128.76C150.759 128.664 150.786 128.55 150.776 128.436C150.759 128.376 150.729 128.319 150.687 128.272C150.646 128.224 150.595 128.186 150.537 128.16C150.394 128.081 150.232 128.04 150.069 128.043C149.858 128.047 149.649 128.081 149.448 128.142C149.209 128.207 148.927 128.298 148.61 128.419C148.294 128.54 147.92 128.669 147.491 128.816C147.135 128.942 146.773 129.048 146.406 129.132C146.091 129.202 145.769 129.242 145.447 129.248C144.846 129.255 144.255 129.095 143.741 128.786C143.528 128.675 143.345 128.515 143.207 128.32C143.101 128.159 143.044 127.972 143.042 127.78C143.047 127.573 143.11 127.373 143.225 127.201C143.365 126.984 143.539 126.791 143.741 126.63L143.107 126.263C143.076 126.254 143.049 126.235 143.029 126.209C143.01 126.183 142.999 126.151 142.999 126.118C142.999 126.086 143.01 126.054 143.029 126.028C143.049 126.002 143.076 125.983 143.107 125.974L143.862 125.542C143.94 125.502 144.027 125.482 144.114 125.486C144.202 125.482 144.289 125.501 144.366 125.542L145.021 125.918Z" fill="#7E57C2"/>
<path d="M125.582 139.314L130.196 141.962L130.855 141.582L126.242 138.934L125.582 139.314Z" fill="#455A64"/>
<path d="M130.704 136.372L135.317 139.02L135.977 138.64L131.363 135.988L130.704 136.372Z" fill="#455A64"/>
<path d="M135 133.901L139.614 136.553L140.043 136.307L135.43 133.655L135 133.901Z" fill="#455A64"/>
<path d="M128.212 137.802L132.826 140.454L133.156 140.264L128.542 137.612L128.212 137.802Z" fill="#455A64"/>
<path d="M131.823 135.724L136.437 138.376L136.767 138.186L132.153 135.534L131.823 135.724Z" fill="#455A64"/>
<path d="M134.154 134.389L138.767 137.037L139.097 136.847L134.484 134.195L134.154 134.389Z" fill="#455A64"/>
<path d="M126.759 138.636L131.372 141.288L132.548 140.61L127.935 137.962L126.759 138.636Z" fill="#455A64"/>
<path d="M129.111 137.284L133.724 139.936L134.905 139.258L130.291 136.605L129.111 137.284Z" fill="#455A64"/>
<path d="M132.644 135.253L137.257 137.906L138.064 137.443L133.451 134.791L132.644 135.253Z" fill="#455A64"/>
<path d="M114.654 145.591L119.268 148.243L119.932 147.863L115.318 145.211L114.654 145.591Z" fill="#455A64"/>
<path d="M119.775 142.649L124.389 145.301L125.053 144.921L120.439 142.269L119.775 142.649Z" fill="#455A64"/>
<path d="M124.072 140.178L128.686 142.83L129.35 142.45L124.736 139.798L124.072 140.178Z" fill="#455A64"/>
<path d="M117.284 144.083L121.898 146.731L122.228 146.541L117.614 143.893L117.284 144.083Z" fill="#455A64"/>
<path d="M120.869 142.018L125.483 144.671L125.817 144.481L121.203 141.828L120.869 142.018Z" fill="#455A64"/>
<path d="M123.226 140.666L127.839 143.319L128.173 143.128L123.56 140.476L123.226 140.666Z" fill="#455A64"/>
<path d="M115.83 144.917L120.444 147.569L121.316 147.068L116.703 144.416L115.83 144.917Z" fill="#455A64"/>
<path d="M118.187 143.565L122.8 146.213L123.76 145.664L119.146 143.012L118.187 143.565Z" fill="#455A64"/>
<path d="M121.759 141.508L126.372 144.161L127.279 143.643L122.666 140.994L121.759 141.508Z" fill="#455A64"/>
<path d="M136.09 133.275L140.703 135.923L141.367 135.543L136.754 132.89L136.09 133.275Z" fill="#455A64"/>
<path d="M137.3 132.579L141.914 135.232L142.244 135.041L137.63 132.389L137.3 132.579Z" fill="#455A64"/>
<path d="M139.544 131.292L144.158 133.94L144.487 133.75L139.874 131.102L139.544 131.292Z" fill="#455A64"/>
<path d="M138.264 132.026L142.877 134.674L143.823 134.13L139.21 131.482L138.264 132.026Z" fill="#455A64"/>
<path d="M157.481 22.5314C154.291 22.2635 152.79 23.1232 151.379 26.091C150.16 28.6571 146.931 37.0293 146.683 38.429C146.458 39.6818 148.693 46.1099 148.693 46.1099L153.324 45.2459L151.566 39.6947L155.984 29.7069L157.481 22.5314Z" fill="#FFA8A7"/>
<path d="M158.067 22.5314C155.663 22.1339 153.883 21.6328 152.291 23.5811C150.698 25.5294 147.109 36.0573 146.649 37.2798C146.189 38.5024 146.423 39.3966 147.347 41.9238C147.347 41.9238 150.338 40.455 152.204 41.3925L151.666 39.5694L156.44 29.5125L158.067 22.5314Z" fill="#7E57C2"/>
<path d="M158.067 22.5314C155.663 22.1339 153.883 21.6328 152.291 23.5811C150.698 25.5294 147.109 36.0573 146.649 37.2798C146.189 38.5024 146.423 39.3966 147.347 41.9238C147.347 41.9238 150.338 40.455 152.204 41.3925L151.666 39.5694L156.44 29.5125L158.067 22.5314Z" fill="black"/>
<path d="M174.169 104.948C174.446 106.122 174.663 107.308 174.82 108.504C174.993 109.847 175.097 110.841 175.492 113.139C175.853 115.234 176.122 116.833 174.624 118.405C173.322 119.792 171.009 120.323 170.25 118.751C169.382 116.949 169.499 114.029 169.616 112.21C169.733 110.392 169.703 109.86 169.72 108.409C169.72 107.113 169.798 106.612 169.868 105.51C171.283 105.436 172.767 105.061 174.169 104.948Z" fill="#37474F"/>
<path d="M174.169 104.948C174.147 103.22 174.169 100.965 174.325 97.9499C174.507 94.4378 174.533 91.6989 174.52 87.9794C174.52 85.1627 174.36 82.6744 173.357 77.2744C174.42 66.4355 174.807 55.2424 173.522 51.1125C172.415 47.5787 171.291 46.3994 170.297 44.6714C169.781 43.7771 168.839 42.4466 168.839 41.2456C166.325 42.2262 163.653 42.743 160.953 42.7706C155.906 42.8181 154.14 41.4746 154.14 41.4746C154.14 41.4746 151.865 67.7358 152.338 76.3067C152.621 81.3784 153.028 88.8866 153.18 92.5758C153.298 95.4227 153.614 99.125 153.614 100.693C153.559 102.06 153.288 103.41 152.811 104.693C152.366 106.086 151.813 107.442 151.158 108.75C151.001 109.097 150.795 109.42 150.546 109.709C150.195 110.098 149.818 110.463 149.418 110.802C148.602 111.502 148.194 111.847 148.263 112.495C148.333 113.143 148.819 113.403 149.37 113.567C150.672 113.956 152.16 113.796 153.471 113.567C154.782 113.338 156.244 112.703 156.804 111.48C156.952 111.11 157.057 110.725 157.117 110.331C157.298 109.036 157.633 107.767 158.115 106.551C158.31 106.039 158.555 105.548 158.844 105.082C159.256 104.61 159.541 104.043 159.673 103.432C159.725 102.918 159.326 102.188 158.805 101.41C158.371 100.732 158.48 100.265 158.636 98.1357C158.979 93.5219 159.938 90.2042 160.715 84.6054C161.087 81.9121 161.031 79.1772 160.55 76.5011C161.088 72.8291 162.021 68.98 162.568 66.4485C163.436 71.7491 164.026 73.6845 164.508 77.6805C165.172 83.2014 168.331 94.8654 168.813 97.8419C169.295 100.818 169.625 102.84 169.859 105.272C170.059 107.38 170.215 111.623 170.484 113.554C170.918 116.643 174.108 115.714 174.624 112.971C174.967 111.156 174.195 107.316 174.169 104.948Z" fill="#FFA8A7"/>
<path d="M158.627 111.713L158.145 111.64C158.115 110.137 158.202 108.759 157.824 108.046L158.514 106.197L158.627 111.713Z" fill="#263238"/>
<path d="M159.812 104.866C159.703 105.899 159.118 106.957 159.074 108.992C159.028 109.856 159.045 110.722 159.126 111.584L158.627 111.718L158.514 106.201L159.812 104.866Z" fill="#263238"/>
<path d="M148.393 113.113C148.393 113.113 148.419 113.714 148.68 113.912C148.94 114.111 149.487 114.703 152.152 114.547C154.817 114.392 155.75 113.735 156.661 112.91C157.572 112.085 157.811 109.912 157.963 108.888C158.228 106.905 159.057 105.864 159.829 104.866C159.958 104.537 159.985 104.178 159.907 103.834C159.907 103.834 158.367 104.089 157.412 106.516C156.457 108.944 155.051 111.389 152.898 112.063C151.42 112.507 149.916 112.857 148.393 113.113Z" fill="#263238"/>
<path d="M159.651 102.326C159.269 101.661 158.922 101.462 158.558 100.896C158.135 101.266 157.833 101.754 157.69 102.296C157.525 102.827 157.099 105.428 156.457 107.501C155.975 109.057 155.155 109.877 154.048 110.301C153.349 110.565 152.594 110.65 151.852 110.547C150.472 110.357 150.793 109.363 150.793 109.363C150.472 109.795 149.153 110.875 148.372 111.666C147.938 112.098 148.137 112.793 148.471 113.23C148.858 113.558 149.773 114.223 153.068 113.744C156.006 113.312 156.691 111.968 156.974 111.359C157.266 110.467 157.47 109.548 157.581 108.616C157.749 107.593 158.098 106.609 158.614 105.709C158.679 105.596 158.744 105.488 158.805 105.398C159.005 105.108 159.239 104.788 159.499 104.473C159.708 104.223 159.868 104.11 159.933 103.873C160.032 103.34 159.932 102.79 159.651 102.326Z" fill="#37474F"/>
<path d="M153.289 94.3514C153.254 93.7336 153.224 93.1288 153.198 92.5542C153.046 88.865 152.638 81.3568 152.356 76.2851C151.883 67.7142 154.157 41.453 154.157 41.453C154.157 41.453 155.923 42.8181 160.971 42.749C163.665 42.7193 166.331 42.2026 168.839 41.224C168.839 42.425 169.781 43.7555 170.297 44.6498C171.291 46.3778 172.415 47.5571 173.522 51.0909C174.824 55.2122 174.42 66.4139 173.357 77.2528C174.36 82.6528 174.564 85.3442 174.577 88.1608C174.577 91.8803 174.538 93.7768 174.355 97.2933C172.567 98.6282 168.813 97.8203 168.813 97.8203C168.331 94.8654 165.172 83.2014 164.499 77.6502C164.017 73.6413 163.444 71.7059 162.559 66.4182L160.541 76.4709C161.023 79.147 161.078 81.8819 160.706 84.5752C160.129 88.649 159.473 91.5131 159.026 94.5458C158.228 95.3666 154.482 95.5869 153.289 94.3514Z" fill="#455A64"/>
<path d="M154.031 40.6365L153.983 43.5568C153.983 43.5568 155.915 45.0299 159.465 45.2848C163.015 45.5397 167.993 44.127 169.373 43.0902C168.967 42.2071 168.837 41.2227 169 40.265C166.288 41.6631 163.258 42.3373 160.207 42.2219C155.238 41.967 154.031 40.6365 154.031 40.6365Z" fill="#37474F"/>
<path d="M162.559 66.4053L160.48 54.2229C160.48 54.2229 157.243 53.4021 155.524 50.7669C155.756 51.7468 156.218 52.658 156.872 53.4261C157.526 54.1942 158.354 54.7974 159.287 55.1862L161.609 66.591L160.719 75.3304L162.559 66.4053Z" fill="#37474F"/>
<path d="M153.423 35.824C153.502 37.2798 154.157 41.44 154.157 41.44C160.133 45.4662 168.839 41.2326 168.839 41.2326L170.467 31.3614C170.467 31.3614 166.895 27.7154 169.82 23.1534L165.081 22.851L160.085 22.6307L157.481 22.5314C155.659 23.8662 152.438 27.521 151.839 29.0114C151.24 30.5018 150.772 32.7136 153.423 35.824Z" fill="#7E57C2"/>
<path d="M159.287 35.5821C159.803 36.2517 162.203 37.0725 164.174 36.1998C164.912 35.8997 165.557 35.408 166.04 34.7759C166.523 34.1438 166.827 33.3944 166.921 32.6056C167.065 33.4912 166.897 34.3991 166.445 35.1754C165.993 35.9517 165.286 36.5487 164.443 36.8651C161.387 38.0963 159.443 36.2517 159.287 35.5821Z" fill="#263238"/>
<path d="M170.132 11.0574C170.132 11.0574 170.132 11.0186 170.132 11.0013C170.132 10.984 170.132 10.9149 170.132 10.8717V10.7766C170.007 5.28592 165.358 2.59888 160.719 2.59888C159.246 2.59296 157.795 2.96561 156.509 3.68077C155.223 4.39594 154.143 5.42943 153.376 6.68128C150.685 7.37248 151.375 11.079 154.066 11.7443V11.7789C154.066 12.6947 154.066 13.6624 154.066 14.5394C154.087 17.3301 152.243 18.341 152.243 18.341C152.243 18.341 155.099 21.9654 162.945 21.581C170.592 21.2138 170.163 14.4357 170.132 11.0574Z" fill="#263238"/>
<path d="M167.945 2.84944L167.511 5.20384C167.667 5.24058 167.828 5.24576 167.985 5.21906C168.143 5.19236 168.293 5.13433 168.428 5.04845C168.562 4.96256 168.678 4.85057 168.768 4.71917C168.858 4.58778 168.921 4.43966 168.952 4.28368C169.005 3.96112 168.93 3.63057 168.742 3.36261C168.554 3.09464 168.268 2.91048 167.945 2.84944Z" fill="#263238"/>
<path d="M170.132 4.81504L167.698 5.07856C167.709 5.23583 167.752 5.38922 167.824 5.52958C167.896 5.66995 167.996 5.79444 168.118 5.89561C168.239 5.99679 168.38 6.0726 168.531 6.11851C168.683 6.16443 168.842 6.17952 169 6.16288C169.328 6.13001 169.63 5.97058 169.842 5.71869C170.054 5.4668 170.158 5.14246 170.132 4.81504Z" fill="#263238"/>
<path d="M165.076 23.1534V16.289C165.076 16.289 165.966 17.153 167.246 16.2198C168.409 15.3558 168.896 13.5458 168.08 12.6083C167.502 11.9387 165.714 11.5758 165.011 13.0101C165.011 13.0101 162.937 12.9064 160.237 10.997C157.538 9.08752 156.887 7.39408 155.229 7.204C154.448 7.79584 153.693 9.54112 153.771 14.1419C153.831 17.5461 155.363 19.1704 156.145 19.7579C156.783 20.2374 157.599 20.3022 158.974 20.0776V23.3046L157.481 29.4952L165.076 23.1534Z" fill="#FFA8A7"/>
<path d="M165.029 12.6904V14.5782C164.853 14.58 164.679 14.5472 164.516 14.4819C164.353 14.4166 164.205 14.3201 164.08 14.1977C163.954 14.0754 163.854 13.9296 163.786 13.7688C163.717 13.6081 163.681 13.4354 163.679 13.2606V11.4376L165.029 12.6904Z" fill="#263238"/>
<path d="M159.968 12.9798C159.962 13.0625 159.973 13.1455 159.999 13.224C160.026 13.3025 160.068 13.375 160.123 13.4373C160.178 13.4996 160.244 13.5504 160.319 13.5868C160.394 13.6232 160.475 13.6445 160.558 13.6494C160.642 13.6529 160.725 13.64 160.803 13.6115C160.881 13.583 160.953 13.5394 161.014 13.4832C161.075 13.427 161.125 13.3594 161.16 13.2841C161.195 13.2089 161.215 13.1275 161.218 13.0446C161.222 12.9629 161.209 12.8813 161.181 12.8044C161.153 12.7276 161.11 12.6569 161.055 12.5965C161 12.5362 160.933 12.4872 160.858 12.4526C160.784 12.4179 160.703 12.3982 160.621 12.3945C160.539 12.3908 160.457 12.4032 160.38 12.4311C160.303 12.4589 160.232 12.5017 160.171 12.5568C160.11 12.612 160.061 12.6785 160.027 12.7526C159.992 12.8266 159.972 12.9068 159.968 12.9885V12.9798Z" fill="#263238"/>
<path d="M154.53 11.2173L155.832 10.3317C155.776 10.2465 155.704 10.1734 155.619 10.1167C155.534 10.0599 155.438 10.0207 155.338 10.0014C155.238 9.98206 155.134 9.98298 155.034 10.0041C154.934 10.0252 154.84 10.0661 154.756 10.1243C154.582 10.2412 154.462 10.4209 154.42 10.6251C154.377 10.8293 154.417 11.0418 154.53 11.2173Z" fill="#263238"/>
<path d="M160.519 16.3192L158.74 16.9888C158.782 17.1054 158.846 17.2125 158.93 17.3038C159.014 17.3952 159.115 17.469 159.228 17.521C159.34 17.5729 159.462 17.6018 159.587 17.6061C159.711 17.6105 159.835 17.59 159.951 17.5461C160.188 17.4558 160.38 17.277 160.486 17.0478C160.592 16.8186 160.604 16.5571 160.519 16.3192Z" fill="#F28F8F"/>
<path d="M155.194 12.5781C155.189 12.6602 155.2 12.7425 155.227 12.8202C155.254 12.898 155.296 12.9697 155.351 13.0311C155.406 13.0926 155.472 13.1426 155.547 13.1783C155.621 13.214 155.702 13.2346 155.784 13.239C155.952 13.2449 156.116 13.1847 156.239 13.0715C156.362 12.9583 156.436 12.8012 156.444 12.6342C156.448 12.5526 156.435 12.4709 156.407 12.394C156.379 12.3172 156.336 12.2465 156.281 12.1861C156.226 12.1258 156.159 12.0769 156.084 12.0422C156.01 12.0075 155.929 11.9878 155.847 11.9841C155.765 11.9804 155.683 11.9928 155.606 12.0207C155.529 12.0485 155.458 12.0913 155.397 12.1464C155.336 12.2016 155.287 12.2681 155.253 12.3422C155.218 12.4162 155.198 12.4964 155.194 12.5781Z" fill="#263238"/>
<path d="M158.406 12.2627L158.315 15.6021L156.514 15.0578L158.406 12.2627Z" fill="#F28F8F"/>
<path d="M158.983 20.0733C160.437 19.8875 163.427 19.0494 163.896 17.9133C163.707 18.5005 163.34 19.0151 162.846 19.3864C161.952 20.1338 158.983 20.9762 158.983 20.9762V20.0733Z" fill="#F28F8F"/>
<path d="M162.932 2.81488C159.929 2.13232 158.731 2.99632 155.698 2.67664C154.448 2.54704 153.311 2.48656 152.477 2.9056C151.527 3.3808 150.971 4.42193 151.097 5.76977C151.314 8.03777 153.775 8.62097 153.775 8.62097C153.775 8.62097 155.858 3.94672 158.627 3.9856C161.396 4.02448 162.932 2.81488 162.932 2.81488Z" fill="#263238"/>
<path d="M125.591 50.2528L150.715 64.7205V57.64L125.587 43.1723L125.591 50.2528Z" fill="#E0E0E0"/>
<path d="M168.136 54.711L150.715 64.7205V57.64L168.136 47.6306V54.711Z" fill="#F0F0F0"/>
<path d="M125.587 43.1723L143.007 33.1629L168.136 47.6306L150.715 57.64L125.587 43.1723Z" fill="#FAFAFA"/>
<path d="M160.124 45.7902C160.284 45.7269 160.45 45.6791 160.619 45.6477C160.771 45.6193 160.925 45.6049 161.079 45.6045C161.212 45.604 161.344 45.6156 161.474 45.639C161.573 45.6589 161.669 45.6894 161.761 45.7298C161.8 45.7298 161.817 45.773 161.813 45.7989C161.808 45.8248 161.791 45.8464 161.761 45.8637L161.457 46.0408C161.414 46.0655 161.367 46.0817 161.318 46.0883C161.27 46.0924 161.222 46.0924 161.175 46.0883C161.048 46.0713 160.919 46.0713 160.793 46.0883C160.625 46.116 160.464 46.1762 160.32 46.2654C160.251 46.3037 160.187 46.3502 160.129 46.4037C160.083 46.4432 160.046 46.4917 160.02 46.5462C160.011 46.5665 160.006 46.5886 160.006 46.611C160.006 46.6335 160.011 46.6556 160.02 46.6758C160.04 46.7249 160.077 46.7649 160.124 46.7882C160.189 46.8227 160.26 46.8446 160.333 46.853C160.422 46.8558 160.511 46.8471 160.597 46.827C160.697 46.8011 160.814 46.7666 160.953 46.719L161.448 46.5376C161.635 46.467 161.827 46.4078 162.021 46.3605C162.178 46.3234 162.337 46.3017 162.498 46.2957C162.636 46.291 162.774 46.307 162.906 46.3432C163.035 46.3778 163.159 46.4286 163.275 46.4944C163.375 46.548 163.461 46.6233 163.527 46.7147C163.579 46.7911 163.605 46.8819 163.601 46.9739C163.592 47.0765 163.556 47.175 163.497 47.259C163.414 47.3716 163.315 47.4707 163.201 47.5528L163.497 47.7213C163.51 47.7281 163.521 47.738 163.529 47.75C163.537 47.7621 163.543 47.7759 163.544 47.7904C163.543 47.8045 163.538 47.818 163.529 47.8294C163.521 47.8408 163.51 47.8497 163.497 47.8552L163.145 48.0582C163.109 48.0779 163.069 48.0869 163.028 48.0842C162.987 48.0858 162.947 48.0769 162.911 48.0582L162.616 47.8898C162.464 47.9531 162.307 48.0036 162.147 48.041C161.991 48.0774 161.833 48.102 161.674 48.1144C161.529 48.1217 161.383 48.1144 161.24 48.0928C161.105 48.0734 160.974 48.031 160.854 47.9675C160.813 47.9502 160.796 47.9286 160.801 47.9027C160.801 47.8768 160.801 47.8552 160.854 47.8336L161.153 47.6608C161.196 47.6357 161.243 47.6182 161.292 47.609C161.339 47.6028 161.388 47.6028 161.435 47.609L161.622 47.6306C161.694 47.639 161.767 47.639 161.839 47.6306C161.926 47.6156 162.011 47.5939 162.095 47.5658C162.201 47.5292 162.303 47.4814 162.399 47.4232C162.48 47.3795 162.558 47.3274 162.629 47.2677C162.688 47.2247 162.738 47.1704 162.776 47.1078C162.805 47.0648 162.818 47.0125 162.811 46.961C162.811 46.9134 162.767 46.8702 162.702 46.8314C162.637 46.7926 162.562 46.7731 162.485 46.7752C162.388 46.7783 162.292 46.7943 162.199 46.8227C162.067 46.8594 161.936 46.9026 161.808 46.9523C161.661 47.0042 161.487 47.069 161.288 47.1338C161.125 47.1937 160.958 47.2428 160.788 47.2806C160.646 47.3126 160.5 47.3314 160.354 47.3368C160.218 47.3372 160.082 47.3197 159.951 47.285C159.815 47.248 159.685 47.1928 159.565 47.1208C159.466 47.0699 159.381 46.9957 159.317 46.9048C159.266 46.8314 159.238 46.7438 159.239 46.6542C159.242 46.5587 159.272 46.4659 159.326 46.3864C159.391 46.2863 159.471 46.1973 159.565 46.1229L159.269 45.9501C159.256 45.9446 159.245 45.9357 159.236 45.9243C159.228 45.9129 159.223 45.8994 159.222 45.8853C159.223 45.8708 159.229 45.8569 159.237 45.8449C159.245 45.8329 159.256 45.823 159.269 45.8162L159.621 45.6174C159.657 45.5978 159.697 45.5875 159.738 45.5875C159.779 45.5875 159.819 45.5978 159.855 45.6174L160.124 45.7902Z" fill="#7E57C2"/>
<path d="M138.685 53.0133L150.715 59.9296L157.937 55.7781L150.715 60.3573L138.685 53.0133Z" fill="black"/>
<path d="M128.008 46.2568C128.008 46.2568 127.609 48.4946 127.809 49.6307C127.809 49.6307 130.96 49.553 136.276 51.0131L128.008 46.2568Z" fill="black"/>
<path d="M128.004 46.2568L136.276 51.0131L127.127 48.3822L128.004 46.2568Z" fill="#FAFAFA"/>
<path d="M138.685 54.0371L147.751 62.3358C147.751 62.3358 148.003 61.1954 149.743 60.3918L138.685 54.0371Z" fill="black"/>
<path d="M138.685 54.0371L147.2 61.1738L149.743 60.3962L138.685 54.0371Z" fill="#FAFAFA"/>
<path d="M165.233 51.1859C165.185 51.1125 165.154 51.0736 165.154 51.0736L159.426 54.3654L165.875 53.8254C165.984 52.8975 165.756 51.9612 165.233 51.1859Z" fill="black"/>
<path d="M159.426 54.3654L165.154 51.0736L167.064 52.0758L159.426 54.3654Z" fill="#FAFAFA"/>
<path d="M130.018 44.2394C129.979 44.2394 129.94 44.2294 129.906 44.2105C129.872 44.1917 129.843 44.1644 129.823 44.1314C129.794 44.0802 129.787 44.02 129.802 43.9635C129.817 43.907 129.854 43.8587 129.905 43.829L140.26 37.863C140.311 37.8338 140.372 37.8261 140.429 37.8415C140.486 37.8568 140.535 37.8941 140.564 37.9451C140.593 37.9961 140.601 38.0566 140.586 38.1133C140.57 38.17 140.533 38.2183 140.482 38.2475L130.139 44.2091C130.103 44.2316 130.061 44.2422 130.018 44.2394Z" fill="#455A64"/>
<path d="M132.422 45.6174C132.384 45.618 132.346 45.6083 132.312 45.5893C132.278 45.5703 132.251 45.5427 132.231 45.5094C132.216 45.4845 132.207 45.4569 132.202 45.4282C132.198 45.3994 132.2 45.3702 132.207 45.3421C132.214 45.314 132.227 45.2876 132.245 45.2644C132.262 45.2412 132.284 45.2217 132.309 45.207L142.665 39.2411C142.715 39.2202 142.771 39.2181 142.823 39.2354C142.875 39.2527 142.919 39.2881 142.946 39.3351C142.974 39.3821 142.983 39.4374 142.973 39.4908C142.963 39.5443 142.933 39.5922 142.89 39.6256L132.535 45.6174C132.498 45.6259 132.459 45.6259 132.422 45.6174Z" fill="#455A64"/>
<path d="M134.831 47.0085C134.791 47.0076 134.753 46.9969 134.719 46.9772C134.685 46.9576 134.656 46.9297 134.636 46.8962C134.607 46.845 134.6 46.7848 134.615 46.7283C134.63 46.6718 134.667 46.6235 134.718 46.5938L145.073 40.6278C145.125 40.5994 145.185 40.5921 145.242 40.6075C145.299 40.6228 145.347 40.6595 145.377 40.7099C145.392 40.7351 145.401 40.763 145.405 40.7919C145.409 40.8208 145.407 40.8501 145.399 40.8783C145.392 40.9064 145.378 40.9327 145.36 40.9557C145.342 40.9787 145.32 40.998 145.295 41.0123L134.939 46.9782C134.906 46.9962 134.869 47.0065 134.831 47.0085Z" fill="#455A64"/>
<path d="M137.235 48.3909C137.196 48.391 137.158 48.3806 137.124 48.3608C137.091 48.3411 137.063 48.3127 137.044 48.2786C137.03 48.2534 137.02 48.2255 137.016 48.1966C137.012 48.1677 137.014 48.1384 137.022 48.1102C137.03 48.0821 137.043 48.0558 137.061 48.0328C137.079 48.0097 137.101 47.9905 137.127 47.9762L147.499 42.0102C147.525 41.9956 147.553 41.9861 147.582 41.9823C147.611 41.9785 147.64 41.9805 147.668 41.9882C147.697 41.9958 147.723 42.0089 147.746 42.0268C147.769 42.0447 147.789 42.067 147.803 42.0923C147.818 42.1173 147.828 42.1449 147.832 42.1736C147.836 42.2023 147.834 42.2316 147.827 42.2597C147.82 42.2878 147.807 42.3142 147.79 42.3373C147.772 42.3605 147.75 42.38 147.725 42.3947L137.37 48.3606C137.33 48.3856 137.282 48.3963 137.235 48.3909Z" fill="#455A64"/>
<path d="M139.644 49.7733C139.604 49.7733 139.565 49.7629 139.531 49.7431C139.497 49.7234 139.468 49.6951 139.449 49.661C139.42 49.6098 139.413 49.5496 139.428 49.4931C139.444 49.4366 139.48 49.3883 139.531 49.3586L149.886 43.397C149.937 43.3682 149.997 43.3602 150.054 43.3747C150.111 43.3892 150.16 43.4251 150.19 43.4747C150.205 43.4999 150.214 43.5278 150.218 43.5567C150.222 43.5856 150.22 43.6149 150.212 43.6431C150.205 43.6712 150.191 43.6975 150.173 43.7205C150.156 43.7435 150.133 43.7628 150.108 43.7771L139.752 49.743C139.72 49.7631 139.682 49.7735 139.644 49.7733Z" fill="#455A64"/>
<path d="M142.048 51.1557C142 51.155 141.953 51.1385 141.915 51.1089C141.877 51.0792 141.85 51.038 141.838 50.9915C141.825 50.945 141.829 50.8957 141.847 50.8513C141.866 50.8068 141.898 50.7696 141.94 50.7453L152.273 44.7794C152.299 44.7647 152.327 44.7552 152.356 44.7515C152.385 44.7477 152.414 44.7496 152.442 44.7573C152.471 44.7649 152.497 44.778 152.52 44.7959C152.543 44.8138 152.563 44.8361 152.577 44.8614C152.592 44.8861 152.602 44.9134 152.606 44.9417C152.61 44.9701 152.608 44.999 152.601 45.0268C152.594 45.0545 152.581 45.0806 152.563 45.1033C152.546 45.1261 152.524 45.1452 152.499 45.1595L142.161 51.1254C142.127 51.146 142.088 51.1565 142.048 51.1557Z" fill="#455A64"/>
<path d="M144.461 52.5294C144.422 52.5294 144.384 52.5195 144.35 52.5006C144.315 52.4817 144.287 52.4545 144.266 52.4214C144.237 52.3703 144.23 52.31 144.246 52.2536C144.261 52.1971 144.298 52.1488 144.348 52.119L154.704 46.1531C154.755 46.1239 154.816 46.1161 154.873 46.1315C154.93 46.1469 154.978 46.1842 155.008 46.2352C155.037 46.2862 155.045 46.3467 155.029 46.4034C155.014 46.4601 154.976 46.5084 154.925 46.5376L144.565 52.5294C144.531 52.5384 144.495 52.5384 144.461 52.5294Z" fill="#455A64"/>
<path d="M142.105 37.3101C142.066 37.3107 142.027 37.3005 141.993 37.2807C141.96 37.2608 141.932 37.2322 141.914 37.1978C141.899 37.1731 141.889 37.1459 141.885 37.1175C141.881 37.0891 141.883 37.0602 141.89 37.0324C141.897 37.0047 141.91 36.9786 141.928 36.9559C141.945 36.9331 141.967 36.914 141.992 36.8997L144.344 35.5302C144.369 35.5156 144.397 35.5061 144.426 35.5023C144.456 35.4985 144.485 35.5005 144.513 35.5082C144.542 35.5158 144.568 35.5289 144.591 35.5468C144.614 35.5647 144.634 35.587 144.648 35.6123C144.663 35.6372 144.672 35.6647 144.676 35.6933C144.68 35.7219 144.678 35.7509 144.67 35.7787C144.662 35.8064 144.649 35.8324 144.631 35.855C144.613 35.8777 144.591 35.8965 144.565 35.9104L142.218 37.2798C142.184 37.3004 142.144 37.3109 142.105 37.3101Z" fill="#455A64"/>
<path d="M144.509 38.7054C144.471 38.7051 144.433 38.695 144.4 38.6761C144.366 38.6572 144.338 38.6301 144.318 38.5974C144.303 38.5722 144.294 38.5444 144.29 38.5155C144.286 38.4866 144.288 38.4572 144.296 38.4291C144.304 38.401 144.317 38.3746 144.335 38.3516C144.353 38.3286 144.375 38.3094 144.401 38.295L146.753 36.9256C146.778 36.911 146.806 36.9015 146.835 36.8977C146.864 36.8939 146.894 36.8959 146.922 36.9035C146.95 36.9111 146.977 36.9243 147 36.9422C147.023 36.96 147.042 36.9823 147.057 37.0077C147.085 37.0589 147.093 37.1191 147.077 37.1756C147.062 37.232 147.025 37.2803 146.974 37.3101L144.622 38.6752C144.588 38.6958 144.549 38.7063 144.509 38.7054Z" fill="#455A64"/>
<path d="M146.918 40.0749C146.879 40.0754 146.841 40.0657 146.808 40.0467C146.774 40.0277 146.746 40.0002 146.727 39.9669C146.712 39.9419 146.702 39.9143 146.698 39.8856C146.694 39.8569 146.695 39.8276 146.703 39.7995C146.71 39.7714 146.723 39.745 146.74 39.7219C146.758 39.6987 146.78 39.6792 146.805 39.6645L149.157 38.295C149.183 38.2806 149.211 38.2712 149.24 38.2675C149.269 38.2638 149.298 38.2658 149.326 38.2735C149.354 38.2811 149.381 38.2942 149.404 38.3119C149.427 38.3297 149.446 38.3519 149.461 38.3771C149.476 38.4024 149.485 38.4302 149.489 38.4591C149.492 38.4879 149.49 38.5172 149.483 38.5453C149.475 38.5734 149.462 38.5997 149.444 38.6227C149.426 38.6458 149.404 38.6651 149.379 38.6795L147.031 40.0446C146.997 40.0652 146.958 40.0757 146.918 40.0749Z" fill="#455A64"/>
<path d="M149.326 41.4616C149.287 41.4607 149.248 41.45 149.214 41.4304C149.18 41.4107 149.152 41.3828 149.131 41.3493C149.116 41.3241 149.107 41.2962 149.103 41.2673C149.099 41.2384 149.101 41.2091 149.109 41.1809C149.117 41.1528 149.13 41.1265 149.148 41.1035C149.166 41.0805 149.188 41.0612 149.214 41.0469L151.566 39.6774C151.617 39.6482 151.678 39.6405 151.735 39.6559C151.792 39.6712 151.84 39.7085 151.87 39.7595C151.899 39.8105 151.907 39.871 151.891 39.9277C151.876 39.9844 151.838 40.0327 151.787 40.0619L149.435 41.4314C149.402 41.4493 149.364 41.4597 149.326 41.4616Z" fill="#455A64"/>
<path d="M151.731 42.844C151.692 42.8446 151.653 42.8344 151.619 42.8146C151.586 42.7948 151.558 42.7661 151.54 42.7317C151.511 42.681 151.503 42.6212 151.518 42.5648C151.532 42.5083 151.568 42.4598 151.618 42.4293L153.97 41.0642C153.995 41.047 154.024 41.0352 154.054 41.0295C154.084 41.0238 154.114 41.0243 154.144 41.031C154.174 41.0377 154.202 41.0505 154.226 41.0684C154.251 41.0864 154.272 41.1092 154.287 41.1354C154.302 41.1617 154.312 41.1908 154.315 41.2209C154.319 41.2511 154.316 41.2816 154.307 41.3106C154.298 41.3396 154.283 41.3664 154.263 41.3894C154.243 41.4124 154.219 41.4311 154.192 41.4443L151.839 42.8138C151.807 42.8336 151.769 42.844 151.731 42.844Z" fill="#455A64"/>
<path d="M154.14 44.2264C154.111 44.2338 154.081 44.2355 154.052 44.2314C154.023 44.2274 153.995 44.2177 153.97 44.2028C153.944 44.188 153.922 44.1683 153.904 44.1449C153.886 44.1216 153.874 44.0949 153.866 44.0666C153.859 44.0382 153.857 44.0087 153.861 43.9796C153.865 43.9506 153.875 43.9226 153.89 43.8974C153.905 43.8721 153.924 43.85 153.948 43.8323C153.971 43.8147 153.998 43.8018 154.027 43.7944L156.379 42.4293C156.404 42.4121 156.433 42.4003 156.462 42.3946C156.492 42.3889 156.523 42.3895 156.553 42.3961C156.583 42.4028 156.611 42.4156 156.635 42.4335C156.66 42.4515 156.68 42.4743 156.696 42.5006C156.711 42.5268 156.721 42.5559 156.724 42.586C156.727 42.6162 156.725 42.6467 156.716 42.6757C156.707 42.7047 156.692 42.7315 156.672 42.7546C156.652 42.7776 156.628 42.7963 156.6 42.8094L154.248 44.1789C154.217 44.2051 154.18 44.2216 154.14 44.2264Z" fill="#455A64"/>
<path d="M156.544 45.6174C156.505 45.618 156.466 45.6078 156.433 45.588C156.399 45.5682 156.371 45.5395 156.353 45.5051C156.324 45.4551 156.316 45.3959 156.331 45.3402C156.346 45.2845 156.381 45.2367 156.431 45.207L158.783 43.8376C158.809 43.823 158.837 43.8135 158.866 43.8097C158.895 43.8059 158.924 43.8079 158.952 43.8155C158.981 43.8231 159.007 43.8363 159.03 43.8542C159.053 43.872 159.073 43.8943 159.087 43.9197C159.102 43.9446 159.111 43.9721 159.115 44.0007C159.119 44.0292 159.117 44.0582 159.109 44.086C159.101 44.1138 159.088 44.1398 159.07 44.1624C159.052 44.185 159.03 44.2038 159.005 44.2178L156.657 45.5872C156.623 45.6078 156.584 45.6183 156.544 45.6174Z" fill="#455A64"/>
<path d="M152.26 51.3242L154.174 52.4214L154.448 52.2659L152.538 51.1686L152.26 51.3242Z" fill="#455A64"/>
<path d="M154.383 50.1059L156.296 51.2032L156.57 51.0477L154.66 49.9461L154.383 50.1059Z" fill="#455A64"/>
<path d="M156.166 49.0821L158.076 50.1794L158.254 50.08L156.344 48.9784L156.166 49.0821Z" fill="#455A64"/>
<path d="M153.354 50.6978L155.264 51.7994L155.402 51.7173L153.489 50.62L153.354 50.6978Z" fill="#455A64"/>
<path d="M154.847 49.8381L156.761 50.9354L156.895 50.8576L154.986 49.7603L154.847 49.8381Z" fill="#455A64"/>
<path d="M155.815 49.2851L157.724 50.3824L157.863 50.3046L155.954 49.203L155.815 49.2851Z" fill="#455A64"/>
<path d="M152.751 51.0434L154.66 52.1406L155.151 51.8642L153.237 50.7626L152.751 51.0434Z" fill="#455A64"/>
<path d="M153.727 50.4818L155.637 51.5834L156.123 51.3026L154.213 50.2053L153.727 50.4818Z" fill="#455A64"/>
<path d="M155.19 49.6437L157.099 50.741L157.434 50.5509L155.524 49.4536L155.19 49.6437Z" fill="#455A64"/>
<path d="M147.734 53.9248L149.648 55.0264L149.921 54.8666L148.011 53.7693L147.734 53.9248Z" fill="#455A64"/>
<path d="M149.856 52.7066L151.77 53.8038L152.043 53.6483L150.129 52.551L149.856 52.7066Z" fill="#455A64"/>
<path d="M151.635 51.6827L153.549 52.7843L153.823 52.6245L151.913 51.5272L151.635 51.6827Z" fill="#455A64"/>
<path d="M148.823 53.2984L150.737 54.4L150.872 54.3222L148.962 53.2206L148.823 53.2984Z" fill="#455A64"/>
<path d="M150.312 52.4474L152.221 53.5446L152.36 53.4626L150.446 52.3653L150.312 52.4474Z" fill="#455A64"/>
<path d="M151.288 51.8858L153.198 52.983L153.337 52.9053L151.423 51.808L151.288 51.8858Z" fill="#455A64"/>
<path d="M148.224 53.6483L150.134 54.7456L150.494 54.5382L148.584 53.441L148.224 53.6483Z" fill="#455A64"/>
<path d="M149.196 53.0867L151.11 54.184L151.505 53.955L149.596 52.8578L149.196 53.0867Z" fill="#455A64"/>
<path d="M150.681 52.2357L152.59 53.333L152.968 53.1213L151.054 52.0197L150.681 52.2357Z" fill="#455A64"/>
<path d="M156.618 48.8229L158.527 49.9202L158.805 49.7603L156.891 48.663L156.618 48.8229Z" fill="#455A64"/>
<path d="M157.117 48.5334L159.031 49.6307L159.165 49.553L157.256 48.4557L157.117 48.5334Z" fill="#455A64"/>
<path d="M158.046 47.9978L159.959 49.0994L160.094 49.0216L158.184 47.92L158.046 47.9978Z" fill="#455A64"/>
<path d="M157.516 48.3045L159.43 49.4018L159.821 49.1771L157.911 48.0798L157.516 48.3045Z" fill="#455A64"/>
<path d="M169.82 23.1534C171.239 23.4256 173.127 23.7626 174.16 25.5165C175.488 27.7629 181.564 40.0274 181.464 40.9864C181.286 42.7144 174.42 50.309 172.229 53.1861C170.779 55.0912 169.833 56.331 165.384 57.8171C163.154 58.5602 162.442 57.9338 162.442 57.9338L167.346 55.1214C167.602 54.927 168.214 54.2574 167.55 54.3006C166.99 54.3309 166.439 54.4389 165.879 54.4302C165.405 54.4648 164.931 54.3548 164.521 54.1149C164.426 54.059 164.356 53.9695 164.326 53.8643C164.317 53.7658 164.349 53.668 164.412 53.5922C164.54 53.4878 164.688 53.41 164.846 53.3632C165.013 53.2876 165.184 53.2227 165.358 53.1688C165.71 53.0565 166.07 52.9701 166.413 52.8405C166.96 52.6331 167.459 52.4819 167.858 52.3134C168.404 52.1004 168.853 51.6964 169.121 51.1773C169.907 49.9418 170.423 48.9309 170.692 48.4557C171.482 47.0474 174.351 42.0448 175.171 40.5458L169.803 31.7589C168.054 29.5427 168.093 23.5379 169.82 23.1534Z" fill="#FFA8A7"/>
<path d="M169.199 23.1146C170.067 22.8899 172.237 22.3974 173.327 23.8317C174.416 25.2659 179.268 35.0378 179.798 36.1998C180.327 37.3619 182.258 40.2606 181.655 41.4659C181.052 42.6712 179.403 44.3646 179.403 44.3646C178.025 43.0444 176.25 42.2098 174.351 41.9886L175.041 40.5544L169.199 31.2362C169.199 31.2362 167.203 26.7693 169.199 23.1146Z" fill="#7E57C2"/>
<path d="M169.199 23.1146C170.067 22.8899 172.237 22.3974 173.327 23.8317C174.416 25.2659 179.268 35.0378 179.798 36.1998C180.327 37.3619 182.258 40.2606 181.655 41.4659C181.052 42.6712 179.403 44.3646 179.403 44.3646C178.025 43.0444 176.25 42.2098 174.351 41.9886L175.041 40.5544L169.199 31.2362C169.199 31.2362 167.203 26.7693 169.199 23.1146Z" fill="black"/>
</svg>
