<svg width="212" height="198" viewBox="0 0 212 198" fill="none" xmlns="http://www.w3.org/2000/svg">
<path d="M183.231 179.986H184.804L188.227 175.211V172.06C188.227 172.06 190.656 171.913 190.37 176.016C190.085 180.119 190.393 179.075 190.393 179.075C190.393 179.075 195.545 179.075 195.973 179.535C196.286 179.857 196.433 184.977 196.479 187.75C196.513 188.42 196.322 189.082 195.936 189.631C195.55 190.179 194.991 190.583 194.349 190.777C194.169 190.826 193.984 190.851 193.797 190.851C192.509 190.851 185.945 189.807 185.945 189.807H183.231V179.986Z" fill="#E0E0E0"/>
<path d="M178.737 179.125L179.703 189.862H182.394V179.342L178.737 179.125Z" fill="#E0E0E0"/>
<path d="M102.957 18.5302L109.719 28.1902C109.892 28.4313 110.121 28.6268 110.387 28.76C110.652 28.8933 110.946 28.9603 111.243 28.9553C111.54 28.9503 111.831 28.8735 112.092 28.7315C112.353 28.5895 112.575 28.3864 112.741 28.1396L119.287 18.084L102.957 18.5302Z" fill="#E0E0E0"/>
<path d="M120.105 2.34284H101.121C98.1844 2.34284 95.8036 4.72361 95.8036 7.66044V18.567C95.8036 21.5039 98.1844 23.8846 101.121 23.8846H120.105C123.042 23.8846 125.423 21.5039 125.423 18.567V7.66044C125.423 4.72361 123.042 2.34284 120.105 2.34284Z" fill="#E0E0E0"/>
<path d="M116.416 11.1334C115.464 9.39924 113.891 9.12784 112.833 9.52344C112.087 9.84964 111.471 10.4165 111.085 11.1334C110.698 10.4165 110.083 9.84964 109.337 9.52344C108.279 9.12784 106.706 9.39924 105.758 11.1334C103.78 14.7398 111.085 19.4686 111.085 19.4686C111.085 19.4686 118.394 14.7398 116.416 11.1334Z" fill="white"/>
<path d="M28.708 169.258H44.3066C45.9719 169.258 47.569 169.92 48.7465 171.098C49.924 172.275 50.5856 173.872 50.5856 175.537V183.459C50.5856 185.124 49.924 186.721 48.7465 187.899C47.569 189.076 45.9719 189.738 44.3066 189.738H40.231L37.3606 193.841C37.1981 194.074 36.9809 194.263 36.7281 194.392C36.4754 194.521 36.1947 194.587 35.9109 194.582C35.627 194.578 35.3486 194.503 35.1001 194.366C34.8516 194.229 34.6406 194.033 34.4856 193.795L31.8452 189.738H28.708C27.0427 189.738 25.4456 189.076 24.2681 187.899C23.0905 186.721 22.429 185.124 22.429 183.459V175.537C22.429 173.872 23.0905 172.275 24.2681 171.098C25.4456 169.92 27.0427 169.258 28.708 169.258Z" fill="#E0E0E0"/>
<path d="M35.953 175.551V183.629L30.1708 179.59L35.953 175.551Z" fill="white"/>
<path d="M43.6902 184.264C43.6902 184.264 43.3084 178.527 38.7176 178.44H35.7828V180.906L38.6762 180.947C38.6762 180.947 41.68 180.878 43.6902 184.264Z" fill="white"/>
<path d="M38.1118 84.6897C38.6384 82.4673 37.2637 80.2389 35.0413 79.7123C32.8189 79.1857 30.5905 80.5604 30.0639 82.7828C29.5373 85.0052 30.912 87.2337 33.1344 87.7603C35.3568 88.2868 37.5853 86.9121 38.1118 84.6897Z" fill="#E0E0E0"/>
<path d="M34.09 87.383C32.2148 87.383 30.4165 88.1279 29.0906 89.4539C27.7647 90.7798 27.0198 92.5781 27.0198 94.4532H41.1602C41.1602 92.5781 40.4153 90.7798 39.0894 89.4539C37.7634 88.1279 35.9651 87.383 34.09 87.383Z" fill="#E0E0E0"/>
<path d="M149.895 6.05504C149.895 6.62366 149.726 7.17952 149.41 7.65231C149.095 8.1251 148.646 8.4936 148.12 8.7112C147.595 8.9288 147.017 8.98573 146.459 8.8748C145.901 8.76387 145.389 8.49005 144.987 8.08798C144.585 7.6859 144.311 7.17362 144.2 6.61593C144.089 6.05823 144.146 5.48017 144.364 4.95483C144.581 4.42949 144.95 3.98048 145.423 3.66457C145.896 3.34866 146.451 3.18004 147.02 3.18004C147.398 3.17944 147.772 3.25339 148.121 3.39766C148.47 3.54192 148.787 3.75367 149.054 4.02076C149.321 4.28785 149.533 4.60503 149.677 4.95411C149.822 5.3032 149.896 5.67732 149.895 6.05504Z" fill="#E0E0E0"/>
<path d="M157.871 12.7848C157.871 13.3535 157.703 13.9093 157.387 14.3821C157.071 14.8549 156.622 15.2234 156.097 15.441C155.571 15.6586 154.993 15.7155 154.436 15.6046C153.878 15.4937 153.366 15.2199 152.963 14.8178C152.561 14.4157 152.288 13.9034 152.177 13.3457C152.066 12.788 152.123 12.21 152.34 11.6846C152.558 11.1593 152.926 10.7103 153.399 10.3944C153.872 10.0785 154.428 9.90984 154.996 9.90984C155.759 9.90984 156.49 10.2127 157.029 10.7519C157.568 11.2911 157.871 12.0223 157.871 12.7848Z" fill="#E0E0E0"/>
<path d="M149.941 19.648C149.941 20.2167 149.772 20.7725 149.456 21.2453C149.141 21.7181 148.692 22.0866 148.166 22.3042C147.641 22.5218 147.063 22.5787 146.505 22.4678C145.947 22.3569 145.435 22.083 145.033 21.681C144.631 21.2789 144.357 20.7666 144.246 20.2089C144.135 19.6512 144.192 19.0732 144.41 18.5478C144.627 18.0225 144.996 17.5735 145.469 17.2576C145.942 16.9417 146.497 16.773 147.066 16.773C147.828 16.773 148.56 17.0759 149.099 17.6151C149.638 18.1543 149.941 18.8855 149.941 19.648Z" fill="#E0E0E0"/>
<path d="M147.218 19.8228L146.914 19.4732L154.642 12.7894L146.873 6.23444L147.167 5.88024L155.351 12.7848L147.218 19.8228Z" fill="#E0E0E0"/>
<path d="M199.506 73.5048C198.264 71.2324 196.203 70.8828 194.823 71.398C193.842 71.823 193.032 72.5649 192.523 73.5048C192.014 72.5649 191.204 71.823 190.223 71.398C188.843 70.8828 186.782 71.2324 185.54 73.5048C182.974 78.2198 192.56 84.4068 192.56 84.4068C192.56 84.4068 202.096 78.2198 199.506 73.5048Z" fill="#E0E0E0"/>
<path d="M188.199 95.5848C187.311 93.9656 185.849 93.7172 184.86 94.0852C184.165 94.3894 183.591 94.9173 183.231 95.5848C182.871 94.9173 182.298 94.3894 181.603 94.0852C180.618 93.7172 179.151 93.9656 178.268 95.5848C176.428 98.9566 183.231 103.35 183.231 103.35C183.231 103.35 190.044 98.9566 188.199 95.5848Z" fill="#E0E0E0"/>
<path d="M154.201 161.866H206.452C209.363 161.866 211.724 159.506 211.724 156.595V116.151C211.724 113.24 209.363 110.88 206.452 110.88H154.201C151.289 110.88 148.929 113.24 148.929 116.151V156.595C148.929 159.506 151.289 161.866 154.201 161.866Z" fill="white"/>
<path d="M177.803 160.307C177.159 161.866 164.707 173.573 164.707 173.573V160.307H177.803Z" fill="#455A64"/>
<path d="M172.982 149.63C172.982 148.02 172.982 146.677 172.982 146.511C172.982 146.511 167.541 145.996 167.15 140.61C166.961 138.006 167.007 132.606 167.108 127.73C167.16 125.201 168.163 122.785 169.917 120.962C171.67 119.14 174.046 118.045 176.57 117.895L177.09 117.863C182.725 117.863 185.876 122.633 185.729 128.263L185.531 149.391L176.423 156.71L175.761 156.65L172.982 149.63Z" fill="#FFBF9D"/>
<path d="M172.973 146.511C175.465 146.355 177.859 145.489 179.873 144.014C179.873 144.014 178.397 148.057 172.973 147.896V146.511Z" fill="#FF9A6C"/>
<path d="M176.276 130.053C176.382 130.163 177.007 129.671 177.909 129.657C178.811 129.643 179.482 130.094 179.579 129.979C179.675 129.864 179.514 129.731 179.225 129.519C178.833 129.248 178.366 129.108 177.891 129.119C177.418 129.127 176.962 129.289 176.589 129.579C176.313 129.8 176.225 130.002 176.276 130.053Z" fill="#263238"/>
<path d="M176.943 132.5C176.951 132.69 177.034 132.869 177.174 132.998C177.313 133.127 177.498 133.196 177.688 133.19C177.781 133.192 177.874 133.176 177.961 133.142C178.047 133.108 178.126 133.057 178.193 132.991C178.259 132.926 178.312 132.848 178.348 132.762C178.384 132.676 178.402 132.584 178.401 132.491C178.392 132.301 178.309 132.122 178.169 131.992C178.03 131.863 177.846 131.792 177.656 131.796C177.563 131.794 177.47 131.811 177.383 131.846C177.296 131.88 177.217 131.932 177.151 131.997C177.085 132.063 177.032 132.141 176.996 132.228C176.96 132.314 176.942 132.406 176.943 132.5Z" fill="#263238"/>
<path d="M173.935 136.295C173.483 136.184 173.02 136.129 172.555 136.134C172.343 136.134 172.141 136.097 172.095 135.954C172.064 135.736 172.101 135.513 172.2 135.315C172.366 134.795 172.541 134.243 172.729 133.668C173.461 131.322 173.976 129.395 173.879 129.367C173.783 129.34 173.116 131.207 172.384 133.567C172.21 134.142 172.039 134.694 171.883 135.223C171.765 135.486 171.744 135.783 171.823 136.06C171.858 136.133 171.908 136.197 171.971 136.247C172.034 136.297 172.108 136.333 172.187 136.35C172.306 136.374 172.428 136.383 172.55 136.378C173.013 136.413 173.479 136.386 173.935 136.295Z" fill="#263238"/>
<path d="M176.722 127.155C176.81 127.357 177.532 127.214 178.397 127.274C179.261 127.334 179.97 127.527 180.071 127.334C180.117 127.247 179.984 127.058 179.694 126.874C179.31 126.653 178.879 126.525 178.436 126.501C177.993 126.477 177.551 126.558 177.145 126.736C176.837 126.888 176.685 127.063 176.722 127.155Z" fill="#263238"/>
<path d="M168.263 127.67C168.355 127.835 169.063 127.67 169.914 127.647C170.765 127.624 171.474 127.748 171.566 127.578C171.607 127.5 171.469 127.352 171.175 127.219C170.776 127.054 170.346 126.977 169.914 126.994C169.478 127 169.048 127.101 168.654 127.288C168.359 127.44 168.221 127.592 168.263 127.67Z" fill="#263238"/>
<path d="M185.522 132.279C185.609 132.233 189.161 130.959 189.266 134.653C189.372 138.346 185.637 137.689 185.628 137.583C185.619 137.477 185.522 132.279 185.522 132.279Z" fill="#FFBF9D"/>
<path d="M186.718 136.152C186.718 136.152 186.782 136.198 186.893 136.244C187.048 136.307 187.221 136.307 187.376 136.244C187.762 136.088 188.07 135.462 188.07 134.795C188.072 134.477 188.003 134.163 187.868 133.875C187.829 133.76 187.764 133.657 187.676 133.572C187.589 133.488 187.483 133.427 187.367 133.392C187.292 133.374 187.214 133.383 187.146 133.418C187.077 133.453 187.024 133.51 186.994 133.581C186.948 133.687 186.994 133.756 186.953 133.765C186.911 133.774 186.87 133.705 186.897 133.553C186.916 133.461 186.964 133.377 187.035 133.314C187.084 133.274 187.141 133.244 187.202 133.226C187.263 133.209 187.327 133.204 187.39 133.213C187.542 133.24 187.685 133.304 187.805 133.401C187.926 133.497 188.02 133.622 188.08 133.765C188.243 134.082 188.328 134.434 188.328 134.791C188.328 135.536 187.965 136.24 187.436 136.41C187.337 136.442 187.233 136.452 187.13 136.438C187.027 136.425 186.929 136.388 186.842 136.332C186.727 136.24 186.704 136.18 186.718 136.152Z" fill="#FF9A6C"/>
<path d="M175.08 139.437C175.039 139.345 175.765 139.138 176.285 138.461C176.502 138.167 176.678 137.845 176.81 137.505C176.92 137.238 177.003 137.072 177.044 137.086C177.086 137.1 177.067 137.279 177.007 137.546C176.923 137.936 176.755 138.303 176.515 138.622C176.268 138.94 175.939 139.185 175.563 139.331C175.278 139.464 175.08 139.469 175.08 139.437Z" fill="#263238"/>
<path d="M190.508 126.363C189.754 125.048 189.588 123.493 189.193 122.035C188.797 120.577 188.001 119.059 186.585 118.534H186.552C185.278 118.001 183.7 117.973 182.638 118.852C182.403 116.929 180.743 115.383 178.875 114.868C177.007 114.353 173.999 114.61 172.191 115.328C170.811 115.866 169.431 116.998 167.784 118.658C167.087 119.358 166.447 120.114 165.871 120.917L164.178 125.922L165.558 128.576C165.641 128.76 165.724 128.939 165.825 129.119L167.012 134.694C167.113 133.181 167.071 127.904 167.168 126.391C168.309 126.371 169.433 126.122 170.475 125.657C171.517 125.192 172.454 124.522 173.231 123.686C174.068 122.766 174.735 121.639 175.848 121.106C177.288 120.416 178.981 120.954 180.48 121.492L180.416 121.437C181.197 121.809 181.898 122.329 182.481 122.969C182.104 125.96 182.376 128.997 183.277 131.874C183.415 132.307 183.788 133.199 184.197 133.365C185.025 133.696 185.26 132.854 185.761 132.412C186.206 132.115 186.744 131.991 187.275 132.063C187.707 130.812 188.062 129.535 188.337 128.24C188.837 128.403 189.368 128.445 189.887 128.364L189.427 127.219C189.623 127.366 189.847 127.471 190.085 127.527C190.205 127.552 190.329 127.54 190.442 127.492C190.554 127.444 190.65 127.364 190.715 127.26C190.853 126.98 190.665 126.635 190.508 126.363Z" fill="#263238"/>
<path d="M180.936 119.459C181.127 119.611 181.305 119.779 181.469 119.96C181.888 120.481 182.165 121.1 182.274 121.759C182.362 122.213 182.402 122.676 182.394 123.139C182.394 123.636 182.343 124.165 182.297 124.726C182.24 125.313 182.219 125.903 182.233 126.492C182.25 126.801 182.287 127.108 182.343 127.412C182.385 127.745 182.512 128.062 182.711 128.332C182.805 128.438 182.923 128.518 183.056 128.565C183.189 128.611 183.332 128.623 183.47 128.599C183.735 128.552 183.978 128.419 184.16 128.222C184.459 127.818 184.643 127.341 184.694 126.842H184.584C184.74 127.25 184.956 127.633 185.223 127.978C185.481 128.3 185.853 128.51 186.263 128.562C186.453 128.585 186.645 128.555 186.819 128.475C186.98 128.392 187.113 128.264 187.201 128.107C187.28 127.967 187.322 127.808 187.321 127.647C187.318 127.491 187.259 127.34 187.155 127.224L187.095 127.274C187.412 127.644 187.802 127.945 188.241 128.157C188.357 128.212 188.477 128.26 188.599 128.3C188.64 128.318 188.684 128.329 188.728 128.332L188.609 128.282C188.526 128.245 188.411 128.199 188.259 128.121C187.836 127.897 187.461 127.592 187.155 127.224L187.1 127.274C187.186 127.389 187.234 127.527 187.238 127.671C187.242 127.814 187.202 127.955 187.123 128.075C187.044 128.216 186.924 128.33 186.778 128.401C186.619 128.473 186.444 128.499 186.272 128.475C185.893 128.42 185.549 128.223 185.31 127.923C185.052 127.583 184.843 127.208 184.689 126.81L184.616 126.635L184.579 126.819C184.524 127.291 184.348 127.741 184.068 128.125C183.905 128.301 183.688 128.419 183.452 128.461C183.334 128.483 183.213 128.474 183.1 128.435C182.987 128.395 182.886 128.327 182.808 128.236C182.622 127.986 182.505 127.693 182.468 127.385C182.408 127.081 182.371 126.774 182.357 126.465C182.343 125.88 182.361 125.295 182.412 124.712C182.454 124.151 182.5 123.617 182.5 123.116C182.501 122.652 182.454 122.19 182.362 121.736C182.244 121.066 181.948 120.44 181.506 119.923C181.343 119.738 181.15 119.581 180.936 119.459Z" fill="#455A64"/>
<path d="M164.21 124.487C164.21 124.487 164.21 124.487 164.252 124.523L164.385 124.625C164.457 124.679 164.532 124.728 164.61 124.772C164.715 124.838 164.824 124.896 164.937 124.947C165.654 125.288 166.444 125.447 167.237 125.407C168.415 125.344 169.549 124.941 170.503 124.247C171.654 123.39 172.618 122.307 173.337 121.064C173.737 120.42 174.063 119.753 174.422 119.141C174.753 118.545 175.167 117.998 175.65 117.518C176.087 117.085 176.624 116.769 177.214 116.598C177.481 116.527 177.758 116.499 178.033 116.515C178.288 116.533 178.538 116.585 178.778 116.671C179.195 116.819 179.574 117.054 179.892 117.361C180.134 117.591 180.336 117.86 180.49 118.157C180.608 118.417 180.699 118.688 180.761 118.967C180.762 118.948 180.762 118.93 180.761 118.911C180.761 118.865 180.761 118.81 180.761 118.746C180.716 118.536 180.65 118.331 180.563 118.134C180.412 117.829 180.212 117.55 179.97 117.311C179.464 116.792 178.787 116.475 178.065 116.418C177.779 116.398 177.491 116.426 177.214 116.501C176.606 116.667 176.049 116.984 175.595 117.421C175.101 117.905 174.68 118.458 174.344 119.063C173.981 119.684 173.654 120.347 173.254 120.986C172.544 122.214 171.594 123.288 170.462 124.142C169.522 124.829 168.404 125.233 167.242 125.305C166.462 125.356 165.681 125.218 164.965 124.905C164.454 124.68 164.219 124.468 164.21 124.487Z" fill="#455A64"/>
<path d="M168.047 130.283C168.152 130.393 168.783 129.901 169.684 129.892C170.586 129.882 171.253 130.329 171.349 130.214C171.446 130.099 171.29 129.961 170.995 129.754C170.604 129.483 170.137 129.343 169.661 129.353C169.189 129.364 168.733 129.525 168.359 129.813C168.088 130.03 167.996 130.237 168.047 130.283Z" fill="#263238"/>
<path d="M169.427 132.624C169.436 132.814 169.519 132.993 169.658 133.122C169.797 133.252 169.982 133.322 170.172 133.319C170.265 133.32 170.358 133.304 170.445 133.269C170.531 133.234 170.61 133.183 170.677 133.117C170.743 133.052 170.796 132.973 170.832 132.887C170.867 132.801 170.885 132.708 170.885 132.615C170.875 132.425 170.792 132.247 170.653 132.118C170.513 131.989 170.329 131.92 170.14 131.925C170.046 131.922 169.954 131.939 169.867 131.973C169.78 132.007 169.701 132.058 169.635 132.123C169.568 132.189 169.516 132.266 169.48 132.352C169.444 132.439 169.426 132.531 169.427 132.624Z" fill="#263238"/>
<path d="M166.34 120.296C165.88 120.903 165.176 121.455 164.422 121.372C164.148 121.315 163.879 121.236 163.617 121.138C163.355 121.299 163.414 122.2 163.617 122.449C163.788 122.66 163.977 122.855 164.183 123.033C163.295 123.493 162.49 123.277 161.547 122.932C161.642 123.738 161.946 124.505 162.431 125.157C162.915 125.808 163.562 126.321 164.307 126.644C164.534 126.766 164.788 126.832 165.046 126.837C165.305 126.842 165.561 126.785 165.793 126.672C166.149 126.381 166.384 125.967 166.45 125.512C166.873 123.896 167.095 122.234 167.113 120.563L166.34 120.296Z" fill="#263238"/>
<path d="M160.654 155.711L160.751 155.587C165.066 151.019 173.01 149.492 173.01 149.492C173.01 149.492 173.498 152.482 177.95 152.818C182.403 153.154 185.66 148.6 185.66 148.6L191.64 149.446C191.64 149.446 194.63 149.8 196.488 150.895C200.684 153.361 202.928 161.866 202.928 161.866L157.112 162.055L160.654 155.711Z" fill="#455A64"/>
<path d="M156.464 110.88L156.142 110.903L155.746 110.93C155.59 110.93 155.41 110.981 155.203 111.013C153.991 111.22 152.849 111.726 151.882 112.485C151.177 113.035 150.576 113.707 150.107 114.468C149.541 115.381 149.18 116.406 149.049 117.472C148.987 118.071 148.966 118.673 148.984 119.275C148.984 119.896 148.984 120.544 148.984 121.207C148.984 122.541 148.984 123.967 148.984 125.448C148.984 131.428 148.984 138.641 149.007 146.879C149.007 148.94 149.007 151.062 149.007 153.246C149.007 153.789 149.007 154.341 149.039 154.883C149.08 155.432 149.179 155.975 149.334 156.503C149.666 157.577 150.239 158.562 151.008 159.382C151.786 160.233 152.756 160.884 153.837 161.282L154.247 161.429L154.67 161.54C154.954 161.61 155.243 161.663 155.535 161.696C156.126 161.752 156.721 161.774 157.315 161.76H164.794V161.866C164.794 165.569 164.794 169.521 164.794 173.573L164.606 173.49C166.544 171.65 168.511 169.764 170.508 167.832C172.495 165.882 174.528 163.904 176.465 161.788L176.501 161.751H203.333C203.825 161.751 204.313 161.751 204.791 161.724C206.224 161.603 207.591 161.067 208.725 160.183C209.859 159.298 210.711 158.102 211.176 156.742C211.472 155.853 211.61 154.919 211.586 153.982V151.13C211.586 143.609 211.586 136.35 211.586 129.436C211.586 125.983 211.586 122.61 211.586 119.316C211.618 118.51 211.569 117.702 211.438 116.906C211.273 116.133 210.991 115.39 210.601 114.702C210.216 114.025 209.723 113.415 209.143 112.895C208.58 112.376 207.937 111.952 207.239 111.639C206.554 111.325 205.825 111.118 205.077 111.027C204.335 110.964 203.59 110.943 202.846 110.963H190.274L165.512 110.926L158.778 110.903H165.512L190.274 110.866H202.846C203.599 110.847 204.353 110.868 205.104 110.93C205.871 111.023 206.619 111.234 207.321 111.556C208.04 111.877 208.701 112.312 209.281 112.844C209.876 113.373 210.383 113.994 210.781 114.684C211.18 115.391 211.47 116.154 211.641 116.947C211.778 117.757 211.83 118.579 211.797 119.399C211.797 122.674 211.797 126.048 211.797 129.519C211.797 136.419 211.797 143.692 211.797 151.213V154.046C211.823 155.014 211.682 155.979 211.379 156.898C210.885 158.277 210.007 159.485 208.847 160.378C207.688 161.272 206.296 161.814 204.837 161.94C204.336 161.977 203.844 161.977 203.356 161.972H176.58L176.667 161.935C174.717 164.056 172.683 166.034 170.687 167.984C168.691 169.935 166.713 171.816 164.776 173.642L164.583 173.822V173.559C164.583 169.507 164.583 165.555 164.583 161.852L164.693 161.963H157.333C156.73 161.98 156.126 161.959 155.525 161.898C155.227 161.866 154.932 161.811 154.642 161.733L154.205 161.622L153.782 161.471C152.672 161.058 151.675 160.388 150.875 159.516C150.09 158.669 149.505 157.656 149.164 156.553C149.005 156.012 148.904 155.455 148.865 154.893C148.823 154.331 148.837 153.784 148.837 153.241C148.837 151.058 148.837 148.936 148.837 146.875C148.837 138.636 148.837 131.414 148.86 125.443C148.86 123.948 148.86 122.536 148.86 121.202C148.86 120.54 148.86 119.891 148.86 119.27C148.843 118.664 148.866 118.057 148.929 117.453C149.057 116.466 149.378 115.514 149.874 114.651C150.371 113.788 151.033 113.032 151.822 112.425C152.802 111.666 153.957 111.166 155.18 110.972C155.387 110.944 155.567 110.907 155.728 110.898H156.123L156.464 110.88Z" fill="#263238"/>
<path d="M50.1532 106.064H5.81838C2.91966 106.064 0.569781 108.414 0.569781 111.312V145.334C0.569781 148.233 2.91966 150.582 5.81838 150.582H50.1532C53.0519 150.582 55.4018 148.233 55.4018 145.334V111.312C55.4018 108.414 53.0519 106.064 50.1532 106.064Z" fill="white"/>
<path d="M30.18 149.221C30.7412 150.601 41.6202 160.804 41.6202 160.804V149.221H30.18Z" fill="#7E57C2"/>
<path d="M37.8298 115.94C37.5609 115.07 37.1215 114.262 36.537 113.564C35.9525 112.866 35.2348 112.291 34.4258 111.873C32.5994 111.023 30.534 110.834 28.5838 111.34C26.6515 111.851 24.8152 112.673 23.1466 113.773C22.1641 114.317 21.292 115.039 20.5752 115.903C19.347 117.536 18.1694 120.199 18.105 122.242C18.0498 123.893 18.7996 128.001 19.5402 129.478C19.9335 130.088 20.4985 130.568 21.164 130.858C21.9577 132.321 23.0061 133.631 24.2598 134.726C24.6094 133.61 24.9605 132.492 25.3132 131.373L37.8298 115.94Z" fill="#263238"/>
<path d="M36.8224 113.943L33.5564 113.456C35.4516 117.633 36.2106 127.293 37.356 131.736C38.5014 129.965 41.1326 124.592 40.9256 122.49C40.7186 120.388 40.6726 113.474 36.8224 113.943Z" fill="#263238"/>
<path d="M21.6194 121.423C21.6428 120.235 22.0469 119.085 22.7723 118.144C23.4976 117.202 24.506 116.519 25.649 116.193L33.078 114.072C36.298 113.612 38.5704 117.545 38.8786 120.784C39.2144 124.381 39.4674 128.185 39.1224 130.904C38.4324 136.341 34.3062 137.16 34.3062 137.16C34.3062 137.16 34.3798 139.731 34.4212 141.3L33.2114 148.379L23.418 140.016L21.578 121.487C21.5964 121.395 21.6148 121.547 21.6194 121.423Z" fill="#FFBF9D"/>
<path d="M37.241 125.287C37.2498 125.467 37.1871 125.644 37.0665 125.778C36.9459 125.913 36.7772 125.994 36.597 126.005C36.5088 126.015 36.4196 126.007 36.3344 125.982C36.2493 125.957 36.1701 125.915 36.1014 125.859C36.0328 125.803 35.9761 125.734 35.9348 125.655C35.8935 125.576 35.8684 125.49 35.861 125.402C35.8545 125.222 35.9179 125.046 36.0379 124.912C36.1579 124.777 36.3252 124.694 36.505 124.68C36.5934 124.67 36.6828 124.679 36.7679 124.704C36.853 124.73 36.9322 124.772 37.0008 124.829C37.0694 124.885 37.1259 124.955 37.1672 125.034C37.2084 125.112 37.2335 125.198 37.241 125.287Z" fill="#263238"/>
<path d="M38.1242 122.927C38.0414 123.019 37.5032 122.647 36.7442 122.674C35.9852 122.702 35.4608 123.088 35.3642 122.996C35.2676 122.904 35.4056 122.794 35.6402 122.61C35.957 122.377 36.3374 122.247 36.7304 122.237C37.1182 122.225 37.4997 122.337 37.8206 122.555C38.0828 122.725 38.1656 122.886 38.1242 122.927Z" fill="#263238"/>
<path d="M30.5158 125.287C30.5246 125.467 30.4619 125.644 30.3413 125.778C30.2207 125.913 30.052 125.994 29.8718 126.005C29.7836 126.015 29.6944 126.007 29.6092 125.982C29.5241 125.957 29.4449 125.915 29.3762 125.859C29.3076 125.803 29.2509 125.734 29.2096 125.655C29.1683 125.576 29.1432 125.49 29.1358 125.402C29.1294 125.221 29.1934 125.045 29.3143 124.91C29.4353 124.775 29.6038 124.693 29.7844 124.68C29.8725 124.67 29.9617 124.679 30.0465 124.704C30.1314 124.73 30.2103 124.772 30.2785 124.829C30.3467 124.885 30.4028 124.955 30.4436 125.034C30.4844 125.113 30.5089 125.199 30.5158 125.287Z" fill="#263238"/>
<path d="M31.0356 123.13C30.9482 123.222 30.4146 122.849 29.6556 122.877C28.8966 122.904 28.3768 123.291 28.2756 123.199C28.1744 123.107 28.317 122.996 28.5516 122.812C28.8684 122.58 29.2488 122.45 29.6418 122.44C30.0296 122.428 30.4111 122.539 30.732 122.757C30.9896 122.927 31.1 123.088 31.0356 123.13Z" fill="#263238"/>
<path d="M33.5334 128.926C33.9251 128.793 34.3313 128.708 34.7432 128.673C34.9318 128.645 35.1112 128.604 35.1388 128.47C35.1486 128.273 35.0989 128.078 34.9962 127.909C34.803 127.449 34.6006 126.989 34.3844 126.474C33.538 124.431 32.9216 122.748 33.0044 122.716C33.0872 122.683 33.837 124.312 34.6834 126.354L35.2722 127.799C35.3976 128.026 35.4399 128.289 35.3918 128.544C35.3662 128.612 35.3257 128.673 35.2731 128.723C35.2205 128.774 35.1573 128.811 35.0882 128.834C34.9835 128.865 34.8754 128.884 34.7662 128.889C34.3585 128.954 33.9442 128.966 33.5334 128.926Z" fill="#263238"/>
<path d="M27.075 135.421C27.075 135.421 28.9426 139.101 34.3384 138.411L34.32 137.141C31.7921 137.251 29.2836 136.655 27.075 135.421Z" fill="#FF9A6C"/>
<path d="M30.7228 120.439C30.6538 120.641 29.9086 120.572 29.0346 120.701C28.1606 120.83 27.4614 121.096 27.3372 120.917C27.282 120.83 27.4016 120.636 27.6822 120.429C28.0559 120.177 28.482 120.014 28.9283 119.951C29.3746 119.888 29.8294 119.927 30.2582 120.066C30.5848 120.186 30.7504 120.342 30.7228 120.439Z" fill="#263238"/>
<path d="M37.816 120.65C37.6918 120.825 37.172 120.65 36.551 120.673C35.93 120.696 35.4148 120.825 35.286 120.65C35.2308 120.563 35.309 120.393 35.5344 120.227C35.8351 120.023 36.19 119.914 36.5533 119.914C36.9165 119.914 37.2714 120.023 37.5722 120.227C37.793 120.393 37.8712 120.567 37.816 120.65Z" fill="#263238"/>
<path d="M37.264 115.885C37.0619 115.493 36.7548 115.165 36.3771 114.937C35.9994 114.71 35.5659 114.592 35.125 114.597C34.2402 114.62 33.3809 114.898 32.6502 115.397C29.4808 117.352 27.9536 121.897 24.8302 123.916C24.062 124.408 23.027 124.004 22.3784 124.652C21.7298 125.301 21.3296 126.313 21.7206 127.141C21.2488 126.586 20.8585 125.966 20.5614 125.301C20.4161 124.967 20.3439 124.606 20.3494 124.242C20.355 123.878 20.4382 123.519 20.5936 123.189C20.8558 122.702 21.3296 122.325 21.4492 121.809C21.5688 121.294 21.3526 120.848 21.3618 120.365C21.405 119.875 21.5626 119.403 21.8218 118.985C22.9549 116.702 24.6882 114.769 26.8358 113.396C28.2533 112.517 29.8831 112.04 31.5508 112.016C33.2234 112.008 34.8438 112.598 36.1186 113.681C36.85 114.325 37.6182 114.992 37.2732 115.903" fill="#263238"/>
<path d="M22.475 125.319C22.4106 125.167 19.5586 124.229 19.6092 127.228C19.6552 130.145 22.5808 129.487 22.5808 129.404C22.5808 129.321 22.475 125.319 22.475 125.319Z" fill="#FFBF9D"/>
<path d="M21.6608 128.318C21.6608 128.318 21.6102 128.355 21.5274 128.392C21.4047 128.44 21.2682 128.44 21.1456 128.392C20.9562 128.275 20.8008 128.11 20.6951 127.914C20.5894 127.717 20.5369 127.497 20.543 127.274C20.5337 127.024 20.5776 126.775 20.6718 126.543C20.6987 126.452 20.7469 126.368 20.8125 126.299C20.8781 126.231 20.9592 126.178 21.049 126.147C21.1065 126.13 21.1682 126.135 21.223 126.159C21.2777 126.183 21.322 126.227 21.348 126.281C21.3894 126.363 21.371 126.419 21.3894 126.423C21.4078 126.428 21.4492 126.377 21.4262 126.253C21.4068 126.182 21.3648 126.119 21.3066 126.074C21.2255 126.015 21.1249 125.99 21.026 126.005C20.9068 126.031 20.7963 126.087 20.7046 126.167C20.6129 126.248 20.543 126.35 20.5016 126.465C20.3823 126.719 20.327 126.998 20.3406 127.279C20.3313 127.539 20.3993 127.797 20.536 128.018C20.6727 128.24 20.872 128.417 21.1088 128.525C21.1872 128.545 21.269 128.548 21.3484 128.532C21.4279 128.517 21.5031 128.485 21.5688 128.438C21.6562 128.387 21.6746 128.323 21.6608 128.318Z" fill="#FF9A6C"/>
<path d="M21.2698 123.856C21.3299 123.831 21.387 123.798 21.44 123.76C21.5504 123.686 21.716 123.59 21.9 123.438C22.4612 123.001 22.9746 122.506 23.4318 121.961C24.0932 121.146 24.7075 120.294 25.2718 119.408C25.9521 118.325 26.7214 117.3 27.5718 116.345C28.0299 115.866 28.5389 115.439 29.0898 115.07C29.6067 114.735 30.1629 114.465 30.7458 114.265C31.7329 113.918 32.7775 113.761 33.8232 113.805C34.5284 113.829 35.2274 113.945 35.9024 114.15C36.1416 114.219 36.321 114.293 36.4452 114.334L36.6384 114.399L36.4544 114.311C36.2791 114.232 36.0994 114.163 35.9162 114.104C35.2411 113.874 34.5361 113.742 33.8232 113.713C32.7636 113.664 31.7045 113.82 30.7044 114.173C30.1115 114.376 29.5459 114.651 29.0208 114.992C28.4589 115.362 27.9405 115.794 27.4752 116.28C26.621 117.241 25.8514 118.274 25.1752 119.367C24.6057 120.252 23.9916 121.107 23.3352 121.929C22.9032 122.459 22.4227 122.947 21.9 123.387C21.7068 123.544 21.5412 123.649 21.44 123.732L21.2698 123.856Z" fill="white"/>
<path d="M22.0288 124.68C21.9356 125.462 22.0499 126.255 22.36 126.98C22.751 127.679 23.6894 128.134 24.3702 127.716C24.9268 127.38 25.074 126.649 25.1522 126.005C25.3776 124.142 25.4466 122.26 25.6858 120.397L22.0288 124.68Z" fill="#263238"/>
<path d="M36.5096 114.518C36.5096 114.518 36.252 114.477 35.7828 114.477C35.123 114.485 34.4712 114.622 33.8646 114.882C33.4458 115.059 33.0465 115.28 32.6732 115.54C32.2465 115.843 31.8394 116.174 31.4542 116.529C30.5602 117.33 29.7663 118.237 29.0898 119.229C28.7356 119.758 28.4228 120.301 28.0778 120.807C27.7599 121.299 27.3847 121.751 26.96 122.154C26.2217 122.817 25.4098 123.393 24.5404 123.87C23.809 124.289 23.1926 124.583 22.7694 124.79L22.2772 125.016C22.2204 125.046 22.1601 125.069 22.0978 125.085C22.1489 125.046 22.2045 125.014 22.2634 124.988L22.7234 124.73C23.1374 124.51 23.7446 124.201 24.4668 123.778C25.317 123.29 26.1113 122.71 26.8358 122.049C27.2533 121.652 27.6223 121.207 27.9352 120.724C28.271 120.222 28.5838 119.68 28.9426 119.141C29.6307 118.132 30.4403 117.212 31.353 116.4C31.7471 116.047 32.1618 115.719 32.595 115.415C32.9773 115.153 33.3877 114.934 33.8186 114.762C34.441 114.506 35.1099 114.382 35.7828 114.399C35.9649 114.405 36.1464 114.425 36.3256 114.459C36.389 114.471 36.4508 114.491 36.5096 114.518Z" fill="#455A64"/>
<path d="M21.9 122.863C21.823 122.932 21.738 122.993 21.647 123.042L20.9202 123.502L20.6764 123.649C20.5804 123.711 20.472 123.75 20.359 123.764C20.2908 123.777 20.2205 123.764 20.1612 123.728C20.1291 123.706 20.1022 123.677 20.0823 123.644C20.0625 123.61 20.0501 123.573 20.0462 123.534C20.05 123.4 20.095 123.27 20.175 123.162L20.9938 121.782L21.1134 121.888C20.8355 122.101 20.5248 122.267 20.1934 122.38C19.8583 122.491 19.5065 122.542 19.1538 122.532C19.0635 122.533 18.9736 122.52 18.887 122.495C18.8364 122.482 18.7894 122.458 18.7495 122.425C18.7096 122.391 18.678 122.349 18.657 122.302C18.6394 122.253 18.6336 122.201 18.64 122.15C18.6464 122.099 18.6648 122.05 18.6938 122.007C18.7428 121.941 18.7966 121.878 18.8548 121.819C19.2275 121.438 19.5463 121.007 19.8024 120.54C20.0344 120.095 20.2327 119.634 20.3958 119.16C20.3878 119.293 20.3615 119.425 20.3176 119.551C20.2149 119.904 20.0778 120.246 19.9082 120.572C19.6564 121.064 19.3358 121.518 18.956 121.92C18.8502 122.026 18.7444 122.15 18.7904 122.237C18.8364 122.325 18.9974 122.371 19.1492 122.366C19.4834 122.376 19.8167 122.326 20.1336 122.219C20.4491 122.117 20.7448 121.961 21.0076 121.759L21.348 121.497L21.1272 121.865L20.29 123.245C20.2248 123.328 20.1849 123.429 20.175 123.534C20.175 123.617 20.2532 123.663 20.3452 123.654C20.5314 123.608 20.7076 123.529 20.865 123.419L21.6148 123.01C21.7022 122.947 21.7983 122.898 21.9 122.863Z" fill="white"/>
<path d="M30.7366 130.384C30.7841 130.16 30.9088 129.961 31.0888 129.82C31.2689 129.68 31.4927 129.607 31.721 129.616C31.888 129.632 32.0483 129.689 32.1879 129.782C32.3275 129.875 32.4421 130.001 32.5214 130.149C32.5972 130.299 32.6424 130.462 32.6543 130.63C32.6661 130.797 32.6444 130.965 32.5904 131.124V131.193C32.4408 131.366 32.2415 131.487 32.0199 131.542C31.7983 131.596 31.5653 131.581 31.353 131.497C31.1409 131.407 30.9652 131.248 30.8535 131.046C30.7418 130.845 30.7007 130.612 30.7366 130.384Z" fill="#FF9A6C"/>
<path d="M33.1194 131.193C33.1194 131.083 32.365 131.138 31.7762 130.536C31.1874 129.933 31.2104 129.123 31.1046 129.123C30.9988 129.123 30.9758 129.317 30.9896 129.657C31.0205 130.098 31.2044 130.515 31.5094 130.835C31.8032 131.143 32.206 131.325 32.6318 131.341C32.94 131.345 33.1286 131.244 33.1194 131.193Z" fill="#263238"/>
<path d="M45.1668 145.21L45.084 145.099C41.312 141.111 34.3752 139.777 34.3752 139.777C34.3752 139.777 33.952 142.385 30.065 142.68C26.178 142.974 23.3168 139 23.3168 139L18.1326 139.726C18.1326 139.726 15.5198 140.035 13.8914 140.991C10.2114 143.144 8.28858 150.573 8.28858 150.573L48.3086 150.734L45.1668 145.21Z" fill="#7E57C2"/>
<path d="M48.8284 106.064C48.8284 106.064 48.9204 106.064 49.1044 106.064C49.3819 106.066 49.6588 106.09 49.9324 106.137C51.0009 106.31 52.0095 106.747 52.8672 107.407C54.257 108.48 55.1663 110.059 55.3972 111.8C55.4499 112.327 55.4698 112.857 55.457 113.387C55.457 113.93 55.457 114.495 55.457 115.075C55.457 116.239 55.457 117.476 55.457 118.778C55.457 123.99 55.457 130.301 55.4846 137.491C55.4846 139.288 55.4846 141.142 55.4846 143.052C55.4846 143.512 55.4846 144.004 55.4846 144.497C55.4483 144.989 55.3588 145.477 55.2178 145.95C54.9225 146.916 54.4112 147.801 53.7228 148.54C53.0234 149.305 52.1512 149.892 51.179 150.251L50.811 150.385L50.4292 150.481C50.1749 150.546 49.9168 150.595 49.6564 150.628C49.1319 150.677 48.6051 150.695 48.0786 150.684H41.6386L41.7444 150.573C41.7444 153.793 41.7444 157.257 41.7444 160.794V161.057L41.5512 160.877C39.8584 159.289 38.138 157.65 36.39 155.96C34.6512 154.258 32.8756 152.528 31.1736 150.674L31.261 150.716H7.87918C7.45138 150.716 7.02358 150.716 6.58658 150.688C5.29188 150.58 4.05675 150.097 3.03228 149.298C2.0078 148.499 1.2384 147.419 0.818181 146.189C0.553081 145.386 0.42859 144.542 0.450181 143.696V141.221C0.450181 134.648 0.450181 128.314 0.450181 122.274C0.450181 119.256 0.450181 116.317 0.450181 113.456C0.424777 112.738 0.471006 112.02 0.588181 111.312C0.737283 110.617 0.99168 109.948 1.34258 109.33C2.04189 108.119 3.09936 107.155 4.36938 106.57C4.98469 106.29 5.63946 106.107 6.31058 106.027C6.96519 105.97 7.6226 105.951 8.27938 105.972H19.2734L40.8934 106.008L46.7722 106.031L40.8934 106.054L19.2734 106.091H8.29318C7.64398 106.077 6.99446 106.097 6.34738 106.151C5.35066 106.278 4.39711 106.635 3.56206 107.194C2.72701 107.753 2.03332 108.498 1.53578 109.371C1.19248 109.986 0.945798 110.65 0.804381 111.34C0.689239 112.034 0.646078 112.739 0.675581 113.442C0.675581 116.297 0.675581 119.237 0.675581 122.26C0.675581 128.3 0.675581 134.634 0.675581 141.208V143.682C0.649785 144.502 0.769712 145.32 1.02978 146.097C1.57058 147.68 2.70551 148.989 4.19458 149.75C4.94459 150.137 5.76383 150.371 6.60498 150.44C7.01898 150.467 7.44678 150.472 7.87918 150.467H31.3116L31.3484 150.509C33.0412 152.349 34.8168 154.083 36.551 155.785C38.2852 157.487 40.0148 159.129 41.7076 160.725L41.5144 160.808C41.5144 157.271 41.5144 153.816 41.5144 150.587V150.477H48.0648C48.5821 150.492 49.0998 150.475 49.615 150.426C49.8681 150.397 50.1187 150.35 50.3648 150.283L50.7374 150.191L51.0916 150.063C52.0356 149.716 52.8828 149.148 53.5618 148.407C54.2293 147.691 54.7263 146.834 55.0154 145.9C55.1523 145.439 55.2402 144.966 55.2776 144.487C55.3098 144.027 55.3006 143.531 55.3006 143.057C55.3006 141.149 55.3006 139.296 55.3006 137.495C55.3006 130.306 55.3006 123.994 55.3282 118.783C55.3282 117.481 55.3282 116.243 55.3282 115.08V113.391C55.3443 112.867 55.3274 112.341 55.2776 111.818C55.1021 110.428 54.4858 109.13 53.5189 108.115C52.552 107.1 51.2854 106.421 49.9048 106.179C49.6349 106.125 49.361 106.094 49.086 106.087L48.8284 106.064Z" fill="#263238"/>
<path d="M195.665 17.2008H164.992C163.186 17.2008 161.454 17.918 160.177 19.1946C158.899 20.4712 158.181 22.2028 158.18 24.0088V42.602C158.18 43.4965 158.356 44.3821 158.698 45.2084C159.041 46.0347 159.543 46.7854 160.175 47.4177C160.808 48.0499 161.559 48.5513 162.385 48.8931C163.212 49.235 164.098 49.4106 164.992 49.41H174.473L179.786 57.0138C179.954 57.253 180.179 57.4473 180.44 57.5798C180.701 57.7123 180.99 57.7789 181.283 57.774C181.575 57.769 181.862 57.6925 182.118 57.5512C182.375 57.4099 182.592 57.208 182.753 56.9632L187.666 49.41H195.665C196.559 49.4106 197.445 49.235 198.271 48.893C199.097 48.5511 199.848 48.0497 200.48 47.4174C201.113 46.7851 201.614 46.0343 201.956 45.2081C202.298 44.3818 202.474 43.4963 202.473 42.602V24.0088C202.473 23.1148 202.297 22.2295 201.955 21.4035C201.613 20.5775 201.111 19.827 200.479 19.1949C199.847 18.5627 199.096 18.0612 198.27 17.7191C197.444 17.3769 196.559 17.2008 195.665 17.2008Z" fill="white"/>
<path d="M195.665 17.2008H195.895C196.121 17.2023 196.347 17.2177 196.571 17.2468C197.448 17.3478 198.295 17.6281 199.06 18.0702C200.07 18.6428 200.918 19.4629 201.524 20.4536C202.13 21.4442 202.474 22.5727 202.524 23.7328C202.551 24.685 202.524 25.6878 202.524 26.7458C202.524 30.987 202.524 36.1022 202.551 41.9258C202.579 42.6707 202.521 43.4163 202.376 44.1476C202.208 44.9012 201.91 45.6201 201.498 46.2728C200.637 47.643 199.326 48.6708 197.79 49.18C196.997 49.426 196.169 49.5425 195.338 49.525H187.666L187.758 49.4744L183.498 56.0294C183.245 56.4066 183.038 56.7792 182.748 57.161C182.447 57.5468 182.009 57.8021 181.525 57.874C181.038 57.9401 180.545 57.8183 180.145 57.5336C179.948 57.3895 179.778 57.212 179.643 57.0092L179.248 56.4388L177.647 54.1388L174.376 49.4698L174.477 49.5204H165.42C164.775 49.5381 164.13 49.4841 163.497 49.3594C162.869 49.2153 162.261 48.9911 161.689 48.6924C160.575 48.0862 159.647 47.1868 159.006 46.0915C158.366 44.9962 158.037 43.7466 158.055 42.4778C158.055 37.5972 158.055 32.8914 158.055 28.4064C158.055 27.284 158.055 26.18 158.055 25.0852C158.055 24.5378 158.055 23.9996 158.083 23.4522C158.106 23.1806 158.142 22.9104 158.193 22.6426C158.258 22.3758 158.318 22.1136 158.4 21.856C158.74 20.8462 159.301 19.9251 160.043 19.1604C160.778 18.4156 161.673 17.8477 162.66 17.4998C162.896 17.4118 163.137 17.3396 163.382 17.2836C163.624 17.2214 163.87 17.1768 164.118 17.1502C164.605 17.097 165.096 17.0754 165.586 17.0858H173.7L189.763 17.1272H195.265H195.651C195.651 17.1272 195.522 17.1272 195.265 17.1272H189.763L173.7 17.2836H165.549C165.068 17.2729 164.587 17.2944 164.109 17.348C163.867 17.3742 163.627 17.4188 163.391 17.4814C163.154 17.5365 162.92 17.6071 162.692 17.693C161.75 18.035 160.897 18.5835 160.194 19.2984C159.474 20.0398 158.932 20.9347 158.607 21.9158C158.525 22.1642 158.469 22.4218 158.405 22.6794C158.341 22.937 158.308 23.1992 158.299 23.4614C158.262 23.9904 158.276 24.5378 158.276 25.0806V28.4018C158.276 32.8868 158.276 37.6018 158.276 42.4732C158.26 43.699 158.578 44.9061 159.198 45.964C159.817 47.022 160.714 47.8906 161.791 48.4762C162.341 48.7665 162.927 48.983 163.534 49.1202C164.15 49.2444 164.778 49.2968 165.406 49.2766H174.51L174.546 49.3272L177.812 53.9962L179.413 56.2962L179.809 56.862C179.933 57.0419 180.089 57.1977 180.269 57.322C180.619 57.5785 181.055 57.6883 181.484 57.6282C181.914 57.568 182.303 57.3427 182.569 57C182.817 56.6504 183.061 56.2548 183.305 55.8868C183.799 55.1386 184.283 54.3949 184.758 53.6558L187.578 49.3318L187.61 49.2812H195.361C196.17 49.3043 196.976 49.1939 197.749 48.9546C199.242 48.4663 200.516 47.4702 201.351 46.1394C201.755 45.5078 202.046 44.8104 202.211 44.0786C202.356 43.3615 202.415 42.6294 202.386 41.8982C202.386 36.0792 202.386 30.964 202.413 26.7182C202.413 25.6602 202.413 24.6528 202.413 23.7098C202.375 22.8343 202.166 21.9747 201.797 21.1798C201.215 19.9004 200.251 18.8332 199.037 18.1254C198.282 17.6791 197.445 17.3897 196.576 17.2744C196.353 17.2413 196.129 17.2198 195.904 17.21L195.665 17.2008Z" fill="#263238"/>
<path d="M181.203 27.0954V39.8006L190.297 33.448L181.203 27.0954Z" fill="#7E57C2"/>
<path d="M169.031 40.8034C169.031 40.8034 169.634 31.7782 176.851 31.6402H181.451V35.5226L176.902 35.587C176.902 35.587 172.159 35.4766 169.031 40.8034Z" fill="#7E57C2"/>
<path d="M14.1904 61.9864H77.4726C81.0318 61.9864 83.9172 59.1011 83.9172 55.5418V6.58865C83.9172 3.0294 81.0318 0.144047 77.4726 0.144047H14.1904C10.6311 0.144047 7.74579 3.0294 7.74579 6.58865V55.5418C7.74579 59.1011 10.6311 61.9864 14.1904 61.9864Z" fill="white"/>
<path d="M42.7702 60.0958C41.9882 61.9864 26.8818 76.1958 26.8818 76.1958V60.0958H42.7702Z" fill="#455A64"/>
<path d="M61.2484 27.284C61.2852 24.064 61.7958 20.844 61.6716 17.624C61.5474 14.404 60.6964 11.0414 58.4516 8.73224C56.2068 6.42304 52.2968 5.51224 49.6656 7.40284L49.1274 10.1628C50.1639 22.6043 51.2004 35.0442 52.237 47.4826C52.3704 49.1156 52.5176 50.7992 53.2628 52.2574C54.008 53.7156 55.4984 54.9254 57.136 54.8242C59.275 54.6954 60.6826 52.5243 61.345 50.4865C63.76 43.0667 61.1518 35.0626 61.2484 27.284Z" fill="#263238"/>
<path d="M53.4882 10.5584C53.0584 9.73895 52.5061 8.98975 51.8506 8.33664C51.5184 8.0132 51.1177 7.76874 50.6781 7.62142C50.2385 7.47409 49.7714 7.42769 49.3114 7.48564C49.0947 7.51251 48.8885 7.59421 48.7122 7.72299C48.536 7.85178 48.3954 8.02341 48.304 8.22164C48.1614 8.63564 48.465 9.18304 48.902 9.14164L48.994 9.21984C49.96 10.0754 50.9398 10.9126 51.9426 11.7268C52.1798 11.9486 52.4579 12.122 52.7614 12.2374C52.9172 12.2962 53.0866 12.3093 53.2496 12.2751C53.4126 12.2408 53.5624 12.1608 53.6814 12.0442C54.0218 11.6486 53.7596 11.023 53.4882 10.5584Z" fill="#7E57C2"/>
<path d="M55.3098 13.7278C52.0898 9.79484 47.7796 7.53624 42.7012 7.44884C39.84 7.40284 38.6532 7.99624 36.5924 8.55284C34.5245 9.05434 32.699 10.2675 31.4358 11.9798C29.9776 14.0544 28.7494 16.3774 28.4734 18.9028C28.1974 21.4282 27.903 24.0824 28.1008 26.6998C28.2986 29.3172 29.0208 31.9162 30.5296 34.0276L37.1444 35.173C40.7968 35.2972 44.5044 35.4168 48.0556 34.5842C51.6068 33.7516 55.0752 31.8242 56.9796 28.7192C59.62 24.3676 58.5252 17.6562 55.3098 13.7278Z" fill="#263238"/>
<path d="M37.1168 46.8938C37.1628 44.5938 37.241 41.6636 37.241 41.6774C37.241 41.6912 31.8498 41.084 30.341 34.1702C29.6004 30.734 29.4624 25.0392 29.4992 20.3702C29.5314 16.175 33.1056 10.4572 38.2898 10.4388L40.5898 10.172L49.4034 13.6772C50.0179 13.7091 50.5982 13.9699 51.0299 14.4084C51.4616 14.847 51.7134 15.4313 51.7356 16.0462L52.0668 46.4384L46.418 55.873L36.298 48.053L37.1168 46.8938Z" fill="#B56760"/>
<path d="M40.7232 32.5556C40.6746 32.1968 40.4942 31.8688 40.2172 31.6356C39.9648 31.4179 39.6473 31.2898 39.3144 31.2715C38.9815 31.2532 38.652 31.3457 38.3772 31.5344C38.0929 31.7528 37.8722 32.0433 37.7379 32.3757C37.6036 32.7082 37.5607 33.0704 37.6136 33.425C37.7657 33.6374 37.9613 33.8148 38.1873 33.9457C38.4134 34.0766 38.6647 34.1578 38.9246 34.184H39.1684C39.5824 34.1747 39.978 34.0106 40.277 33.724C40.4331 33.5744 40.5541 33.392 40.6312 33.1899C40.7084 32.9879 40.7398 32.7713 40.7232 32.5556Z" fill="#8A4A43"/>
<path d="M32.3006 25.7798C32.3102 26.0145 32.4124 26.2359 32.5848 26.3954C32.7572 26.5549 32.9858 26.6396 33.2206 26.6308C33.3337 26.6327 33.4461 26.612 33.5512 26.5701C33.6563 26.5283 33.752 26.4659 33.8329 26.3868C33.9137 26.3076 33.9781 26.2133 34.0222 26.1091C34.0664 26.0049 34.0894 25.893 34.09 25.7798C34.0737 25.5472 33.9696 25.3294 33.7988 25.1706C33.628 25.0117 33.4032 24.9237 33.17 24.9242C33.0565 24.9224 32.9437 24.9432 32.8383 24.9854C32.7329 25.0275 32.637 25.0903 32.556 25.1699C32.4751 25.2495 32.4109 25.3445 32.367 25.4492C32.3231 25.5539 32.3006 25.6663 32.3006 25.7798Z" fill="#263238"/>
<path d="M31.1 22.707C31.2196 22.8174 31.8682 22.2792 32.8296 22.247C33.791 22.2148 34.527 22.638 34.6236 22.5184C34.7202 22.3988 34.5454 22.2562 34.228 22.0584C33.7954 21.7918 33.2906 21.6664 32.7836 21.6996C32.2795 21.7233 31.7961 21.907 31.4036 22.224C31.1276 22.4402 31.0402 22.6564 31.1 22.707Z" fill="#263238"/>
<path d="M37.2824 30.2556C36.7656 30.1221 36.2337 30.0556 35.7 30.0578C35.4516 30.0578 35.217 30.0072 35.1664 29.8462C35.1298 29.5925 35.1732 29.3336 35.2906 29.1056L35.9116 27.1966C36.7764 24.478 37.3882 22.247 37.2916 22.2148C37.195 22.1826 36.3716 24.3538 35.5298 27.077L34.9272 28.9998C34.7884 29.3044 34.7623 29.6484 34.8536 29.9704C34.8931 30.0555 34.952 30.1301 35.0254 30.1884C35.0989 30.2467 35.185 30.2871 35.2768 30.3062C35.414 30.3373 35.5548 30.3497 35.6954 30.343C36.2259 30.381 36.7592 30.3516 37.2824 30.2556Z" fill="#263238"/>
<path d="M37.241 41.6774C40.5262 41.545 43.7105 40.5053 46.441 38.6736C46.441 38.6736 44.2192 43.6416 37.2042 43.3748L37.241 41.6774Z" fill="#8A4A43"/>
<path d="M40.1482 30.7616C39.9918 30.7616 40.047 31.8058 39.196 32.6016C38.345 33.3974 37.2226 33.3376 37.2226 33.4848C37.2226 33.5538 37.4802 33.6734 37.954 33.6642C38.5654 33.6358 39.1477 33.395 39.6008 32.9834C40.0327 32.5855 40.296 32.0375 40.3368 31.4516C40.3506 31.0054 40.2218 30.7524 40.1482 30.7616Z" fill="#263238"/>
<path d="M31.4266 19.3398C31.6014 19.5652 32.3466 19.3674 33.193 19.3904C34.0394 19.4134 34.7846 19.602 34.9594 19.3904C35.0376 19.28 34.9318 19.0592 34.6236 18.8384C34.1966 18.5732 33.7053 18.4296 33.2027 18.4231C32.7001 18.4166 32.2052 18.5475 31.7716 18.8016C31.4588 19.0086 31.3484 19.2294 31.4266 19.3398Z" fill="#263238"/>
<path d="M43.2486 25.5314C43.2561 25.7651 43.1717 25.9924 43.0134 26.1644C42.8551 26.3365 42.6356 26.4395 42.4022 26.4514C42.2898 26.4602 42.1767 26.4467 42.0695 26.4116C41.9623 26.3766 41.8632 26.3207 41.7777 26.2471C41.6922 26.1736 41.622 26.0839 41.5713 25.9832C41.5206 25.8825 41.4903 25.7727 41.4822 25.6602C41.4746 25.4266 41.5591 25.1993 41.7174 25.0273C41.8756 24.8552 42.0951 24.7522 42.3286 24.7402C42.441 24.7315 42.5541 24.745 42.6612 24.7801C42.7684 24.8151 42.8676 24.871 42.9531 24.9445C43.0386 25.0181 43.1087 25.1078 43.1594 25.2085C43.2101 25.3092 43.2404 25.419 43.2486 25.5314Z" fill="#263238"/>
<path d="M44.118 22.3344C44.0076 22.454 43.3222 21.9618 42.3608 21.9848C41.3994 22.0078 40.7002 22.4954 40.5898 22.3804C40.4794 22.2654 40.6496 22.1182 40.9532 21.8882C41.3653 21.5931 41.8585 21.4325 42.3654 21.4282C42.8664 21.4201 43.3572 21.5698 43.7684 21.856C44.0674 22.0722 44.1732 22.2838 44.118 22.3344Z" fill="#263238"/>
<path d="M43.52 19.2524C43.336 19.4732 42.6 19.2524 41.68 19.2524C40.76 19.2524 40.0332 19.4272 39.84 19.2018C39.7618 19.0914 39.8768 18.8706 40.2034 18.659C40.6521 18.4012 41.1616 18.2678 41.6791 18.2726C42.1967 18.2775 42.7035 18.4204 43.1474 18.6866C43.52 18.9212 43.6212 19.142 43.52 19.2524Z" fill="#263238"/>
<path d="M50.5626 27.767C50.535 27.2472 51.064 25.9868 51.5746 25.881C52.9546 25.5912 55.4064 25.5682 55.618 29.0412C55.9124 33.793 51.0824 33.1076 51.064 32.9742C51.0456 32.8408 50.6546 29.5564 50.5626 27.767Z" fill="#B56760"/>
<path d="M52.26 31.1572C52.26 31.1572 52.3474 31.2078 52.49 31.263C52.6893 31.3427 52.9116 31.3427 53.111 31.263C53.5986 31.0468 53.9712 30.2234 53.9436 29.3678C53.9356 28.9512 53.8317 28.5419 53.64 28.1718C53.5865 28.0258 53.4982 27.8951 53.3828 27.7909C53.2673 27.6867 53.1283 27.6122 52.9776 27.5738C52.8831 27.5584 52.7861 27.5755 52.7026 27.6223C52.619 27.6691 52.5538 27.7428 52.5176 27.8314C52.4624 27.9694 52.5176 28.0614 52.4716 28.0706C52.4256 28.0798 52.3658 27.997 52.3934 27.7992C52.4109 27.6803 52.4695 27.5713 52.559 27.491C52.6867 27.3825 52.8517 27.3281 53.019 27.3392C53.218 27.3656 53.4071 27.4424 53.5681 27.5623C53.7291 27.6823 53.8568 27.8414 53.939 28.0246C54.1685 28.4227 54.295 28.8717 54.307 29.331C54.3346 30.2924 53.9022 31.217 53.226 31.4562C53.1012 31.5025 52.9675 31.5195 52.8351 31.506C52.7027 31.4924 52.5752 31.4487 52.4624 31.378C52.283 31.2722 52.26 31.1664 52.26 31.1572Z" fill="#8A4A43"/>
<path d="M51.7678 25.8948L50.5626 27.1598C45.36 22.155 35.1572 9.67984 35.7276 10.4066C38.103 9.51712 40.6639 9.23873 43.175 9.59704C47.0528 10.2594 54.4036 12.196 54.2932 16.7684C54.1828 21.3408 51.7678 25.8948 51.7678 25.8948Z" fill="#263238"/>
<path d="M58.6724 24.8598C58.6588 24.7653 58.6341 24.6726 58.5988 24.5838C58.5139 24.3249 58.4061 24.0739 58.2768 23.834C57.7858 22.9525 57.1075 22.1894 56.2896 21.5984C55.0772 20.7332 53.725 20.0827 52.2922 19.6756C50.7006 19.1604 48.9112 18.7556 47.154 18.0012C45.4931 17.3083 43.9173 16.427 42.4574 15.3746C41.2676 14.5113 40.159 13.5413 39.1454 12.4766C38.4626 11.7553 37.8221 10.995 37.2272 10.1996L36.7672 9.54644C36.7148 9.46834 36.6564 9.39451 36.5924 9.32564C36.6242 9.41463 36.6692 9.49836 36.7258 9.57404C36.827 9.73044 36.9696 9.96504 37.1858 10.2548C37.7531 11.0763 38.3772 11.8572 39.0534 12.5916C40.0582 13.683 41.1657 14.6751 42.3608 15.554C43.8269 16.6297 45.4158 17.5269 47.0942 18.2266C48.7864 18.87 50.5106 19.4258 52.26 19.8918C53.6748 20.2804 55.015 20.9023 56.2252 21.7318C57.034 22.3008 57.7168 23.0306 58.2308 23.8754C58.5436 24.4734 58.6494 24.8598 58.6724 24.8598Z" fill="#455A64"/>
<path d="M57.2878 25.5912C57.3026 25.237 57.2398 24.8837 57.1038 24.5562C56.7483 23.6467 56.1261 22.8658 55.319 22.316C54.33 21.5754 52.9132 21.12 51.3538 20.7612C49.6585 20.425 48.006 19.9004 46.4272 19.1972C44.8555 18.4809 43.3797 17.5707 42.0342 16.4878C40.9349 15.6018 39.9257 14.6095 39.0212 13.5254C38.4149 12.7939 37.8542 12.0258 37.3422 11.2254L36.942 10.5538C36.8994 10.4725 36.8468 10.3968 36.7856 10.3284C36.8114 10.4157 36.8485 10.4992 36.896 10.5768L37.264 11.2668C37.7457 12.0957 38.2885 12.8876 38.8878 13.6358C39.7839 14.744 40.7903 15.7581 41.8916 16.6626C43.2472 17.7662 44.7372 18.6936 46.326 19.4226C47.9201 20.1306 49.5901 20.6538 51.3032 20.982C52.858 21.3224 54.2472 21.7548 55.2224 22.4586C56.0128 22.9813 56.6356 23.7208 57.0164 24.5884C57.1371 24.9138 57.2279 25.2494 57.2878 25.5912Z" fill="#455A64"/>
<path d="M51.6114 33.9402C51.6114 33.908 52.0162 33.8528 52.72 33.6688C53.7072 33.381 54.6163 32.873 55.3788 32.183C56.4919 31.1395 57.339 29.8445 57.849 28.4064C58.4961 26.649 58.8444 24.7957 58.8794 22.9232C58.8995 21.9566 58.8225 20.9903 58.6494 20.039C58.4689 19.1585 58.2039 18.2974 57.8582 17.4676C57.2585 16.06 56.4266 14.7632 55.3972 13.6312C54.4242 12.6126 53.3568 11.6885 52.2094 10.8712C52.3027 10.9031 52.3909 10.948 52.4716 11.0046C52.6372 11.1104 52.8902 11.2484 53.1892 11.4646C54.0523 12.057 54.8483 12.7419 55.5628 13.507C56.6333 14.6393 57.5002 15.9481 58.125 17.3756C58.4869 18.2229 58.7628 19.1044 58.9484 20.0068C59.133 20.9769 59.2147 21.9637 59.1922 22.9508C59.1589 24.859 58.7947 26.747 58.1158 28.5306C57.5785 30.0054 56.6877 31.3259 55.5214 32.3762C54.73 33.0693 53.7833 33.5616 52.7614 33.8114C52.4846 33.8775 52.2032 33.9221 51.9196 33.9448C51.8171 33.9579 51.7134 33.9563 51.6114 33.9402Z" fill="#455A64"/>
<path d="M21.9644 54.5206L22.084 54.3688C27.3188 48.8488 36.9558 46.9766 36.9558 46.9766C36.9558 46.9766 37.5446 50.6014 42.9358 51.0062C48.327 51.411 52.306 45.9094 52.306 45.9094L59.5142 46.9214C59.5142 46.9214 63.139 47.3492 65.3976 48.674C70.4852 51.6686 73.1854 61.9864 73.1854 61.9864L17.6082 62.2118L21.9644 54.5206Z" fill="#455A64"/>
<path d="M16.8814 0.144043L16.495 0.171644L16.035 0.199242C15.8464 0.199242 15.6256 0.263643 15.3772 0.300443C13.8972 0.547933 12.5025 1.16146 11.32 2.08524C9.41636 3.56826 8.17757 5.74483 7.87458 8.13884C7.80532 8.86498 7.78074 9.59469 7.80098 10.3238C7.80098 11.0828 7.80098 11.8648 7.80098 12.6744C7.80098 14.289 7.80098 16.0048 7.80098 17.8126C7.80098 25.0576 7.80098 33.8206 7.82858 43.8118C7.82858 46.3112 7.82858 48.8856 7.82858 51.5352C7.82858 52.193 7.82858 52.8646 7.86538 53.5224C7.91627 54.1894 8.03652 54.8492 8.22418 55.4912C8.6285 56.7982 9.32362 57.9966 10.2574 58.9964C10.7288 59.5037 11.2549 59.9572 11.826 60.3488C12.4116 60.7367 13.0398 61.0562 13.6982 61.301L14.195 61.485L14.7102 61.6138C15.0551 61.7027 15.4054 61.7688 15.759 61.8116C16.1132 61.8668 16.472 61.8576 16.8308 61.8806H26.9876V61.991C26.9876 66.476 26.9876 71.2692 26.9876 76.1866L26.799 76.1038C29.1481 73.8866 31.5354 71.5989 33.9612 69.2406C36.3716 66.8762 38.8372 64.475 41.1878 61.9082L41.2246 61.8714H73.7604C74.3584 61.8714 74.9518 61.8714 75.5314 61.83C77.2752 61.6851 78.939 61.0348 80.319 59.9588C81.6989 58.8828 82.7351 57.4278 83.3008 55.7718C83.6593 54.685 83.8259 53.544 83.793 52.4V48.9638C83.793 39.8374 83.793 31.0238 83.793 22.6472C83.793 18.4582 83.793 14.3734 83.793 10.3928C83.8316 9.41392 83.77 8.43361 83.609 7.46724C83.4164 6.53001 83.083 5.62737 82.62 4.79004C81.6771 3.15218 80.2479 1.84835 78.5306 1.05944C77.6986 0.678403 76.8125 0.428574 75.904 0.318843C75.003 0.242171 74.0985 0.216063 73.1946 0.240643H57.9456L27.88 0.190042L57.918 0.153243H73.167C74.0785 0.129138 74.9907 0.155243 75.8994 0.231442C76.8288 0.340792 77.7353 0.595357 78.5858 0.985842C80.3402 1.79214 81.8011 3.12292 82.7672 4.79464C83.2552 5.6559 83.6089 6.58662 83.816 7.55464C83.976 8.53505 84.0376 9.52898 84 10.5216C84 14.5083 84 18.5931 84 22.776C84 31.1618 84 39.9662 84 49.0926V52.5288C84.0341 53.6996 83.8628 54.8672 83.494 55.9788C82.9141 57.6785 81.8511 59.1721 80.4351 60.2767C79.0192 61.3814 77.3119 62.0491 75.5222 62.198C74.9196 62.2394 74.3262 62.2394 73.7328 62.2348H41.2798L41.3672 62.198C39.0074 64.7694 36.5418 67.1706 34.1268 69.558C31.7118 71.9454 29.3106 74.0522 26.96 76.2694L26.7668 76.4534V76.1866C26.7668 71.2692 26.7668 66.476 26.7668 61.991L26.8772 62.0968H16.84C16.472 62.0692 16.104 62.0968 15.7452 62.0232C15.3839 61.9793 15.0258 61.9117 14.6734 61.8208L14.1444 61.6874L13.62 61.4942C12.9487 61.2426 12.3083 60.9154 11.711 60.519C11.1263 60.1182 10.5865 59.6555 10.101 59.139C9.15191 58.1142 8.44458 56.8898 8.03098 55.5556C7.8408 54.8997 7.7175 54.2262 7.66298 53.5454C7.63998 52.86 7.63998 52.1976 7.63998 51.5398C7.63998 48.8902 7.63998 46.3158 7.63998 43.8164C7.63998 33.8252 7.63998 25.0622 7.66758 17.8172C7.66758 16.0094 7.66758 14.2936 7.66758 12.679C7.66758 11.8694 7.66758 11.0874 7.66758 10.3284C7.65065 9.59451 7.6783 8.86022 7.75038 8.12964C8.06574 5.71403 9.3263 3.5221 11.2556 2.03464C12.4432 1.11417 13.8431 0.506779 15.3266 0.268243C15.575 0.236043 15.7866 0.194642 15.989 0.180842L16.449 0.157842L16.8814 0.144043Z" fill="#263238"/>
<path d="M134.14 197.401L76.7504 197.36C69.8504 197.36 64.2568 192.024 64.2568 185.446L64.2844 48.3198C64.2844 41.7372 69.8872 36.4012 76.7964 36.4058L134.191 36.438C141.091 36.438 146.684 41.774 146.684 48.352L146.657 185.473C146.652 192.074 141.04 197.406 134.14 197.401Z" fill="#263238"/>
<path d="M134.14 41.3048H122.999C122.645 41.3042 122.294 41.3734 121.967 41.5083C121.64 41.6432 121.342 41.8412 121.091 42.0911C120.841 42.341 120.642 42.6378 120.506 42.9646C120.369 43.2914 120.299 43.6419 120.299 43.9958V45.9186C120.298 46.273 120.228 46.6238 120.091 46.9509C119.955 47.278 119.755 47.5751 119.504 47.825C119.253 48.075 118.955 48.2729 118.627 48.4075C118.299 48.5422 117.948 48.6109 117.594 48.6096H95.9048C95.5508 48.6103 95.2001 48.5411 94.8729 48.4062C94.5456 48.2713 94.2481 48.0733 93.9974 47.8234C93.7466 47.5735 93.5475 47.2767 93.4115 46.9499C93.2755 46.623 93.2052 46.2726 93.2046 45.9186V43.9912C93.204 43.6369 93.1335 43.2861 92.9972 42.959C92.8609 42.6319 92.6614 42.3348 92.4102 42.0849C92.159 41.8349 91.8609 41.637 91.5331 41.5024C91.2053 41.3677 90.8542 41.299 90.4998 41.3002H76.847C72.0124 41.3002 68.107 45.0355 68.107 49.6447L68.0794 183.505C68.0794 188.105 71.994 191.849 76.8194 191.849L134.099 191.881C138.938 191.881 142.839 188.151 142.862 183.541L142.889 49.6814C142.88 45.0447 138.961 41.3094 134.14 41.3048Z" fill="white"/>
<path d="M103.564 74.6686C104.374 74.6107 105.133 74.2532 105.693 73.6659C106.254 73.0785 106.576 72.3035 106.596 71.4919C106.616 70.6802 106.333 69.8902 105.802 69.2758C105.271 68.6615 104.531 68.2668 103.725 68.1688C104.117 67.5734 104.312 66.8696 104.281 66.1573C104.251 65.445 103.997 64.7604 103.556 64.2004C103.114 63.6405 102.508 63.2337 101.822 63.0378C101.137 62.8419 100.407 62.8667 99.7366 63.1088C99.5758 62.4247 99.2405 61.794 98.7633 61.2781C98.2862 60.7621 97.6835 60.3787 97.014 60.1651C96.3445 59.9515 95.631 59.9151 94.9433 60.0593C94.2555 60.2036 93.6168 60.5236 93.0896 60.9882C92.1899 60.5086 91.1565 60.3414 90.1515 60.5129C89.1465 60.6844 88.227 61.185 87.5374 61.9358C86.8352 61.9338 86.1512 62.1591 85.5877 62.5781C85.0241 62.997 84.6113 63.5871 84.411 64.2601C84.2106 64.9331 84.2335 65.6529 84.4762 66.3118C84.7188 66.9708 85.1682 67.5335 85.7572 67.9158" fill="#263238"/>
<path d="M104.116 75.0275C103.19 71.6659 101.032 68.7765 98.0711 66.935C95.1103 65.0936 91.5644 64.4353 88.14 65.0915L87.4362 65.2248C79.9198 67.12 77.3162 74.5583 79.423 82.024L84.6854 109.118L100.174 121.078L104.18 111.101L102.602 102.085C102.602 102.085 109.696 99.5546 108.394 92.2314C107.782 88.6848 105.896 81.5042 104.116 75.0275Z" fill="#C17560"/>
<path d="M102.681 102.052C99.283 102.702 95.7705 102.362 92.5606 101.073C92.5606 101.073 95.73 106.064 102.897 104.017L102.681 102.052Z" fill="#7C4236"/>
<path d="M103.463 82.0378C103.518 82.3096 103.464 82.592 103.314 82.8249C103.163 83.0578 102.928 83.2227 102.658 83.2844C102.527 83.3203 102.39 83.3297 102.256 83.312C102.121 83.2942 101.992 83.2497 101.875 83.1812C101.758 83.1126 101.655 83.0212 101.574 82.9126C101.493 82.8039 101.434 82.6801 101.402 82.5484C101.347 82.2767 101.4 81.9943 101.551 81.7614C101.701 81.5285 101.936 81.3635 102.207 81.3018C102.338 81.2659 102.474 81.2566 102.609 81.2743C102.743 81.2921 102.873 81.3366 102.99 81.4051C103.107 81.4737 103.209 81.565 103.29 81.6737C103.371 81.7824 103.43 81.9062 103.463 82.0378Z" fill="#263238"/>
<path d="M103.223 78.9053C103.122 79.0617 102.221 78.6292 101.098 78.8455C99.9758 79.0617 99.2582 79.7654 99.111 79.6688C99.0374 79.6182 99.111 79.3468 99.433 79.0156C99.8554 78.5868 100.4 78.2992 100.992 78.1923C101.576 78.0766 102.181 78.1525 102.717 78.4085C103.113 78.6063 103.279 78.8316 103.223 78.9053Z" fill="#263238"/>
<path d="M93.2782 84.1999C93.3317 84.4715 93.277 84.7534 93.1258 84.9854C92.9746 85.2174 92.7388 85.3811 92.4686 85.4418C92.3381 85.4777 92.2017 85.487 92.0675 85.4692C91.9333 85.4514 91.8041 85.4069 91.6874 85.3383C91.5708 85.2696 91.4691 85.1783 91.3883 85.0697C91.3076 84.9611 91.2495 84.8373 91.2174 84.7058C91.1625 84.4347 91.2161 84.1528 91.3666 83.9207C91.517 83.6885 91.7525 83.5245 92.0224 83.4638C92.1532 83.4279 92.2899 83.4186 92.4243 83.4363C92.5588 83.4541 92.6884 83.4986 92.8054 83.5671C92.9224 83.6357 93.0246 83.7271 93.1058 83.8357C93.187 83.9444 93.2456 84.0682 93.2782 84.1999Z" fill="#263238"/>
<path d="M92.2248 81.2144C92.1236 81.3754 91.222 80.9384 90.0996 81.1546C88.9772 81.3708 88.2596 82.0746 88.1124 81.978C88.0434 81.9274 88.1124 81.656 88.4344 81.3294C88.8551 80.9084 89.3943 80.6259 89.98 80.5198C90.5634 80.4075 91.1674 80.4832 91.705 80.736C92.1144 80.9154 92.28 81.1408 92.2248 81.2144Z" fill="#263238"/>
<path d="M97.8874 88.7676C97.8874 88.7032 98.5452 88.4502 99.6492 88.0868C99.9298 88.004 100.192 87.8982 100.201 87.6912C100.168 87.3902 100.045 87.1063 99.847 86.877L98.5866 84.8576C96.8156 81.9734 95.477 79.5768 95.592 79.5078C95.707 79.4388 97.2388 81.7204 99.0098 84.6046L100.238 86.6424C100.484 86.9552 100.612 87.3442 100.601 87.7418C100.579 87.8509 100.532 87.9534 100.464 88.0418C100.396 88.1302 100.31 88.2022 100.21 88.2524C100.064 88.3229 99.9094 88.3754 99.7504 88.4088C98.6096 88.6894 97.9058 88.8274 97.8874 88.7676Z" fill="#263238"/>
<path d="M91.82 77.3274C91.728 77.6402 90.7068 77.516 89.52 77.7C88.3332 77.884 87.3672 78.275 87.22 77.999C87.1464 77.8656 87.3074 77.5712 87.68 77.263C88.1774 76.8814 88.7655 76.6357 89.3866 76.55C89.9976 76.4552 90.6228 76.5234 91.199 76.7478C91.6544 76.941 91.8798 77.1802 91.82 77.3274Z" fill="#263238"/>
<path d="M102.602 74.9032C102.414 75.2022 101.439 75.1148 100.302 75.3126C99.1662 75.5104 98.2784 75.8784 98.0024 75.653C97.8828 75.538 97.9794 75.2574 98.3474 74.9354C98.8588 74.5263 99.4702 74.2612 100.118 74.1672C100.759 74.047 101.421 74.1043 102.032 74.3328C102.506 74.5398 102.685 74.756 102.602 74.9032Z" fill="#263238"/>
<path d="M81.9714 88.9102C81.9115 88.6435 81.798 88.3918 81.6379 88.1702C81.4779 87.9486 81.2745 87.7618 81.0401 87.6212C80.8056 87.4806 80.5451 87.389 80.2743 87.352C80.0034 87.315 79.7279 87.3334 79.4644 87.406C78.1258 87.797 76.755 88.8596 77.3852 91.6564C78.4938 96.6199 83.2502 94.4808 83.2272 94.3382C83.2042 94.1956 82.4544 90.9848 81.9714 88.9102Z" fill="#C17560"/>
<path d="M81.7276 92.7098C81.7046 92.7098 81.654 92.7926 81.5252 92.8892C81.3398 93.0251 81.1086 93.0829 80.8812 93.0502C80.3108 92.972 79.6852 92.2406 79.4598 91.3528C79.3509 90.93 79.3399 90.488 79.4276 90.0602C79.4387 89.8946 79.4902 89.7342 79.5776 89.5931C79.665 89.452 79.7856 89.3344 79.929 89.2506C80.0222 89.204 80.1286 89.1905 80.2305 89.2122C80.3325 89.2339 80.424 89.2897 80.4902 89.3702C80.5868 89.4944 80.5776 89.6002 80.6098 89.6048C80.642 89.6094 80.6972 89.499 80.6098 89.3012C80.5537 89.1846 80.4596 89.0905 80.343 89.0344C80.2628 89.001 80.1768 88.9838 80.09 88.9838C80.0031 88.9838 79.9171 89.001 79.837 89.0344C79.6421 89.12 79.4725 89.2542 79.3444 89.4242C79.2164 89.5941 79.1341 89.7942 79.1056 90.005C78.9906 90.4812 78.9906 90.9779 79.1056 91.454C79.3632 92.4476 80.0854 93.294 80.849 93.317C80.9912 93.3261 81.1337 93.3031 81.2658 93.2498C81.398 93.1964 81.5165 93.1141 81.6126 93.0088C81.746 92.834 81.746 92.719 81.7276 92.7098Z" fill="#7C4236"/>
<path d="M97.984 65.4272C97.9148 65.3113 97.833 65.2033 97.7402 65.1052C97.3849 64.7446 96.9505 64.4717 96.4715 64.308C95.9924 64.1443 95.4818 64.0944 94.9802 64.1622C94.3614 63.9786 93.7293 63.8433 93.0896 63.7574C92.6037 63.1816 91.9789 62.7394 91.2744 62.4726C90.5698 62.2058 89.8088 62.1234 89.0634 62.233C88.3181 62.3427 87.613 62.6408 87.0151 63.0991C86.4172 63.5575 85.9462 64.1609 85.6468 64.8522C85.4444 64.9212 85.2466 64.9948 85.0488 65.073C84.4256 64.7742 83.7421 64.6223 83.051 64.629C82.3599 64.6358 81.6796 64.8011 81.0624 65.1121C80.4452 65.4232 79.9076 65.8717 79.491 66.4231C79.0744 66.9746 78.7899 67.6143 78.6594 68.293C78.0152 68.2437 77.3708 68.3857 76.807 68.7012C76.2433 69.0167 75.7852 69.4918 75.4904 70.0666C75.1956 70.6415 75.0772 71.2906 75.1499 71.9326C75.2227 72.5746 75.4834 73.1807 75.8994 73.675C75.099 74.3604 74.5194 75.4 74.6758 76.435C74.8322 77.47 75.9178 78.1968 76.8332 77.9024C77.1138 80.3312 77.905 83.1004 78.503 85.5614C78.9262 87.2956 81.3504 87.912 81.723 89.0712C83.655 94.9822 84.9982 91.2562 83.3698 78.5648C83.4756 78.4406 83.586 78.3118 83.6918 78.1738C83.8461 77.8767 83.9799 77.5693 84.092 77.2538C84.3036 76.8812 84.828 76.8858 85.2558 76.849C85.9962 76.7659 86.6855 76.4308 87.2081 75.8998C87.7307 75.3688 88.0548 74.6743 88.1262 73.9326C88.5862 74.3926 89.4648 74.227 89.9662 73.7578C90.406 73.2417 90.7699 72.6655 91.0472 72.0466C91.3922 71.4578 91.9212 70.892 92.5974 70.8598C92.9736 70.914 93.3549 70.9248 93.7336 70.892C94.3776 70.7126 94.5524 69.88 94.5248 69.213C94.4427 68.6491 94.5159 68.0734 94.7364 67.5478C95.0962 67.275 95.5032 67.0707 95.937 66.9452C96.19 66.9452 96.4522 66.9452 96.7006 66.9176C96.8196 66.9111 96.938 66.8957 97.0548 66.8716C97.2191 66.8941 97.3819 66.9263 97.5424 66.9682C99.9528 67.6168 102.75 71.8258 102.75 71.8258C102.4 68.8818 100.339 66.7658 97.984 65.4272Z" fill="#263238"/>
<path d="M75.3244 74.0385C75.3244 74.0385 75.3244 74.0108 75.3566 73.9556C75.3888 73.9004 75.4164 73.8268 75.4762 73.7302C75.6574 73.4557 75.8846 73.2145 76.1478 73.0173C76.5667 72.7058 77.0541 72.4992 77.5692 72.4146C78.251 72.2958 78.953 72.416 79.5564 72.755L79.4276 72.8241C79.4723 72.2564 79.6374 71.7048 79.9118 71.206C80.1862 70.7071 80.5637 70.2723 81.0192 69.9306C81.5217 69.5321 82.0943 69.231 82.7074 69.0428C83.3554 68.8554 84.0299 68.7761 84.7038 68.8082C85.9664 68.8848 87.2037 69.1968 88.3516 69.7282L88.2136 69.8018C88.4392 68.6763 89.0837 67.6784 90.0168 67.0097C90.6212 66.585 91.3232 66.3201 92.0575 66.2397C92.7918 66.1592 93.5346 66.2659 94.2166 66.5497C94.3589 66.608 94.4972 66.6756 94.6306 66.7521C94.718 66.8073 94.764 66.8394 94.7594 66.844C94.7548 66.8486 94.5662 66.7474 94.1936 66.6094C93.6588 66.4156 93.0924 66.3235 92.5238 66.338C91.6565 66.3556 90.8154 66.6381 90.1134 67.1476C89.2274 67.7991 88.6184 68.7595 88.4068 69.8386L88.3838 69.9628L88.2688 69.9122C87.1435 69.3902 85.9321 69.0784 84.6946 68.9922C84.0442 68.9636 83.3934 69.0397 82.7672 69.2176C82.1769 69.3938 81.6258 69.6811 81.1434 70.064C80.7048 70.3886 80.3399 70.8023 80.0727 71.278C79.8055 71.7537 79.6421 72.2806 79.5932 72.8241V72.9621L79.4736 72.893C78.9059 72.5621 78.2414 72.437 77.5922 72.5388C77.0953 72.6095 76.6224 72.7971 76.2122 73.0862C75.8562 73.3419 75.5545 73.6655 75.3244 74.0385Z" fill="#455A64"/>
<path d="M94.7456 67.2028C94.7346 67.2747 94.7177 67.3454 94.695 67.4144C94.6534 67.6161 94.6272 67.8206 94.6168 68.0262C94.6168 68.2976 94.6168 68.6288 94.5846 69.0198C94.596 69.473 94.5098 69.9233 94.3316 70.34C94.2657 70.4627 94.176 70.5711 94.0678 70.6587C93.9596 70.7464 93.8351 70.8116 93.7014 70.8506C93.4196 70.9184 93.131 70.9539 92.8412 70.9564C92.5478 70.9571 92.2595 71.0331 92.004 71.1772C91.7508 71.3667 91.5394 71.6062 91.383 71.881C91.2082 72.1616 91.0518 72.4698 90.8816 72.801C90.7293 73.1359 90.5278 73.446 90.2836 73.721C89.9949 73.9952 89.6423 74.1929 89.2578 74.296C89.0596 74.3555 88.8526 74.3804 88.646 74.3696C88.4191 74.3662 88.2027 74.2736 88.0434 74.112L88.2182 74.0476C88.2044 74.6788 87.9774 75.2868 87.5742 75.7726C87.1469 76.2718 86.5896 76.6428 85.9642 76.8444C85.7046 76.927 85.4383 76.987 85.1684 77.0238C84.9189 77.0157 84.6707 77.0628 84.4416 77.1618C84.2327 77.2787 84.0703 77.4639 83.9816 77.6862C83.8663 77.9175 83.7325 78.139 83.5814 78.3486C83.0436 79.193 82.2077 79.8039 81.24 80.0598C80.355 80.1869 79.454 79.9874 78.7054 79.4986C78.0618 79.0932 77.5553 78.5033 77.2518 77.8058L77.3484 77.8426C77.0771 77.9553 76.7843 78.0067 76.4909 77.9931C76.1975 77.9796 75.9107 77.9015 75.651 77.7644C75.2612 77.5559 74.9568 77.2173 74.7908 76.8076C74.6857 76.556 74.637 76.2843 74.6482 76.0118C74.6486 75.9422 74.6563 75.8728 74.6712 75.8048C74.6712 75.7588 74.6712 75.7358 74.6712 75.7358C74.6432 76.093 74.7032 76.4515 74.846 76.78C75.0143 77.1626 75.3102 77.4747 75.6832 77.6632C75.9283 77.7859 76.1971 77.854 76.4711 77.8628C76.7451 77.8715 77.0177 77.8207 77.2702 77.7138L77.3392 77.6862L77.3668 77.7506C77.6683 78.4137 78.1597 78.9725 78.779 79.356C79.4926 79.812 80.347 79.995 81.1848 79.8712C82.0987 79.6241 82.8876 79.0452 83.3974 78.2474C83.5438 78.0471 83.6731 77.8347 83.7838 77.6126C83.892 77.3531 84.0828 77.1364 84.3266 76.9962C84.4521 76.928 84.5895 76.8843 84.7314 76.8674L85.1224 76.8352C85.3787 76.8004 85.6313 76.7419 85.8768 76.6604C86.4664 76.4742 86.9921 76.1269 87.3948 75.6576C87.7718 75.2081 87.9843 74.6434 87.9974 74.0568V73.8176L88.163 73.9924C88.306 74.0998 88.4742 74.1685 88.6515 74.1919C88.8288 74.2153 89.0091 74.1925 89.175 74.1258C89.5281 74.0324 89.8523 73.8522 90.118 73.6014C90.3642 73.3348 90.5661 73.0304 90.716 72.6998C90.8908 72.387 91.0518 72.0788 91.2358 71.7798C91.4068 71.4858 91.6371 71.2305 91.912 71.03C92.1928 70.8727 92.5101 70.7918 92.832 70.7954C93.1105 70.7947 93.3881 70.7639 93.66 70.7034C93.7766 70.6715 93.8858 70.6169 93.9813 70.5427C94.0768 70.4685 94.1568 70.3762 94.2166 70.271C94.3956 69.8735 94.4866 69.442 94.4834 69.006C94.5064 68.6196 94.5202 68.2838 94.5478 68.0124C94.5669 67.8038 94.6054 67.5975 94.6628 67.396C94.6825 67.3285 94.7103 67.2637 94.7456 67.2028Z" fill="#455A64"/>
<path d="M94.7594 91.3942C94.5524 92.7742 95.1458 94.0944 96.443 94.5682C96.6955 94.6464 96.9609 94.6741 97.2241 94.6496C97.4873 94.6251 97.7431 94.5489 97.9768 94.4254C98.2105 94.3019 98.4176 94.1336 98.5862 93.93C98.7547 93.7264 98.8815 93.4915 98.9592 93.2388C99.1075 92.6747 99.1186 92.0832 98.9914 91.5138C97.8 91.4448 95.96 91.4632 94.7594 91.3942Z" fill="#7C4236"/>
<path d="M98.72 93.7954C98.72 93.7954 98.72 93.8323 98.6694 93.8921C98.6122 93.9799 98.5442 94.0603 98.467 94.1312C98.1842 94.4008 97.8267 94.5787 97.4412 94.6418C96.8603 94.7308 96.2668 94.6101 95.7668 94.3014C95.4682 94.1029 95.2139 93.8447 95.02 93.543C94.826 93.2414 94.6966 92.9029 94.6398 92.5488C94.6124 92.3631 94.6031 92.1752 94.6122 91.9876C94.6131 91.7911 94.6637 91.5981 94.7594 91.4264C94.8192 91.3341 94.9083 91.2644 95.0124 91.2286C95.1044 91.1993 95.2011 91.1868 95.2976 91.1918H95.7852C96.4154 91.224 96.9812 91.2838 97.455 91.3344C98.398 91.4356 98.9868 91.4632 98.9868 91.5C98.4733 91.5603 97.9546 91.5603 97.4412 91.5C96.9812 91.4724 96.4016 91.4264 95.776 91.408H95.316C95.155 91.408 95.04 91.4311 94.971 91.5415C94.9033 91.6853 94.8687 91.8425 94.8698 92.0014C94.8486 92.413 94.9325 92.8231 95.1136 93.1933C95.2946 93.5635 95.5669 93.8815 95.9048 94.1174C96.3587 94.4058 96.8974 94.5307 97.432 94.4716C97.7958 94.4311 98.1405 94.2874 98.4256 94.0576C98.6188 93.9012 98.72 93.777 98.72 93.7954Z" fill="#263238"/>
<path d="M126.504 77.9208C126.504 77.9208 132.332 77.194 141.091 70.225C149.849 63.256 154.596 53.3522 155.571 53.4994C156.547 53.6466 161.032 52.0504 167.531 70.5838C174.031 89.1172 170.416 92.9398 168.796 92.7512C167.177 92.5626 156.432 88.4502 149.476 88.5882C142.521 88.7262 133.317 91.4771 133.317 91.4771L126.504 77.9208Z" fill="#7E57C2"/>
<path d="M116.021 91.7576L119.135 91.0952L117.447 86.9966L114.815 88.3122L116.021 91.7576Z" fill="#455A64"/>
<path d="M116.384 86.8862L117.534 90.3454L118.252 92.0842C118.719 93.2396 119.614 94.1706 120.749 94.6845C121.885 95.1983 123.175 95.2555 124.351 94.8442L136.987 91.2884L131.559 75.2896L119.001 80.5842C117.823 81.0787 116.888 82.0177 116.398 83.1975C115.908 84.3773 115.903 85.7027 116.384 86.8862Z" fill="#263238"/>
<path d="M120.915 92.2038L125.147 99.7065L127.079 99.0854L140.295 108.948L143.575 101.809C143.575 101.809 135.883 98.8692 134.375 96.2334C132.866 93.5976 134.457 92.9214 134.457 92.9214L130.736 89.0298L120.915 92.2038Z" fill="#263238"/>
<path d="M166.837 70.8598C170.273 80.8924 171.276 89.6371 169.072 90.3914C166.869 91.1458 162.292 83.6294 158.851 73.5968C155.41 63.5642 154.412 54.8196 156.616 54.0606C158.819 53.3016 163.396 60.8134 166.837 70.8598Z" fill="#263238"/>
<path d="M158.175 67.8698C158.175 67.8698 163.428 65.2617 165.512 72.2215C167.596 79.1813 162.269 79.793 162.269 79.793C160.351 76.0305 158.973 72.0167 158.175 67.8698Z" fill="#FAFAFA"/>
<path d="M153.653 59.3828C153.637 59.8181 153.661 60.254 153.727 60.6846C153.805 61.5172 153.915 62.727 154.095 64.2174C154.239 64.9565 154.392 65.76 154.555 66.6278C154.642 67.0602 154.73 67.511 154.817 67.971C154.863 68.201 154.909 68.4356 154.955 68.6748C155.01 68.9094 155.084 69.1348 155.148 69.3832L155.999 72.3778L156.22 73.1598C156.294 73.4266 156.409 73.6796 156.501 73.9418C156.694 74.4662 156.892 74.9952 157.094 75.5334L157.692 77.125C157.793 77.3826 157.876 77.6494 157.996 77.8978L158.341 78.6384L159.67 81.4582C159.78 81.679 159.877 81.9182 159.992 82.116L160.351 82.737L161.036 83.9284L162.269 86.049C163.111 87.291 163.819 88.2708 164.307 88.9516C164.541 89.3191 164.809 89.664 165.107 89.982C164.919 89.5896 164.697 89.2141 164.445 88.8596L162.522 85.8834L161.344 83.7398L160.687 82.5576C160.572 82.3506 160.457 82.1436 160.337 81.9366C160.217 81.7296 160.135 81.4996 160.029 81.2742C159.615 80.3772 159.178 79.4342 158.732 78.4636L158.387 77.7276C158.272 77.4792 158.189 77.217 158.088 76.9594L157.499 75.3816C157.301 74.848 157.103 74.319 156.905 73.7992C156.813 73.5416 156.698 73.2886 156.629 73.0264C156.56 72.7642 156.478 72.502 156.399 72.2444L155.535 69.2728C155.47 69.0382 155.392 68.8128 155.337 68.5736C155.282 68.3344 155.236 68.1136 155.19 67.879C155.093 67.419 154.996 66.959 154.909 66.545C154.725 65.6894 154.55 64.889 154.394 64.1576C154.187 62.6948 154.012 61.5034 153.892 60.657C153.846 60.2268 153.766 59.8008 153.653 59.3828Z" fill="#263238"/>
<path d="M136.987 91.2654C136.806 91.3489 136.614 91.4092 136.417 91.4448L134.853 91.8588C133.528 92.1992 131.702 92.6822 129.687 93.2388C127.672 93.7954 125.855 94.3014 124.526 94.6188C123.859 94.7844 123.321 94.9086 122.944 94.9868C122.75 95.0359 122.553 95.0683 122.355 95.0834C122.538 95.0009 122.729 94.9377 122.925 94.8948L124.48 94.4348L129.627 92.9766C131.638 92.42 133.478 91.96 134.812 91.661C135.479 91.5092 136.021 91.3942 136.399 91.3252C136.593 91.287 136.79 91.267 136.987 91.2654Z" fill="#455A64"/>
<path d="M129.54 88.6526C129.149 88.8725 128.736 89.0498 128.307 89.1816C127.53 89.4715 126.467 89.8394 125.239 90.2028C124.011 90.5662 122.916 90.8468 122.111 91.0308C121.68 91.154 121.238 91.2326 120.791 91.2654C121.206 91.0983 121.633 90.9644 122.07 90.8652C122.865 90.6398 123.96 90.3316 125.17 89.9728C126.38 89.614 127.47 89.269 128.252 89.0206C128.671 88.8638 129.102 88.7408 129.54 88.6526Z" fill="#455A64"/>
<path d="M127.553 85.0002C126.281 85.5112 124.98 85.9459 123.657 86.302C122.355 86.7377 121.03 87.0971 119.687 87.3784C120.96 86.8666 122.263 86.4304 123.588 86.072C124.888 85.6388 126.212 85.2809 127.553 85.0002Z" fill="#455A64"/>
<path d="M125.593 81.4812C124.522 82.0801 123.412 82.6087 122.272 83.0636C121.165 83.5966 120.025 84.0576 118.859 84.4436C119.927 83.8404 121.035 83.3102 122.175 82.8567C123.282 82.3219 124.424 81.8623 125.593 81.4812Z" fill="#455A64"/>
<path d="M111.375 121.069L103.702 108.12L83.862 107.301V109.104C83.862 109.104 78.4156 114.587 76.6584 122.053C75.329 127.707 80.9226 149.281 82.4958 156.76C84.4278 165.96 87.0958 177.589 87.0958 177.589C86.6956 179.65 84.0506 181.32 84.2346 184.07L128.33 183.587L126.062 174.65L111.375 121.069Z" fill="#7E57C2"/>
<path d="M126.674 178.077C126.674 178.146 117.897 178.196 107.074 178.196C96.2498 178.196 87.4776 178.146 87.4776 178.077C87.4776 178.008 96.2498 177.957 107.074 177.957C117.897 177.957 126.674 178.012 126.674 178.077Z" fill="white"/>
<path d="M123.624 167C123.624 167.069 114.93 167.124 104.208 167.124C93.4852 167.124 84.7866 167.069 84.7866 167C84.7866 166.931 93.4806 166.88 104.208 166.88C114.935 166.88 123.624 166.949 123.624 167Z" fill="white"/>
<path d="M120.634 154.989C120.634 155.054 112.124 155.109 101.627 155.109C91.13 155.109 82.62 155.04 82.62 154.989C82.62 154.939 91.1254 154.87 101.623 154.87C112.12 154.87 120.634 154.92 120.634 154.989Z" fill="white"/>
<path d="M118.541 142.887C118.541 142.951 109.774 143.006 98.9638 143.006C88.1538 143.006 79.3908 142.951 79.3908 142.887C79.3908 142.822 88.1538 142.767 98.9638 142.767C109.774 142.767 118.541 142.818 118.541 142.887Z" fill="white"/>
<path d="M113.9 127.872C113.9 127.937 105.62 127.992 95.3758 127.992C85.1316 127.992 76.8516 127.937 76.8516 127.872C76.8516 127.808 85.1316 127.748 95.3758 127.748C105.62 127.748 113.9 127.803 113.9 127.872Z" fill="white"/>
<path d="M107.593 114.1C107.593 114.164 101.471 114.219 93.913 114.219C86.3552 114.219 80.2326 114.164 80.2326 114.1C80.2326 114.035 86.3552 113.98 93.913 113.98C101.471 113.98 107.593 114.054 107.593 114.1Z" fill="white"/>
<path d="M82.3026 129.054C84.2332 132.296 86.6698 135.208 89.52 137.679C93.9498 141.359 107.428 147.956 107.428 147.956L108.555 145.628L118.61 147.979L116.77 141.787L82.3026 129.054Z" fill="black"/>
<path d="M129.609 112.72L126.099 131.782L96.0336 117.49L91.1898 134.446C103.007 140.223 126.927 149.842 130.005 149.566C134.384 149.17 137.411 146.553 138.772 140.14C139.619 136.171 139.232 109.55 139.232 109.55L129.609 112.72Z" fill="#C17560"/>
<path d="M97.9978 114.928C97.9978 114.928 86.7554 107.982 81.8518 116.736C78.3466 125.273 82.2244 132.09 90.8816 136.322C95.0538 138.365 100.739 140.886 106.48 143.282L114.848 124.712L97.9978 114.928Z" fill="#7E57C2"/>
<path d="M97.9978 114.928C97.9978 114.928 98.1082 114.978 98.3106 115.093L99.203 115.595L102.598 117.536L114.898 124.629L114.972 124.675L114.935 124.753L106.591 143.328L106.545 143.434L106.439 143.388C103.495 142.164 100.459 140.858 97.3676 139.478C96.0029 138.865 94.6551 138.251 93.3242 137.638C91.9994 137.017 90.693 136.396 89.4372 135.711C88.8239 135.358 88.2182 134.988 87.6202 134.602C87.0498 134.188 86.461 133.811 85.9412 133.351C84.8789 132.498 83.923 131.52 83.0938 130.439L82.5234 129.62C82.3388 129.349 82.1713 129.066 82.022 128.774C81.7082 128.208 81.4346 127.621 81.2032 127.017C81.0974 126.718 81.0192 126.405 80.9272 126.097L80.7938 125.637C80.757 125.48 80.7386 125.328 80.7064 125.177C80.6558 124.873 80.6006 124.565 80.55 124.257C80.4994 123.948 80.5132 123.649 80.4948 123.337C80.4616 122.74 80.4724 122.142 80.527 121.547C80.573 120.963 80.6972 120.393 80.78 119.831C80.8628 119.27 81.0606 118.737 81.2124 118.208C81.3642 117.679 81.585 117.182 81.7644 116.685C82.4178 115.497 83.3257 114.468 84.4232 113.672C85.4272 112.992 86.5693 112.543 87.7674 112.356C89.6926 112.123 91.6457 112.313 93.4898 112.913C94.6585 113.276 95.7942 113.737 96.8846 114.293C97.2572 114.486 97.5332 114.643 97.7218 114.753C97.9104 114.863 97.9932 114.928 97.9932 114.928L97.708 114.776C97.5194 114.675 97.248 114.528 96.857 114.344C95.7622 113.809 94.6252 113.366 93.4576 113.019C91.6283 112.438 89.6941 112.263 87.7904 112.508C86.6165 112.695 85.4992 113.141 84.5198 113.815C83.447 114.6 82.561 115.614 81.9254 116.782C81.7506 117.278 81.5666 117.78 81.3826 118.295C81.1986 118.81 81.102 119.353 80.964 119.896C80.826 120.439 80.7662 121.014 80.7202 121.593C80.6694 122.179 80.6602 122.768 80.6926 123.355C80.6926 123.649 80.7248 123.953 80.7524 124.275C80.78 124.597 80.8536 124.873 80.9088 125.172C80.9364 125.324 80.9548 125.476 80.9916 125.632L81.125 126.092C81.217 126.391 81.2906 126.695 81.401 126.989C81.6278 127.583 81.8968 128.159 82.206 128.714C82.355 129 82.5193 129.278 82.6982 129.547L83.264 130.347C84.0838 131.413 85.029 132.377 86.0792 133.217C86.6115 133.658 87.1657 134.071 87.7398 134.455C88.3224 134.838 88.9235 135.203 89.543 135.55C90.785 136.226 92.0914 136.851 93.4162 137.468C94.741 138.084 96.0934 138.705 97.4596 139.308C100.542 140.688 103.578 141.994 106.517 143.222L106.365 143.282C109.489 136.382 112.345 130.025 114.751 124.726L114.792 124.845L102.533 117.679L99.18 115.641L98.306 115.116C98.099 115.02 97.9978 114.928 97.9978 114.928Z" fill="#263238"/>
<path d="M129.158 115.986L129.834 108.883C129.834 108.883 127.12 103.419 127.176 102.871C127.231 102.324 127.387 99.3108 127.387 99.3108L134.172 93.202C134.172 93.202 136.371 93.202 136.426 95.3778C136.426 95.3778 138.538 94.9178 138.57 97.4662C138.57 97.4662 140.87 97.549 140.916 99.4028C140.916 99.4028 142.296 99.2188 142.25 101.155C142.213 102.535 141.606 107.876 141.606 107.876L138.768 112.812L138.533 117.748L129.158 115.986Z" fill="#C17560"/>
<path d="M129.862 138.747C129.784 138.774 129.282 137.049 128.257 135.117C127.231 133.185 126.039 131.833 126.099 131.782C126.403 132.032 126.674 132.319 126.904 132.638C127.497 133.376 128.021 134.167 128.468 135.002C128.911 135.838 129.28 136.711 129.572 137.61C129.712 137.977 129.81 138.358 129.862 138.747Z" fill="#7C4236"/>
<path d="M91.1898 112.568C91.1097 112.793 91.0097 113.01 90.8908 113.217C90.6838 113.626 90.3756 114.21 89.9708 114.928C89.1934 116.368 88.0848 118.336 86.8474 120.498L82.6936 127.693C82.5817 127.903 82.454 128.104 82.3118 128.295C82.3918 128.071 82.4919 127.854 82.6108 127.647C82.8178 127.242 83.126 126.653 83.5308 125.936C84.3082 124.496 85.4122 122.527 86.6542 120.365C87.8962 118.203 89.0048 116.285 89.8374 114.845C90.233 114.169 90.5596 113.603 90.808 113.171C90.9177 112.959 91.0454 112.758 91.1898 112.568Z" fill="white"/>
<path d="M100.358 116.584C100.342 116.656 100.317 116.725 100.284 116.791L100.031 117.366C99.8056 117.867 99.4744 118.58 99.0466 119.459C98.2002 121.216 96.9904 123.622 95.5736 126.239C94.1568 128.857 92.8136 131.189 91.8016 132.859C91.2956 133.691 90.8816 134.363 90.5872 134.823L90.2468 135.352C90.2078 135.414 90.1632 135.473 90.1134 135.527C90.1134 135.527 90.1364 135.453 90.2054 135.324L90.509 134.777L91.6544 132.771C92.625 131.083 93.9544 128.737 95.362 126.124C96.7696 123.511 98.0116 121.119 98.8948 119.381L99.9482 117.329L100.238 116.772C100.269 116.704 100.309 116.641 100.358 116.584Z" fill="white"/>
<path d="M110.616 122.325C110.54 122.585 110.446 122.841 110.335 123.088C110.146 123.548 109.852 124.266 109.475 125.117C108.716 126.814 107.593 129.133 106.209 131.617C104.824 134.101 103.449 136.272 102.395 137.813C101.871 138.581 101.434 139.193 101.121 139.611C100.972 139.836 100.804 140.049 100.62 140.246C100.744 140.007 100.887 139.777 101.048 139.561L102.253 137.721C103.265 136.161 104.617 133.981 106.002 131.506C107.386 129.031 108.523 126.727 109.318 125.066L110.238 123.07C110.342 122.811 110.468 122.561 110.616 122.325Z" fill="white"/>
<path d="M83.885 192.585L84.8418 184.07L126.909 183.606L127.981 192.585H83.885Z" fill="#263238"/>
<path d="M135.98 191.84C135.98 191.904 123.022 191.959 107.037 191.959C91.0518 191.959 78.0936 191.904 78.0936 191.84C78.0936 191.775 91.0518 191.72 107.037 191.72C123.022 191.72 135.98 191.766 135.98 191.84Z" fill="#455A64"/>
<path d="M112.534 43.2644H96.8892C96.3709 43.2644 95.9508 43.6846 95.9508 44.2028V44.879C95.9508 45.3973 96.3709 45.8174 96.8892 45.8174H112.534C113.052 45.8174 113.472 45.3973 113.472 44.879V44.2028C113.472 43.6846 113.052 43.2644 112.534 43.2644Z" fill="#455A64"/>
<path d="M117.723 44.5432C117.723 44.7962 117.648 45.0434 117.507 45.2537C117.367 45.464 117.167 45.6279 116.933 45.7247C116.699 45.8215 116.442 45.8468 116.194 45.7975C115.946 45.7481 115.718 45.6263 115.54 45.4475C115.361 45.2686 115.239 45.0408 115.19 44.7927C115.14 44.5447 115.166 44.2875 115.262 44.0539C115.359 43.8202 115.523 43.6205 115.733 43.48C115.944 43.3394 116.191 43.2644 116.444 43.2644C116.612 43.2644 116.778 43.2975 116.933 43.3618C117.088 43.4261 117.229 43.5203 117.348 43.639C117.467 43.7577 117.561 43.8987 117.625 44.0539C117.69 44.209 117.723 44.3753 117.723 44.5432Z" fill="#455A64"/>
<path d="M64.7168 63.0812H65.7518V84.4252H64.7168C63.9604 84.4252 63.235 84.1248 62.7001 83.5899C62.1653 83.0551 61.8648 82.3296 61.8648 81.5732V65.9332C61.8648 65.5587 61.9385 65.1879 62.0819 64.8418C62.2252 64.4958 62.4353 64.1814 62.7001 63.9166C62.9649 63.6517 63.2793 63.4417 63.6254 63.2983C63.9714 63.155 64.3423 63.0812 64.7168 63.0812Z" fill="#263238"/>
<path d="M64.4592 94.0944H65.4942V115.438H64.4592C63.7028 115.438 62.9774 115.138 62.4425 114.603C61.9077 114.068 61.6072 113.343 61.6072 112.586V96.9464C61.6072 96.19 61.9077 95.4646 62.4425 94.9298C62.9774 94.3949 63.7028 94.0944 64.4592 94.0944Z" fill="#263238"/>
<path d="M64.5328 125.729C64.4638 125.729 64.4132 110.236 64.4132 91.1274C64.4132 72.019 64.4638 56.5216 64.5328 56.5216C64.6018 56.5216 64.6524 72.0144 64.6524 91.1274C64.6524 110.24 64.5972 125.729 64.5328 125.729Z" fill="#455A64"/>
</svg>
