<svg width="259" height="196" viewBox="0 0 259 196" fill="none" xmlns="http://www.w3.org/2000/svg">
<g clip-path="url(#clip0_100_2)">
<path d="M123.299 9.10242L71.6015 33.1035L77.3977 45.6596L129.095 21.6593L123.299 9.10242Z" fill="#F9F6FD"/>
<path d="M97.1852 20.5294C96.3451 20.9433 95.4008 21.0967 94.4737 20.9707C93.5466 20.8447 92.6784 20.4454 91.9792 19.8217C91.2799 19.1988 90.783 18.3799 90.5496 17.4715C90.3161 16.5625 90.358 15.6058 90.6698 14.7216C90.9823 13.8366 91.5496 13.0647 92.3014 12.5054C93.0525 11.9461 93.9535 11.6241 94.888 11.5804C95.8225 11.536 96.7481 11.773 97.548 12.2592C98.3479 12.7461 98.9859 13.4602 99.3787 14.3118C99.6415 14.8647 99.7927 15.4642 99.8253 16.0756C99.8571 16.687 99.7688 17.2991 99.5657 17.8769C99.362 18.454 99.0475 18.9864 98.6389 19.4418C98.2303 19.8972 97.7358 20.2673 97.1852 20.5308L97.1852 20.5294ZM91.7839 8.82916C87.7941 10.6831 86.0908 15.5058 87.9828 19.6036C89.8741 23.7007 94.6432 25.5216 98.6337 23.6684C102.624 21.8145 104.326 16.9911 102.435 12.8933C100.543 8.79544 95.7745 6.97594 91.7839 8.82916Z" fill="#F9F6FD"/>
<path d="M122.757 9.36447L72.1481 32.8602L77.6891 44.8642L128.298 21.3692L122.757 9.36447Z" fill="#954AEB"/>
<path d="M97.1979 20.5636C96.3909 20.9382 95.4909 21.0647 94.6123 20.9259C93.7338 20.7878 92.9163 20.391 92.2623 19.7866C91.6083 19.1823 91.1484 18.3981 90.9395 17.5308C90.7305 16.6642 90.7818 15.7549 91.089 14.9175C91.3955 14.08 91.9422 13.353 92.6608 12.8274C93.3795 12.3018 94.2382 12.0023 95.1269 11.9651C96.0156 11.9286 96.894 12.1568 97.6535 12.6217C98.4123 13.0865 99.0167 13.7652 99.3906 14.5743C99.8917 15.6598 99.9416 16.9009 99.5304 18.0237C99.1192 19.1459 98.2805 20.0589 97.1978 20.5615L97.1979 20.5636ZM92.0349 9.37651C90.635 10.0261 89.4595 11.0765 88.6556 12.3963C87.8518 13.7155 87.456 15.2453 87.5187 16.7906C87.5814 18.3353 88.0993 19.8264 89.0076 21.0758C89.9158 22.3259 91.1732 23.2766 92.6206 23.8101C94.0679 24.3429 95.6407 24.4338 97.1394 24.0707C98.6381 23.7068 99.9962 22.906 101.041 21.769C102.086 20.6314 102.772 19.2096 103.01 17.6814C103.249 16.1539 103.032 14.5899 102.384 13.1868C101.516 11.3054 99.9375 9.84613 97.9967 9.13178C96.056 8.41744 93.9113 8.50573 92.0349 9.37651Z" fill="#954AEB"/>
<path d="M85.0176 60.0176L62.705 70.3772L73.0309 92.7506L95.3435 82.3917L85.0176 60.0176Z" fill="#F9F6FD"/>
<path d="M105.559 104.324L83.2466 114.684L93.5738 137.057L115.886 126.698L105.559 104.324Z" fill="#F9F6FD"/>
<path d="M84.5763 61.2161L63.8985 70.8166L73.4681 91.5522L94.1474 81.951L84.5763 61.2161Z" fill="#2C9900"/>
<path d="M104.854 105.146L84.1747 114.746L93.7457 135.481L114.425 125.881L104.854 105.146Z" fill="#954AEB"/>
<path d="M129.477 48.1426L101.134 61.3014L102.049 63.2851L130.393 50.1263L129.477 48.1426Z" fill="#E3D1F9"/>
<path d="M149.309 42.5506L102.509 64.2773L103.424 66.2602L150.224 44.5336L149.309 42.5506Z" fill="#E3D1F9"/>
<path d="M147.383 47.055L103.879 67.2523L104.795 69.2352L148.299 49.038L147.383 47.055Z" fill="#E3D1F9"/>
<path d="M149.756 92.0746L121.412 105.233L122.327 107.216L150.671 94.0583L149.756 92.0746Z" fill="#E3D1F9"/>
<path d="M169.585 86.4805L122.786 108.207L123.701 110.19L170.501 88.4635L169.585 86.4805Z" fill="#E3D1F9"/>
<path d="M167.661 90.9863L124.156 111.184L125.073 113.166L168.576 92.9699L167.661 90.9863Z" fill="#E3D1F9"/>
<path d="M73.7601 77.3264L79.1078 79.0344L80.808 68.7207L83.4098 69.4187L80.5577 82.1728L72.487 78.6797L73.7601 77.3264Z" fill="#F9F6FD"/>
<path d="M183.966 121.93L117.846 152.626L128.047 174.725L194.166 144.029L183.966 121.93Z" fill="#E3D1F9"/>
<path d="M146.6 146.852C147.629 145.883 149.072 146.086 149.695 147.406C150.319 148.727 150.057 150.595 149.199 151.766C149.086 151.92 148.96 152.064 148.823 152.198C148.219 151.999 147.66 151.683 147.179 151.269C145.949 150.169 145.246 148.128 146.609 146.846L146.6 146.852ZM144.903 159.311C144.402 159.814 143.867 159.42 143.595 158.899C143.264 158.264 143.401 157.637 143.815 157.074C143.882 156.983 143.955 156.895 144.031 156.811C145.031 157.451 145.85 158.37 144.912 159.311L144.903 159.311ZM174.453 139.642C171.901 138.928 169.295 139.081 168.499 142.007C168.231 142.992 168.208 144.521 167.158 145.034C165.612 145.79 163.734 144.307 162.387 143.706C159.874 142.585 157.306 143.373 155.868 145.764C155.14 146.977 154.832 148.369 154.589 149.747C154.484 150.344 154.475 151.082 154.227 151.645C153.752 152.725 152.249 152.637 151.262 152.601C151.046 152.602 150.825 152.578 150.604 152.556C151.378 151.475 151.76 150.161 151.687 148.831C151.611 146.649 150.184 144.269 147.714 144.55C145.501 144.793 143.954 146.946 144.215 149.114C144.436 150.957 145.642 152.379 147.182 153.246C146.43 153.585 145.627 153.85 144.916 154.2C144.584 154.364 144.262 154.546 143.951 154.748C141.791 153.718 138.96 153.537 137.028 154.612C136.092 155.131 136.786 156.655 137.726 156.131C139.197 155.314 140.826 155.507 142.371 156.012L142.501 156.058C142.349 156.256 142.216 156.464 142.102 156.685C141.24 158.387 142.126 161.065 144.247 161.238C147.237 161.477 147.355 157.515 145.723 155.947C145.654 155.881 145.585 155.817 145.511 155.755C146.181 155.426 146.906 155.178 147.545 154.9C148.103 154.659 148.633 154.359 149.127 154.005L149.242 154.035C151.528 154.54 155.092 154.681 155.898 151.903C156.588 149.493 156.627 144.381 160.422 144.832C161.97 145.016 163.246 146.201 164.72 146.623C166.04 147.01 167.564 147.017 168.639 146.039C169.527 145.231 169.72 144.044 169.988 142.936C170.125 142.364 170.259 141.681 170.721 141.271C171.556 140.53 172.945 140.955 173.882 141.217C174.906 141.502 175.491 139.931 174.453 139.642Z" fill="#954AEB"/>
<path d="M187.744 49.9971L169.226 57.3569C165.735 57.1164 158.387 56.2088 151.08 52.8038C142.946 49.0133 133.651 49.0759 125.791 53.1388C107.632 53.6776 97.6233 51.4014 92.2774 49.223L93.6683 46.3194L74.8169 39.0728L7.47692 7.87435L7.95368 94.4984L44.6485 112.089L53.3597 90.8029L72.7964 99.6832L76.4663 90.178L89.2483 99.5785L90.119 100.304L88.9328 101.553C87.8448 102.718 87.2436 104.257 87.2523 105.852C87.2611 107.448 87.8793 108.979 88.98 110.131C89.5123 110.689 90.1529 111.133 90.8622 111.434C91.5715 111.736 92.3348 111.889 93.1049 111.885C93.875 111.881 94.6366 111.719 95.3425 111.409C96.0484 111.1 96.6841 110.649 97.2102 110.084L96.5612 110.78C95.4732 111.945 94.872 113.483 94.8808 115.078C94.8896 116.674 95.5077 118.206 96.6085 119.358C97.1407 119.916 97.7813 120.36 98.4906 120.661C99.1999 120.963 99.9632 121.116 100.733 121.112C101.503 121.107 102.265 120.945 102.971 120.635C103.677 120.326 104.313 119.875 104.839 119.311L108.588 115.359L106.014 118.071C104.926 119.236 104.325 120.774 104.334 122.37C104.343 123.965 104.961 125.497 106.061 126.649C106.593 127.208 107.234 127.651 107.943 127.953C108.652 128.254 109.416 128.407 110.186 128.403C110.957 128.398 111.717 128.236 112.423 127.927C113.129 127.617 113.765 127.167 114.291 126.603L117.992 122.702L116.436 124.343C115.675 125.156 115.255 126.231 115.261 127.346C115.267 128.461 115.699 129.532 116.469 130.336C116.84 130.726 117.288 131.035 117.783 131.246C118.278 131.456 118.811 131.563 119.349 131.56C119.887 131.557 120.419 131.444 120.912 131.228C121.405 131.012 121.848 130.697 122.216 130.304L124.684 127.703C128.967 130.803 132.43 133.063 134.123 133.643C141.178 136.051 141.151 131.148 141.151 131.148C150.584 135.996 155.233 126.167 155.233 126.167C167.017 131.001 166.95 118.746 166.95 118.746C169.9 120.772 172.014 119.824 173.485 118.018C175.488 115.567 175.715 112.123 174.315 109.37L185.496 98.8927L190.411 108.829L209.749 99.728L218.685 119.303L254.511 100.612L251.956 14.9061L187.744 49.9971Z" fill="#F9F6FD"/>
<path d="M184.872 95.3825L164.507 113.739L148.427 84.1859L184.759 74.859L184.872 95.3825Z" fill="#BD7B5E"/>
<path d="M86.8313 48.0482C86.8313 48.0482 93.45 57.131 132.347 54.6298L155.275 88.7039L170.607 105.809C173.016 108.497 173.174 112.594 170.839 115.346C169.42 117.016 167.372 117.901 164.52 116.015C164.52 116.015 164.583 127.416 153.189 122.92C153.189 122.92 148.692 132.066 139.571 127.558C139.571 127.558 139.597 132.118 132.763 129.877C125.929 127.635 89.3816 98.2016 89.3816 98.2016L73.4027 86.8912L86.8313 48.0482Z" fill="#FCA47C"/>
<path d="M168.752 58.9867C168.752 58.9867 158.926 59.0425 149.186 54.6733C140.329 50.7054 130.044 51.2756 121.921 56.5966C115.3 60.9338 109.583 68.0855 109.755 79.8419C109.755 79.8419 118.647 88.9114 127.895 70.6189L134.716 70.5801C134.716 70.5801 141.409 93.3448 159.842 90.9552C178.274 88.5655 182.557 86.2661 182.557 86.2661L168.752 58.9867Z" fill="#BD7B5E"/>
<path d="M109.306 104.349L108.564 103.613C106.558 101.624 103.325 101.643 101.342 103.653L96.0869 108.983C94.1043 110.994 94.1221 114.236 96.1268 116.225L96.869 116.961C98.8744 118.949 102.106 118.931 104.09 116.92L109.346 111.59C111.328 109.58 111.311 106.337 109.306 104.349Z" fill="#BD7B5E"/>
<path d="M101.93 95.7758L101.187 95.04C99.1819 93.0519 95.95 93.0702 93.9666 95.081L88.7105 100.41C86.7278 102.422 86.7457 105.664 88.7504 107.652L89.4919 108.388C91.4973 110.376 94.7299 110.358 96.7133 108.347L101.969 103.017C103.952 101.006 103.934 97.7639 101.93 95.7758Z" fill="#BD7B5E"/>
<path d="M119.569 109.991L118.827 109.255C116.821 107.267 113.589 107.285 111.605 109.296L105.219 115.772C103.236 117.783 103.254 121.025 105.259 123.013L106.001 123.75C108.006 125.738 111.239 125.72 113.223 123.709L119.609 117.232C121.591 115.221 121.574 111.979 119.569 109.991Z" fill="#BD7B5E"/>
<path d="M124.996 117.895L124.478 117.381C123.078 115.992 120.821 116.005 119.435 117.409L115.405 121.497C114.02 122.901 114.033 125.165 115.433 126.554L115.951 127.068C117.352 128.456 119.609 128.443 120.994 127.039L125.024 122.952C126.41 121.548 126.397 119.284 124.996 117.895Z" fill="#BD7B5E"/>
<path d="M4.35995 9.27911L75.4279 41.2628L46.2449 109.84L4.81173 91.369L4.35995 9.27911Z" fill="#6013B8"/>
<path d="M254.388 15.2615L184.629 52.0594L214.568 120.299L254.84 97.3515L254.388 15.2615Z" fill="#480F89"/>
</g>
<defs>
<clipPath id="clip0_100_2">
<rect width="259" height="196" fill="white"/>
</clipPath>
</defs>
</svg>
