<svg width="232" height="185" viewBox="0 0 232 185" fill="none" xmlns="http://www.w3.org/2000/svg">
<path d="M116 184.654C179.67 184.654 231.284 154.855 231.284 118.095C231.284 81.3348 179.67 51.535 116 51.535C52.3305 51.535 0.716064 81.3348 0.716064 118.095C0.716064 154.855 52.3305 184.654 116 184.654Z" fill="#F0F0F0"/>
<path d="M16.5622 111.135C16.2979 110.954 16.0796 110.713 15.925 110.432C15.7703 110.152 15.6836 109.838 15.6717 109.518V29.5324C15.6916 29.2011 15.7896 28.8793 15.9579 28.5932C16.1262 28.3072 16.3598 28.0651 16.6397 27.8868L63.8877 0.637566C64.1628 0.462263 64.4807 0.365654 64.8068 0.358226C65.133 0.350799 65.4549 0.432836 65.7377 0.595433C66.0205 0.758031 66.2534 0.99498 66.411 1.28056C66.5687 1.56615 66.6451 1.88945 66.632 2.2154V82.2012C66.6121 82.5332 66.5141 82.8557 66.3458 83.1425C66.1776 83.4293 65.944 83.6723 65.664 83.8517L18.4111 111.101C18.1272 111.251 17.8119 111.333 17.4907 111.338C17.1695 111.344 16.8514 111.275 16.5622 111.135Z" fill="#FAFAFA"/>
<path d="M18.4063 111.101L65.664 83.8517C65.944 83.6723 66.1776 83.4293 66.3458 83.1425C66.5141 82.8557 66.6121 82.5332 66.632 82.2012V2.2154C66.632 1.6104 66.2061 1.36356 65.664 1.66848L18.4159 28.9177C18.1366 29.0966 17.9034 29.3388 17.7352 29.6248C17.567 29.9107 17.4686 30.2322 17.4479 30.5633V110.549C17.4576 111.159 17.8835 111.401 18.4063 111.101Z" fill="#F5F5F5"/>
<path d="M18.2853 111.164C18.0142 111.285 17.7198 111.345 17.4229 111.34C17.126 111.335 16.8339 111.265 16.5671 111.135C16.3025 110.955 16.0841 110.715 15.9293 110.435C15.7746 110.155 15.688 109.843 15.6765 109.523V29.5372C15.6882 29.206 15.7831 28.8831 15.9524 28.5982L17.748 29.6292C17.5763 29.9115 17.4796 30.2331 17.4673 30.5633V110.554C17.4576 111.111 17.8206 111.362 18.2853 111.164Z" fill="#EBEBEB"/>
<path d="M43.6227 20.5638L59.2607 11.513C59.7447 11.2468 60.098 11.4646 60.098 11.997V12.3358C60.0831 12.6268 59.9994 12.9101 59.8539 13.1625C59.7083 13.4149 59.5051 13.6292 59.2607 13.7878L43.6227 22.8386C43.1387 23.1048 42.7853 22.887 42.7853 22.3546V22.0158C42.8011 21.7251 42.885 21.4421 43.0305 21.1898C43.176 20.9375 43.3789 20.7231 43.6227 20.5638Z" fill="#E0E0E0"/>
<path d="M43.6227 26.2121L59.2607 17.1758C59.7447 16.9096 60.098 17.1274 60.098 17.6598V17.9938C60.0831 18.2848 59.9994 18.5681 59.8539 18.8204C59.7083 19.0728 59.5051 19.2871 59.2607 19.4458L43.6227 28.4966C43.1387 28.7628 42.7853 28.5498 42.7853 28.0126V27.6786C42.7996 27.3855 42.8828 27.0999 43.0283 26.8451C43.1738 26.5902 43.3775 26.3734 43.6227 26.2121Z" fill="#E0E0E0"/>
<path d="M43.6227 31.8798L59.2607 22.8338C59.7447 22.5628 60.098 22.7806 60.098 23.3178V23.6518C60.0819 23.9425 59.9978 24.2253 59.8523 24.4775C59.7069 24.7297 59.5042 24.9442 59.2607 25.1038L43.6227 34.1497C43.1387 34.4208 42.7853 34.203 42.7853 33.6657V33.3318C42.8022 33.0413 42.8867 32.7587 43.032 32.5066C43.1774 32.2545 43.3797 32.0399 43.6227 31.8798Z" fill="#E0E0E0"/>
<path d="M43.6227 37.5523L59.2607 28.5014C59.7447 28.2352 60.098 28.4482 60.098 28.9854V29.3194C60.0827 29.6103 59.9989 29.8934 59.8534 30.1457C59.7078 30.3981 59.5048 30.6124 59.2607 30.7714L43.6227 39.8222C43.1387 40.0884 42.7853 39.8706 42.7853 39.3382V39.0043C42.8011 38.7135 42.885 38.4305 43.0305 38.1782C43.176 37.9259 43.3789 37.7115 43.6227 37.5523Z" fill="#E0E0E0"/>
<path d="M23.5851 54.7681L59.2607 34.1691C59.7447 33.9029 60.098 34.1207 60.098 34.6531V34.987C60.0831 35.278 59.9994 35.5613 59.8539 35.8137C59.7083 36.0661 59.5051 36.2804 59.2607 36.439L23.5851 57.0381C23.1011 57.3043 22.7477 57.0913 22.7477 56.5541V56.2201C22.7631 55.9293 22.8469 55.6461 22.9924 55.3938C23.1379 55.1415 23.341 54.9271 23.5851 54.7681Z" fill="#E0E0E0"/>
<path d="M23.5851 60.4793L59.2607 39.8803C59.7447 39.6141 60.098 39.827 60.098 40.3643V40.6982C60.0827 40.9891 59.9989 41.2723 59.8534 41.5246C59.7079 41.7769 59.5048 41.9913 59.2607 42.1502L23.5851 62.7493C23.1011 63.0155 22.7477 62.7977 22.7477 62.2653V61.9313C22.7627 61.6404 22.8464 61.3571 22.9919 61.1047C23.1374 60.8523 23.3407 60.638 23.5851 60.4793Z" fill="#E0E0E0"/>
<path d="M23.5851 66.147L59.2607 45.5479C59.7447 45.2817 60.098 45.4995 60.098 46.0319V46.3659C60.0831 46.6568 59.9994 46.9401 59.8539 47.1925C59.7083 47.4449 59.5051 47.6592 59.2607 47.8179L23.5851 68.4169C23.1011 68.6831 22.7477 68.4702 22.7477 67.9329V67.599C22.7631 67.3081 22.8469 67.025 22.9924 66.7726C23.1379 66.5203 23.341 66.3059 23.5851 66.147Z" fill="#E0E0E0"/>
<path d="M23.5851 71.8146L59.2607 51.2156C59.7447 50.9494 60.098 51.1672 60.098 51.6996V52.0238C60.0831 52.3148 59.9994 52.5981 59.8539 52.8505C59.7083 53.1029 59.5051 53.3172 59.2607 53.4758L23.5851 74.0846C23.1011 74.3556 22.7477 74.1378 22.7477 73.6006V73.2666C22.7638 72.9759 22.848 72.6931 22.9934 72.4409C23.1389 72.1886 23.3415 71.9741 23.5851 71.8146Z" fill="#E0E0E0"/>
<path d="M23.5851 77.4871L59.2607 56.888C59.7447 56.617 60.098 56.8348 60.098 57.372V57.706C60.0819 57.9967 59.9978 58.2795 59.8523 58.5318C59.7069 58.784 59.5042 58.9985 59.2607 59.158L23.5851 79.757C23.1011 80.0233 22.7477 79.8055 22.7477 79.273V78.9391C22.7627 78.6481 22.8464 78.3648 22.9919 78.1125C23.1374 77.8601 23.3407 77.6458 23.5851 77.4871Z" fill="#E0E0E0"/>
<path d="M23.5851 83.1547L59.2607 62.5557C59.7447 62.2895 60.098 62.5025 60.098 63.0397V63.3737C60.0827 63.6645 59.9989 63.9477 59.8534 64.2C59.7079 64.4523 59.5048 64.6667 59.2607 64.8257L23.5851 85.4199C23.1011 85.6861 22.7477 85.4683 22.7477 84.9359V84.6019C22.7634 84.3118 22.8475 84.0295 22.993 83.778C23.1385 83.5265 23.3414 83.3129 23.5851 83.1547Z" fill="#E0E0E0"/>
<path d="M23.5851 88.8466L59.2607 68.2475C59.7447 67.9813 60.098 68.1991 60.098 68.7315V69.0655C60.0831 69.3564 59.9994 69.6397 59.8539 69.8921C59.7083 70.1445 59.5051 70.3588 59.2607 70.5175L23.5851 91.1165C23.1011 91.3876 22.7477 91.1698 22.7477 90.6325V90.2986C22.7631 90.0077 22.8469 89.7245 22.9924 89.4722C23.1379 89.2199 23.341 89.0055 23.5851 88.8466Z" fill="#E0E0E0"/>
<path d="M23.5851 94.5142L59.2607 73.92C59.7447 73.649 60.098 73.8668 60.098 74.404V74.738C60.0819 75.0287 59.9978 75.3115 59.8523 75.5637C59.7069 75.8159 59.5042 76.0304 59.2607 76.19L23.5851 96.789C23.1011 97.0552 22.7477 96.8374 22.7477 96.305V95.9662C22.7638 95.6755 22.848 95.3927 22.9934 95.1405C23.1389 94.8882 23.3415 94.6737 23.5851 94.5142Z" fill="#E0E0E0"/>
<path d="M23.5851 100.187L59.2607 79.6118C59.7447 79.3456 60.098 79.5586 60.098 80.0958V80.4298C60.0827 80.7207 59.9989 81.0038 59.8534 81.2561C59.7079 81.5085 59.5048 81.7229 59.2607 81.8818L23.5851 102.457C23.1011 102.723 22.7477 102.505 22.7477 101.973V101.639C22.7627 101.348 22.8464 101.064 22.9919 100.812C23.1374 100.56 23.3407 100.345 23.5851 100.187Z" fill="#E0E0E0"/>
<path d="M22.9704 32.5961L40.1717 22.6596L40.1766 42.5278L22.9704 52.4643V32.5961Z" fill="black"/>
<path d="M25.5501 34.5998V40.5627L26.0873 40.2433V38.4138C26.1439 37.8198 26.3395 37.2474 26.6581 36.743C26.9768 36.2385 27.4096 35.816 27.9217 35.5098L30.4675 34.0578V42.915C30.4579 43.5113 30.3083 44.097 30.0309 44.6249C29.7534 45.1528 29.3559 45.6083 28.8703 45.9545L27.2683 46.8789V47.513L35.8738 42.5423V41.9131L34.2766 42.8327C33.3909 43.3457 32.6746 42.8327 32.6746 41.6372V32.78L35.2204 31.328C36.232 30.7424 37.0548 31.086 37.0548 32.0927V33.9174L37.592 33.6173V27.6302L25.5501 34.5998Z" fill="#FAFAFA"/>
<path d="M30.332 119.077C30.0669 118.898 29.8477 118.658 29.6921 118.378C29.5366 118.098 29.4491 117.786 29.4366 117.465V37.4748C29.4565 37.1435 29.5546 36.8217 29.7229 36.5357C29.8911 36.2496 30.1248 36.0075 30.4046 35.8292L77.6527 8.58C77.9277 8.40733 78.2445 8.31287 78.5691 8.30679C78.8937 8.30072 79.2139 8.38325 79.4951 8.54551C79.7763 8.70778 80.008 8.94364 80.1652 9.22772C80.3224 9.51181 80.3992 9.83338 80.3873 10.1578V90.1437C80.3674 90.4756 80.2693 90.7981 80.1011 91.0849C79.9329 91.3717 79.6993 91.6147 79.4193 91.7941L32.1712 119.043C31.8886 119.192 31.575 119.273 31.2556 119.278C30.9363 119.284 30.62 119.215 30.332 119.077Z" fill="#FAFAFA"/>
<path d="M32.1761 119.043L79.4241 91.7941C79.7041 91.6147 79.9377 91.3717 80.1059 91.0849C80.2742 90.7981 80.3722 90.4756 80.3921 90.1437V10.1578C80.3921 9.55285 79.9662 9.30601 79.4241 9.61093L32.1712 36.8601C31.8919 37.039 31.6587 37.2813 31.4905 37.5672C31.3223 37.8531 31.2239 38.1747 31.2032 38.5057V118.492C31.2226 119.101 31.6485 119.343 32.1761 119.043Z" fill="#F5F5F5"/>
<path d="M32.0502 119.106C31.7741 119.253 31.4642 119.324 31.1517 119.313C30.8392 119.302 30.5353 119.208 30.2706 119.042C30.0059 118.875 29.7898 118.642 29.6443 118.365C29.4987 118.088 29.4287 117.778 29.4415 117.465V37.5038C29.4532 37.1727 29.5481 36.8498 29.7173 36.5649L31.5033 37.5958C31.3315 37.8781 31.2349 38.1997 31.2226 38.5299V118.496C31.2226 119.053 31.5856 119.3 32.0502 119.106Z" fill="#EBEBEB"/>
<path d="M57.3925 28.4869L73.0305 19.4361C73.4903 19.1699 73.8678 19.3877 73.8678 19.9201V20.2541C73.8521 20.5449 73.7681 20.8279 73.6227 21.0801C73.4772 21.3324 73.2743 21.5468 73.0305 21.7061L57.3876 30.7569C56.9036 31.0231 56.5503 30.8053 56.5503 30.2729V29.9389C56.5666 29.6477 56.6513 29.3644 56.7976 29.1121C56.944 28.8598 57.1478 28.6456 57.3925 28.4869Z" fill="#E0E0E0"/>
<path d="M57.3925 34.1546L73.0305 25.1038C73.4903 24.8376 73.8678 25.0554 73.8678 25.5878V25.9217C73.8521 26.2125 73.7681 26.4955 73.6227 26.7478C73.4772 27 73.2743 27.2145 73.0305 27.3737L57.3876 36.4245C56.9036 36.6907 56.5503 36.4778 56.5503 35.9405V35.6066C56.5666 35.3154 56.6513 35.0321 56.7976 34.7798C56.944 34.5275 57.1478 34.3133 57.3925 34.1546Z" fill="#E0E0E0"/>
<path d="M57.3925 39.8222L73.0305 30.7762C73.4903 30.5052 73.8678 30.723 73.8678 31.2602V31.5942C73.851 31.8847 73.7665 32.1673 73.6211 32.4194C73.4758 32.6715 73.2735 32.8861 73.0305 33.0462L57.3876 42.097C56.9036 42.3632 56.5503 42.1454 56.5503 41.613V41.2742C56.5673 40.9832 56.6524 40.7002 56.7986 40.448C56.9449 40.1958 57.1483 39.9815 57.3925 39.8222Z" fill="#E0E0E0"/>
<path d="M57.3925 45.4947L73.0305 36.4439C73.4903 36.1777 73.8678 36.3906 73.8678 36.9279V37.2618C73.8514 37.5525 73.767 37.8352 73.6216 38.0873C73.4762 38.3395 73.2738 38.554 73.0305 38.7138L57.3876 47.7646C56.9036 48.0308 56.5503 47.813 56.5503 47.2806V46.9467C56.5662 46.6554 56.6507 46.372 56.7971 46.1196C56.9435 45.8673 57.1475 45.6531 57.3925 45.4947Z" fill="#E0E0E0"/>
<path d="M37.35 62.7106L73.0305 42.1115C73.4903 41.8453 73.8678 42.0631 73.8678 42.5955V42.9295C73.8521 43.2203 73.7681 43.5033 73.6227 43.7555C73.4772 44.0078 73.2743 44.2222 73.0305 44.3815L37.35 64.9805C36.866 65.2467 36.5127 65.0338 36.5127 64.4965V64.1626C36.5292 63.872 36.6135 63.5893 36.7589 63.3371C36.9043 63.085 37.1068 62.8704 37.35 62.7106Z" fill="#E0E0E0"/>
<path d="M37.35 68.4218L73.0305 47.8227C73.4903 47.5565 73.8678 47.7743 73.8678 48.3067V48.6358C73.8514 48.9264 73.767 49.2092 73.6216 49.4613C73.4762 49.7134 73.2738 49.928 73.0305 50.0878L37.35 70.6917C36.866 70.9579 36.5127 70.7401 36.5127 70.2077V69.8738C36.5284 69.583 36.6124 69.3 36.7579 69.0477C36.9034 68.7955 37.1062 68.581 37.35 68.4218Z" fill="#E0E0E0"/>
<path d="M37.35 74.0894L73.0305 53.4758C73.4903 53.2096 73.8678 53.4274 73.8678 53.9598V54.2938C73.8521 54.5846 73.7681 54.8676 73.6227 55.1198C73.4772 55.3721 73.2743 55.5866 73.0305 55.7458L37.35 76.3594C36.866 76.6256 36.5127 76.4126 36.5127 75.8754V75.5414C36.5292 75.2508 36.6135 74.9681 36.7589 74.7159C36.9043 74.4638 37.1068 74.2492 37.35 74.0894Z" fill="#E0E0E0"/>
<path d="M37.35 79.757L73.0305 59.158C73.4903 58.8918 73.8678 59.1096 73.8678 59.642V59.9808C73.851 60.2713 73.7665 60.5539 73.6211 60.806C73.4758 61.0581 73.2735 61.2727 73.0305 61.4328L37.35 82.0318C36.866 82.3029 36.5127 82.0851 36.5127 81.5478V81.2139C36.5288 80.9225 36.6129 80.639 36.7583 80.386C36.9037 80.133 37.1064 79.9176 37.35 79.757Z" fill="#E0E0E0"/>
<path d="M37.35 85.4198L73.0305 64.8208C73.4903 64.5498 73.8678 64.7676 73.8678 65.3048V65.6388C73.8514 65.9294 73.767 66.2121 73.6216 66.4642C73.4762 66.7164 73.2738 66.931 73.0305 67.0908L37.35 87.6995C36.866 87.9657 36.5127 87.7479 36.5127 87.2155V86.8718C36.5284 86.5811 36.6124 86.2981 36.7579 86.0458C36.9034 85.7935 37.1062 85.5791 37.35 85.4198Z" fill="#E0E0E0"/>
<path d="M37.35 91.0972L73.0305 70.4981C73.4903 70.2319 73.8678 70.4497 73.8678 70.9821V71.3161C73.8514 71.6067 73.767 71.8894 73.6216 72.1415C73.4762 72.3937 73.2738 72.6083 73.0305 72.7681L37.35 93.3671C36.866 93.6333 36.5127 93.4155 36.5127 92.8831V92.5492C36.5284 92.2584 36.6124 91.9754 36.7579 91.7231C36.9034 91.4709 37.1062 91.2564 37.35 91.0972Z" fill="#E0E0E0"/>
<path d="M37.35 96.789L73.0305 76.19C73.4903 75.9238 73.8678 76.1416 73.8678 76.674V77.0079C73.8521 77.2987 73.7681 77.5817 73.6227 77.834C73.4772 78.0862 73.2743 78.3007 73.0305 78.4599L37.35 99.059C36.866 99.33 36.5127 99.1122 36.5127 98.575V98.241C36.5295 97.9505 36.614 97.6679 36.7594 97.4158C36.9048 97.1637 37.107 96.9491 37.35 96.789Z" fill="#E0E0E0"/>
<path d="M37.35 102.461L73.0305 81.8624C73.4903 81.5914 73.8678 81.8092 73.8678 82.3464V82.6804C73.851 82.9709 73.7665 83.2535 73.6211 83.5056C73.4758 83.7577 73.2735 83.9723 73.0305 84.1324L37.35 104.731C36.866 104.998 36.5127 104.78 36.5127 104.247V103.913C36.5284 103.623 36.6124 103.34 36.7579 103.087C36.9034 102.835 37.1062 102.621 37.35 102.461Z" fill="#E0E0E0"/>
<path d="M37.35 108.129L73.0305 87.5301C73.4903 87.2639 73.8678 87.4768 73.8678 88.0141V88.348C73.8514 88.6386 73.767 88.9214 73.6216 89.1735C73.4762 89.4257 73.2738 89.6402 73.0305 89.8L37.35 110.399C36.866 110.665 36.5127 110.447 36.5127 109.915V109.581C36.5284 109.29 36.6124 109.007 36.7579 108.755C36.9034 108.503 37.1062 108.288 37.35 108.129Z" fill="#E0E0E0"/>
<path d="M36.7353 40.5385L53.9415 30.6068V50.4702L36.7353 60.4067V40.5385Z" fill="black"/>
<path d="M39.3151 42.5278V48.4858L39.8571 48.1664V46.3368C39.9128 45.7432 40.1075 45.171 40.4253 44.6665C40.7431 44.162 41.1752 43.7394 41.6867 43.4328L44.2325 41.9808V50.838C44.2228 51.4344 44.0732 52.0201 43.7958 52.548C43.5184 53.0759 43.1209 53.5313 42.6353 53.8776L41.0381 54.802V55.436L49.6388 50.4654V49.8362L48.0416 50.7558C47.1607 51.2688 46.4444 50.7558 46.4444 49.5603V40.7031L48.9854 39.2511C50.0018 38.6654 50.8197 39.0091 50.8197 40.0158V41.8405L51.3618 41.5404V35.5678L39.3151 42.5278Z" fill="#FAFAFA"/>
<path d="M44.097 127.044C43.8318 126.864 43.6126 126.625 43.4571 126.345C43.3015 126.065 43.214 125.752 43.2016 125.432V45.4221C43.2207 45.09 43.3185 44.7672 43.4868 44.4803C43.6551 44.1933 43.8891 43.9504 44.1696 43.7716L91.4177 16.5224C91.6926 16.3498 92.0094 16.2553 92.3341 16.2492C92.6587 16.2432 92.9788 16.3257 93.2601 16.488C93.5413 16.6502 93.773 16.8861 93.9302 17.1702C94.0874 17.4543 94.1642 17.7758 94.1523 18.1003V98.0861C94.1324 98.418 94.0343 98.7406 93.8661 99.0274C93.6979 99.3142 93.4642 99.5572 93.1843 99.7366L45.9362 126.986C45.6558 127.139 45.3431 127.225 45.0235 127.235C44.704 127.245 44.3865 127.179 44.097 127.044Z" fill="#FAFAFA"/>
<path d="M45.941 126.986L93.1891 99.7366C93.4691 99.5572 93.7027 99.3142 93.8709 99.0274C94.0391 98.7405 94.1372 98.418 94.1571 98.0861V18.1003C94.1571 17.4953 93.7312 17.2484 93.1891 17.5534L45.9362 44.8026C45.6568 44.9815 45.4236 45.2237 45.2554 45.5096C45.0873 45.7955 44.9888 46.1171 44.9682 46.4482V126.434C44.9875 127.044 45.4135 127.291 45.941 126.986Z" fill="#F5F5F5"/>
<path d="M45.82 127.044C45.5439 127.191 45.234 127.262 44.9215 127.251C44.609 127.239 44.3051 127.146 44.0404 126.979C43.7757 126.813 43.5596 126.579 43.4141 126.303C43.2685 126.026 43.1985 125.716 43.2113 125.403V45.4221C43.223 45.0909 43.3179 44.768 43.4871 44.4831L45.2731 45.514C45.1013 45.7964 45.0047 46.1179 44.9924 46.4482V126.439C44.9875 126.995 45.336 127.247 45.82 127.044Z" fill="#EBEBEB"/>
<path d="M71.1574 36.4294L86.7955 27.3786C87.2795 27.1124 87.6328 27.3302 87.6328 27.8626V28.1965C87.6171 28.4873 87.5331 28.7703 87.3876 29.0226C87.2421 29.2748 87.0393 29.4893 86.7955 29.6485L71.1574 38.6993C70.6734 38.9655 70.3153 38.7526 70.3153 38.2153V37.8814C70.3315 37.5901 70.4163 37.3069 70.5626 37.0546C70.7089 36.8023 70.9127 36.5881 71.1574 36.4294Z" fill="#E0E0E0"/>
<path d="M71.1574 42.097L86.7955 33.051C87.2795 32.78 87.6328 32.9978 87.6328 33.535V33.869C87.6159 34.1595 87.5315 34.4421 87.3861 34.6942C87.2407 34.9463 87.0385 35.1609 86.7955 35.321L71.1574 44.367C70.6734 44.638 70.3153 44.4202 70.3153 43.883V43.549C70.3323 43.258 70.4173 42.975 70.5636 42.7228C70.7099 42.4706 70.9133 42.2563 71.1574 42.097Z" fill="#E0E0E0"/>
<path d="M71.1574 47.7695L86.7955 38.7187C87.2795 38.4525 87.6328 38.6654 87.6328 39.2027V39.5366C87.6163 39.8273 87.532 40.11 87.3866 40.3621C87.2412 40.6143 87.0387 40.8288 86.7955 40.9886L71.1574 50.0394C70.6734 50.3056 70.3153 50.0878 70.3153 49.5554V49.2215C70.3311 48.9302 70.4157 48.6468 70.5621 48.3944C70.7084 48.1421 70.9125 47.9279 71.1574 47.7695Z" fill="#E0E0E0"/>
<path d="M71.1574 53.4371L86.7955 44.3863C87.2795 44.1201 87.6328 44.3379 87.6328 44.8703V45.2043C87.6171 45.4951 87.5331 45.7781 87.3876 46.0303C87.2421 46.2826 87.0393 46.497 86.7955 46.6563L71.1574 55.7071C70.6734 55.9733 70.3153 55.7555 70.3153 55.2231V54.8891C70.3311 54.5978 70.4157 54.3144 70.5621 54.062C70.7084 53.8097 70.9125 53.5955 71.1574 53.4371Z" fill="#E0E0E0"/>
<path d="M51.115 70.653L86.7955 50.054C87.2795 49.7878 87.6328 50.0056 87.6328 50.538V50.8719C87.6171 51.1627 87.5331 51.4457 87.3876 51.698C87.2421 51.9502 87.0393 52.1647 86.7955 52.3239L51.115 72.923C50.631 73.1892 50.2777 72.9762 50.2777 72.439V72.105C50.2941 71.8144 50.3784 71.5317 50.5238 71.2795C50.6693 71.0274 50.8717 70.8128 51.115 70.653Z" fill="#E0E0E0"/>
<path d="M51.115 76.3642L86.7955 55.7652C87.2795 55.499 87.6328 55.7168 87.6328 56.2492V56.5831C87.6171 56.8739 87.5331 57.1569 87.3876 57.4092C87.2421 57.6614 87.0393 57.8759 86.7955 58.0351L51.115 78.6438C50.631 78.91 50.2777 78.6971 50.2777 78.1598V77.8259C50.2926 77.5336 50.3763 77.249 50.5217 76.995C50.6672 76.7411 50.8704 76.525 51.115 76.3642Z" fill="#E0E0E0"/>
<path d="M51.115 82.0318L86.7955 61.4328C87.2795 61.1666 87.6328 61.3844 87.6328 61.9168V62.2508C87.6171 62.5415 87.5331 62.8245 87.3876 63.0768C87.2421 63.3291 87.0393 63.5435 86.7955 63.7028L51.115 84.3018C50.631 84.5728 50.2777 84.355 50.2777 83.8178V83.4838C50.2945 83.1933 50.379 82.9108 50.5243 82.6587C50.6697 82.4066 50.872 82.1919 51.115 82.0318Z" fill="#E0E0E0"/>
<path d="M51.115 87.7043L86.7955 67.1053C87.2795 66.8342 87.6328 67.052 87.6328 67.5893V67.9232C87.6159 68.2138 87.5315 68.4963 87.3861 68.7484C87.2407 69.0005 87.0385 69.2152 86.7955 69.3753L51.115 89.9743C50.631 90.2405 50.2777 90.0227 50.2777 89.4903V89.1563C50.2934 88.8655 50.3774 88.5826 50.5228 88.3303C50.6683 88.078 50.8712 87.8636 51.115 87.7043Z" fill="#E0E0E0"/>
<path d="M51.115 93.372L86.7955 72.7729C87.2795 72.5067 87.6328 72.7197 87.6328 73.2569V73.5909C87.6163 73.8815 87.532 74.1642 87.3866 74.4163C87.2412 74.6685 87.0387 74.8831 86.7955 75.0429L51.115 95.6419C50.631 95.9081 50.2777 95.6903 50.2777 95.1579V94.824C50.2934 94.5332 50.3774 94.2502 50.5228 93.9979C50.6683 93.7457 50.8712 93.5312 51.115 93.372Z" fill="#E0E0E0"/>
<path d="M51.115 99.0396L86.7955 78.4406C87.2795 78.1744 87.6328 78.3922 87.6328 78.9246V79.2585C87.6171 79.5493 87.5331 79.8323 87.3876 80.0846C87.2421 80.3368 87.0393 80.5513 86.7955 80.7105L51.115 101.31C50.631 101.576 50.2777 101.363 50.2777 100.826V100.492C50.2941 100.201 50.3784 99.9183 50.5238 99.6662C50.6693 99.414 50.8717 99.1994 51.115 99.0396Z" fill="#E0E0E0"/>
<path d="M51.115 104.731L86.7955 84.1324C87.2795 83.8662 87.6328 84.084 87.6328 84.6164V84.9552C87.6159 85.2457 87.5315 85.5283 87.3861 85.7804C87.2407 86.0325 87.0385 86.2471 86.7955 86.4072L51.115 107.001C50.631 107.272 50.2777 107.055 50.2777 106.517V106.183C50.2945 105.893 50.379 105.61 50.5243 105.358C50.6697 105.106 50.872 104.892 51.115 104.731Z" fill="#E0E0E0"/>
<path d="M51.115 110.404L86.7955 89.8049C87.2795 89.5387 87.6328 89.7516 87.6328 90.2889V90.6228C87.6163 90.9134 87.532 91.1962 87.3866 91.4483C87.2412 91.7005 87.0387 91.915 86.7955 92.0748L51.115 112.674C50.631 112.94 50.2777 112.722 50.2777 112.19V111.856C50.2934 111.565 50.3774 111.282 50.5228 111.03C50.6683 110.778 50.8712 110.563 51.115 110.404Z" fill="#E0E0E0"/>
<path d="M51.115 116.072L86.7955 95.4725C87.2795 95.2063 87.6328 95.4241 87.6328 95.9565V96.2905C87.6163 96.5811 87.532 96.8638 87.3866 97.1159C87.2412 97.3681 87.0387 97.5827 86.7955 97.7425L51.115 118.332C50.631 118.598 50.2777 118.38 50.2777 117.848V117.514C50.2949 117.225 50.3796 116.944 50.525 116.693C50.6704 116.443 50.8724 116.23 51.115 116.072Z" fill="#E0E0E0"/>
<path d="M50.5003 48.481L67.7065 38.5493V58.4175L50.5003 68.3492V48.481Z" fill="#7E57C2"/>
<path d="M53.08 50.4702V56.4282L53.6221 56.1088V54.2793C53.6779 53.6851 53.8732 53.1124 54.1919 52.6078C54.5106 52.1033 54.9439 51.681 55.4565 51.3753L57.9975 49.9233V58.7998C57.9878 59.3962 57.8382 59.9818 57.5608 60.5098C57.2834 61.0377 56.8859 61.4931 56.4003 61.8394L54.8031 62.7638V63.3978L63.4037 58.432V57.7834L61.8065 58.7079C60.9257 59.2161 60.2093 58.6788 60.2093 57.5124V48.6358L62.7503 47.1838C63.7667 46.5982 64.5847 46.9418 64.5847 47.9486V49.7781L65.1268 49.4732V43.5151L53.08 50.4702Z" fill="#FAFAFA"/>
<path d="M73.2241 140.896L107.051 160.425L159.676 130.045L125.845 110.515L73.2241 140.896Z" fill="#263238"/>
<path d="M107.056 160.44L73.2241 140.91V144.09C73.2443 144.438 73.3454 144.776 73.5193 145.078C73.6932 145.379 73.9352 145.636 74.226 145.828L78.8627 148.504V146.331L99.544 158.252V160.44L106.063 164.201C106.368 164.376 106.714 164.469 107.065 164.469C107.417 164.469 107.763 164.376 108.067 164.201L107.065 163.62L107.056 160.44Z" fill="#37474F"/>
<path d="M159.671 130.045V133.229C159.653 133.576 159.553 133.914 159.38 134.215C159.207 134.516 158.965 134.772 158.674 134.962L154.038 137.639V135.47L114.572 158.252V160.44L108.058 164.201C107.501 164.52 107.056 164.259 107.056 163.62L107.056 160.44L159.671 130.045Z" fill="#455A64"/>
<path d="M78.8627 148.49L80.7455 147.406L78.8627 146.317V148.49Z" fill="#263238"/>
<path d="M154.038 137.639L152.155 136.554L154.038 135.47V137.639Z" fill="#37474F"/>
<path d="M158.655 129.169C158.959 128.969 159.212 128.701 159.394 128.386C159.575 128.07 159.68 127.717 159.7 127.354V105.864L126.28 86.5669L117.452 91.6731V114.373L150.848 133.67L158.655 129.169Z" fill="#7E57C2"/>
<path d="M158.655 129.169C158.959 128.969 159.212 128.701 159.394 128.386C159.575 128.07 159.68 127.717 159.7 127.354V105.864L126.28 86.5669L117.452 91.6731V114.373L150.848 133.67L158.655 129.169Z" fill="white"/>
<path d="M117.438 91.6731V114.373L150.858 133.67V110.97L117.438 91.6731Z" fill="#7E57C2"/>
<path d="M117.438 91.6731V114.373L150.858 133.67V110.97L117.438 91.6731Z" fill="black"/>
<path d="M117.438 91.6731L126.28 86.5669L159.7 105.864L150.858 110.97L117.438 91.6731Z" fill="#7E57C2"/>
<path d="M117.438 91.6731L126.28 86.5669L159.7 105.864L150.858 110.97L117.438 91.6731Z" fill="black"/>
<path d="M77.13 141.051L98.7551 153.538V148.998L77.13 136.511V141.051Z" fill="#7E57C2"/>
<path d="M77.13 141.051L98.7551 153.538V148.998L77.13 136.511V141.051Z" fill="black"/>
<path d="M107.666 158.605L148.806 134.846C149.11 134.646 149.363 134.378 149.544 134.063C149.726 133.748 149.831 133.394 149.851 133.031V127.431L116.431 108.134L73.1805 133.104V138.708C73.2003 139.072 73.3057 139.426 73.4882 139.742C73.6707 140.057 73.9252 140.325 74.2308 140.523L77.1348 142.188V138.8L98.7599 151.287V154.675L105.575 158.61C105.899 158.776 106.257 158.861 106.621 158.861C106.984 158.86 107.342 158.772 107.666 158.605Z" fill="#7E57C2"/>
<path d="M107.666 158.605L148.806 134.846C149.11 134.646 149.363 134.378 149.544 134.063C149.726 133.748 149.831 133.394 149.851 133.031V127.431L116.431 108.134L73.1805 133.104V138.708C73.2003 139.072 73.3057 139.426 73.4882 139.742C73.6707 140.057 73.9252 140.325 74.2308 140.523L77.1348 142.188V138.8L98.7599 151.287V154.675L105.575 158.61C105.899 158.776 106.257 158.861 106.621 158.861C106.984 158.86 107.342 158.772 107.666 158.605Z" fill="white"/>
<path d="M106.62 152.401L149.87 127.431L116.45 108.134L73.1951 133.104L106.62 152.401Z" fill="#7E57C2"/>
<path d="M106.62 152.401L149.87 127.431L116.45 108.134L73.1951 133.104L106.62 152.401Z" fill="black"/>
<path d="M149.88 127.431V134.241L107.675 158.605C107.099 158.939 106.63 158.668 106.63 158V152.401L149.88 127.431Z" fill="#7E57C2"/>
<path d="M149.88 127.431V134.241L107.675 158.605C107.099 158.939 106.63 158.668 106.63 158V152.401L149.88 127.431Z" fill="white"/>
<path d="M77.13 142.188L78.1125 141.617V139.347L77.13 138.781V142.188Z" fill="#7E57C2"/>
<path d="M77.13 142.188L78.1125 141.617V139.347L77.13 138.781V142.188Z" fill="black"/>
<path d="M111.533 151.834C112.08 151.52 112.501 151.776 112.501 152.401C112.484 152.741 112.388 153.072 112.22 153.368C112.051 153.664 111.816 153.916 111.533 154.104C110.986 154.419 110.565 154.162 110.565 153.538C110.581 153.198 110.678 152.867 110.846 152.571C111.014 152.275 111.249 152.023 111.533 151.834Z" fill="#455A64"/>
<path d="M145.94 131.971V133.104C145.94 133.733 145.001 134.783 143.845 135.451L118.546 150.058C117.389 150.726 116.45 150.76 116.45 150.131V148.998L145.94 131.971Z" fill="#455A64"/>
<path d="M107.666 150.663L148.806 126.899C149.112 126.705 149.369 126.442 149.555 126.131C149.742 125.82 149.853 125.469 149.88 125.108V119.484L116.46 100.187L73.2096 125.161V130.761C73.2293 131.125 73.3348 131.479 73.5173 131.794C73.6998 132.11 73.9542 132.378 74.2599 132.576L105.584 150.663C105.907 150.825 106.264 150.91 106.625 150.91C106.986 150.91 107.343 150.825 107.666 150.663Z" fill="#7E57C2"/>
<path d="M107.666 150.663L148.806 126.899C149.112 126.705 149.369 126.442 149.555 126.131C149.742 125.82 149.853 125.469 149.88 125.108V119.484L116.46 100.187L73.2096 125.161V130.761C73.2293 131.125 73.3348 131.479 73.5173 131.794C73.6998 132.11 73.9542 132.378 74.2599 132.576L105.584 150.663C105.907 150.825 106.264 150.91 106.625 150.91C106.986 150.91 107.343 150.825 107.666 150.663Z" fill="white"/>
<path d="M106.62 144.458L149.87 119.484L116.45 100.187L73.1951 125.161L106.62 144.458Z" fill="#7E57C2"/>
<path d="M106.62 144.458L149.87 119.484L116.45 100.187L73.1951 125.161L106.62 144.458Z" fill="black"/>
<path d="M149.88 119.484V126.294L107.675 150.663C107.099 150.997 106.63 150.721 106.63 150.058V144.468L149.88 119.484Z" fill="#7E57C2"/>
<path d="M149.88 119.484V126.294L107.675 150.663C107.099 150.997 106.63 150.721 106.63 150.058V144.468L149.88 119.484Z" fill="white"/>
<path d="M111.533 143.887C112.08 143.577 112.501 143.829 112.501 144.458C112.484 144.797 112.388 145.128 112.22 145.423C112.051 145.718 111.816 145.97 111.533 146.157C110.986 146.472 110.565 146.22 110.565 145.591C110.582 145.251 110.679 144.92 110.847 144.624C111.015 144.328 111.25 144.076 111.533 143.887Z" fill="#455A64"/>
<path d="M145.94 124.024V125.161C145.94 125.785 145.001 126.836 143.845 127.504L118.546 142.111C117.389 142.779 116.45 142.813 116.45 142.188V141.051L145.94 124.024Z" fill="#455A64"/>
<path d="M107.666 142.716L148.806 118.956C149.11 118.757 149.363 118.488 149.544 118.173C149.726 117.858 149.831 117.504 149.851 117.141V111.556L116.45 92.2442L73.1999 117.214V122.814C73.2197 123.178 73.3251 123.532 73.5076 123.847C73.6901 124.162 73.9445 124.43 74.2502 124.629L105.575 142.716C105.899 142.88 106.257 142.965 106.62 142.965C106.983 142.965 107.341 142.88 107.666 142.716Z" fill="#7E57C2"/>
<path d="M107.666 142.716L148.806 118.956C149.11 118.757 149.363 118.488 149.544 118.173C149.726 117.858 149.831 117.504 149.851 117.141V111.556L116.45 92.2442L73.1999 117.214V122.814C73.2197 123.178 73.3251 123.532 73.5076 123.847C73.6901 124.162 73.9445 124.43 74.2502 124.629L105.575 142.716C105.899 142.88 106.257 142.965 106.62 142.965C106.983 142.965 107.341 142.88 107.666 142.716Z" fill="white"/>
<path d="M106.62 136.511L149.87 111.541L116.45 92.2442L73.1951 117.214L106.62 136.511Z" fill="#7E57C2"/>
<path d="M106.62 136.511L149.87 111.541L116.45 92.2442L73.1951 117.214L106.62 136.511Z" fill="black"/>
<path d="M149.88 111.556V118.332L107.675 142.696C107.099 143.03 106.63 142.759 106.63 142.091V136.511L149.88 111.556Z" fill="#7E57C2"/>
<path d="M149.88 111.556V118.332L107.675 142.696C107.099 143.03 106.63 142.759 106.63 142.091V136.511L149.88 111.556Z" fill="white"/>
<path d="M111.533 135.945C112.08 135.63 112.501 135.887 112.501 136.511C112.484 136.851 112.388 137.182 112.22 137.478C112.051 137.774 111.816 138.026 111.533 138.215C110.986 138.529 110.565 138.273 110.565 137.648C110.581 137.308 110.678 136.977 110.846 136.681C111.014 136.385 111.249 136.133 111.533 135.945Z" fill="#455A64"/>
<path d="M145.94 116.081V117.214C145.94 117.843 145.001 118.893 143.845 119.561L118.546 134.163C117.389 134.836 116.45 134.865 116.45 134.241V133.104L145.94 116.081Z" fill="#455A64"/>
<path d="M106.62 135.373L159.7 104.727V79.757L126.28 60.46L73.1951 91.1068V116.081L106.62 135.373Z" fill="#7E57C2"/>
<path d="M106.62 135.373L159.7 104.727V79.757L126.28 60.46L73.1951 91.1068V116.081L106.62 135.373Z" fill="white"/>
<path d="M159.7 79.757L106.62 110.404L73.1951 91.1068L126.28 60.46L159.7 79.757Z" fill="#263238"/>
<path d="M106.62 119.484V135.373L73.1951 116.081V100.187L106.62 119.484Z" fill="#7E57C2"/>
<path d="M106.62 119.484V135.373L73.1951 116.081V100.187L106.62 119.484Z" fill="white"/>
<path d="M73.1951 91.1068V100.187L106.62 119.484V110.404L73.1951 91.1068Z" fill="#37474F"/>
<path d="M106.62 110.404L153.805 83.1596V89.9743C153.803 90.6615 153.62 91.336 153.275 91.9305C152.93 92.525 152.435 93.0187 151.84 93.3623L106.62 119.469V110.404Z" fill="#455A64"/>
<path d="M151.84 89.9743C151.84 89.3451 151.4 89.0934 150.872 89.4032C150.589 89.5921 150.354 89.8445 150.186 90.1403C150.018 90.4361 149.922 90.7671 149.904 91.1068C149.904 91.736 150.345 91.9877 150.872 91.6731C151.156 91.4858 151.391 91.2344 151.559 90.9393C151.727 90.6442 151.824 90.3136 151.84 89.9743Z" fill="#FAFAFA"/>
<path d="M146.86 91.7118L141.091 95.0418C140.791 95.229 140.539 95.4844 140.357 95.7872C140.174 96.09 140.066 96.4316 140.04 96.7842C140.04 97.4085 140.524 97.6457 141.091 97.3117L146.86 93.9818C147.158 93.7942 147.408 93.5392 147.589 93.2374C147.771 92.9357 147.879 92.5955 147.905 92.2442C147.905 91.6151 147.46 91.3779 146.86 91.7118Z" fill="#FAFAFA"/>
<path d="M159.7 75.2171V78.6051L153.805 81.9931V78.6051C153.804 75.1536 152.895 71.7632 151.168 68.7744C149.442 65.7857 146.959 63.3038 143.97 61.578L120.38 47.9582L126.28 44.5702L149.88 58.1852C152.867 59.9128 155.348 62.3962 157.071 65.3858C158.795 68.3755 159.702 71.7661 159.7 75.2171Z" fill="#7E57C2"/>
<path d="M159.7 75.2171V78.6051L153.805 81.9931V78.6051C153.804 75.1536 152.895 71.7632 151.168 68.7744C149.442 65.7857 146.959 63.3038 143.97 61.578L120.38 47.9582L126.28 44.5702L149.88 58.1852C152.867 59.9128 155.348 62.3962 157.071 65.3858C158.795 68.3755 159.702 71.7661 159.7 75.2171Z" fill="white"/>
<path d="M106.62 105.864V109.252L73.1951 89.9598V75.2171L96.7901 88.8369C99.7786 90.5629 102.26 93.045 103.986 96.0338C105.711 99.0226 106.62 102.413 106.62 105.864Z" fill="#37474F"/>
<path d="M153.805 78.6438V82.0318L106.62 109.271V105.883C106.62 102.431 105.711 99.0396 103.984 96.0499C102.258 93.0602 99.775 90.5776 96.7852 88.8514L73.1951 75.2316L120.38 47.9921L143.97 61.6119C146.96 63.3381 149.443 65.8207 151.169 68.8104C152.896 71.8001 153.805 75.1915 153.805 78.6438Z" fill="#455A64"/>
<path d="M81.0601 133.104V116.081L82.0426 115.51L95.8075 123.457V140.485L94.825 141.051L81.0601 133.104Z" fill="#7E57C2"/>
<path d="M81.0601 133.104V116.081L82.0426 115.51L95.8075 123.457V140.485L94.825 141.051L81.0601 133.104Z" fill="black"/>
<path d="M81.0601 133.104V116.081L94.825 124.024V141.051L81.0601 133.104Z" fill="#7E57C2"/>
<path d="M81.0601 133.104V116.081L94.825 124.024V141.051L81.0601 133.104Z" fill="white"/>
<path d="M82.0426 115.51L81.0601 116.081L94.825 124.024L95.8075 123.457L82.0426 115.51Z" fill="#7E57C2"/>
<path d="M82.0426 115.51L81.0601 116.081L94.825 124.024L95.8075 123.457L82.0426 115.51Z" fill="white"/>
<path d="M135.994 62.8074C135.989 62.7174 135.958 62.6307 135.906 62.5572C135.854 62.4836 135.782 62.4261 135.699 62.3911L121.45 54.1631C121.226 54.0453 120.977 53.9837 120.724 53.9837C120.471 53.9837 120.222 54.0453 119.998 54.1631L99.031 66.2631C98.9486 66.2977 98.8774 66.3545 98.8253 66.4271C98.7732 66.4998 98.7422 66.5854 98.7357 66.6745V67.3279C98.743 67.4162 98.7744 67.5008 98.8265 67.5725C98.8785 67.6442 98.9493 67.7002 99.031 67.7345L113.28 75.9625C113.505 76.078 113.753 76.1382 114.006 76.1382C114.258 76.1382 114.507 76.078 114.732 75.9625L135.699 63.8625C135.78 63.8257 135.85 63.7684 135.901 63.6962C135.953 63.624 135.985 63.5395 135.994 63.4511V62.8074Z" fill="#EBEBEB"/>
<path d="M99.06 66.2728L120.027 54.1728C120.251 54.055 120.5 53.9934 120.753 53.9934C121.006 53.9934 121.255 54.055 121.479 54.1728L135.728 62.4008C135.815 62.4295 135.891 62.4849 135.945 62.5592C135.998 62.6335 136.027 62.7229 136.027 62.8146C136.027 62.9064 135.998 62.9958 135.945 63.0701C135.891 63.1444 135.815 63.1998 135.728 63.2284L114.761 75.3284C114.536 75.4439 114.288 75.5042 114.035 75.5042C113.782 75.5042 113.534 75.4439 113.309 75.3284L99.06 67.1004C98.9751 67.0695 98.9018 67.0132 98.85 66.9392C98.7982 66.8652 98.7704 66.777 98.7704 66.6866C98.7704 66.5963 98.7982 66.5081 98.85 66.4341C98.9018 66.36 98.9751 66.3037 99.06 66.2728Z" fill="white"/>
<path d="M114.016 75.493V76.1416C113.766 76.1461 113.519 76.0861 113.299 75.9673L99.0552 67.7393C98.973 67.7024 98.902 67.6445 98.8494 67.5714C98.7967 67.4984 98.7642 67.4127 98.7551 67.3231V66.6745C98.762 66.7642 98.7937 66.8502 98.8467 66.9229C98.8997 66.9956 98.9719 67.052 99.0552 67.0859L113.299 75.3139C113.519 75.4343 113.765 75.496 114.016 75.493Z" fill="#7E57C2"/>
<path d="M135.994 61.7958C135.989 61.7058 135.958 61.6192 135.906 61.5456C135.854 61.4721 135.782 61.4146 135.699 61.3796L121.45 53.1516C121.225 53.0361 120.976 52.9758 120.724 52.9758C120.471 52.9758 120.222 53.0361 119.998 53.1516L99.031 65.2516C98.9486 65.2862 98.8774 65.343 98.8253 65.4156C98.7732 65.4882 98.7422 65.5738 98.7357 65.663V66.3164C98.7447 66.4048 98.7767 66.4893 98.8285 66.5615C98.8803 66.6337 98.9501 66.691 99.031 66.7278L113.28 74.9558C113.505 75.0713 113.753 75.1315 114.006 75.1315C114.258 75.1315 114.507 75.0713 114.732 74.9558L135.699 62.8558C135.781 62.8215 135.851 62.7655 135.903 62.6938C135.955 62.6221 135.987 62.5375 135.994 62.4492V61.7958Z" fill="#EBEBEB"/>
<path d="M99.06 65.2612L120.027 53.1612C120.251 53.0458 120.5 52.9855 120.753 52.9855C121.005 52.9855 121.254 53.0458 121.479 53.1612L135.728 61.3892C136.125 61.6216 136.125 61.9894 135.728 62.2169L114.761 74.3169C114.537 74.4347 114.288 74.4963 114.035 74.4963C113.782 74.4963 113.533 74.4347 113.309 74.3169L99.06 66.0889C98.9751 66.0579 98.9018 66.0016 98.85 65.9276C98.7982 65.8536 98.7704 65.7654 98.7704 65.6751C98.7704 65.5847 98.7982 65.4965 98.85 65.4225C98.9018 65.3485 98.9751 65.2922 99.06 65.2612Z" fill="white"/>
<path d="M114.016 74.4863V75.13C113.766 75.136 113.52 75.0777 113.299 74.9606L99.06 66.7374C98.9785 66.7009 98.908 66.6438 98.8553 66.5716C98.8027 66.4995 98.7698 66.4148 98.7599 66.326V65.6726C98.7659 65.7632 98.7972 65.8502 98.8503 65.9238C98.9033 65.9974 98.976 66.0546 99.06 66.0889L113.304 74.3169C113.523 74.4331 113.768 74.4915 114.016 74.4863Z" fill="#7E57C2"/>
<path d="M79.095 74.0797L100.72 86.5669L126.28 71.8098V64.9999L104.655 52.5078L84.995 63.8625C83.2012 64.8965 81.7114 66.3848 80.6756 68.1776C79.6399 69.9704 79.0947 72.0044 79.095 74.0749V74.0797Z" fill="#455A64"/>
<path d="M126.28 64.9999L106.62 76.3497C104.827 77.3856 103.338 78.875 102.302 80.6684C101.267 82.4617 100.721 84.496 100.72 86.5669L126.28 71.8098V64.9999Z" fill="#263238"/>
<path d="M102.303 80.667C101.265 82.4582 100.719 84.4919 100.72 86.5621L79.095 74.0749C79.0942 72.006 79.6366 69.9732 80.668 68.1798L102.303 80.667Z" fill="#37474F"/>
<path d="M88.9251 66.1373L104.655 57.0526L116.45 63.8673L100.72 72.9472L88.9251 66.1373Z" fill="#37474F"/>
<path d="M89.9076 66.7036L100.72 72.9472L115.468 64.4336L104.655 58.19L89.9076 66.7036Z" fill="#7E57C2"/>
<path d="M104.655 57.0526L104.655 58.19L89.9076 66.7036L88.9251 66.1373L104.655 57.0526Z" fill="#263238"/>
<path d="M100.556 71.137L100.072 70.8466C99.9119 70.7546 99.9119 70.6094 100.072 70.5175L101.64 69.6076C101.729 69.5621 101.828 69.5384 101.928 69.5384C102.028 69.5384 102.127 69.5621 102.216 69.6076L102.7 69.898C102.859 69.9899 102.859 70.1351 102.7 70.2271L101.127 71.137C101.038 71.1799 100.94 71.2022 100.841 71.2022C100.742 71.2022 100.645 71.1799 100.556 71.137Z" fill="black"/>
<path d="M103.774 69.2784L103.29 68.988C103.256 68.9762 103.226 68.9539 103.205 68.9244C103.184 68.895 103.173 68.8597 103.173 68.8235C103.173 68.7873 103.184 68.752 103.205 68.7225C103.226 68.6931 103.256 68.6708 103.29 68.6589L104.863 67.749C104.952 67.7061 105.05 67.6838 105.149 67.6838C105.248 67.6838 105.345 67.7061 105.434 67.749L105.918 68.0394C105.952 68.0513 105.982 68.0735 106.003 68.103C106.024 68.1325 106.035 68.1678 106.035 68.204C106.035 68.2401 106.024 68.2754 106.003 68.3049C105.982 68.3344 105.952 68.3566 105.918 68.3685L104.345 69.2784C104.257 69.3239 104.159 69.3476 104.06 69.3476C103.96 69.3476 103.863 69.3239 103.774 69.2784Z" fill="black"/>
<path d="M106.988 67.4199L106.504 67.1343C106.468 67.1236 106.436 67.1016 106.414 67.0715C106.392 67.0414 106.379 67.0049 106.379 66.9673C106.379 66.9298 106.392 66.8933 106.414 66.8632C106.436 66.8331 106.468 66.8111 106.504 66.8004L108.077 65.8953C108.165 65.8499 108.263 65.8262 108.363 65.8262C108.462 65.8262 108.56 65.8499 108.648 65.8953L109.132 66.1808C109.168 66.1916 109.2 66.2136 109.222 66.2437C109.244 66.2738 109.257 66.3103 109.257 66.3478C109.257 66.3853 109.244 66.4219 109.222 66.452C109.2 66.482 109.168 66.5041 109.132 66.5148L107.559 67.4199C107.471 67.4653 107.373 67.489 107.274 67.489C107.174 67.489 107.076 67.4653 106.988 67.4199Z" fill="black"/>
<path d="M110.192 65.5758L109.708 65.2854C109.674 65.2736 109.644 65.2513 109.623 65.2218C109.602 65.1923 109.591 65.1571 109.591 65.1209C109.591 65.0847 109.602 65.0494 109.623 65.0199C109.644 64.9904 109.674 64.9682 109.708 64.9563L111.281 64.0464C111.369 64.001 111.467 63.9773 111.567 63.9773C111.666 63.9773 111.764 64.001 111.852 64.0464L112.336 64.3368C112.37 64.3487 112.4 64.3709 112.421 64.4004C112.442 64.4299 112.453 64.4652 112.453 64.5014C112.453 64.5375 112.442 64.5728 112.421 64.6023C112.4 64.6318 112.37 64.654 112.336 64.6659L110.778 65.5758C110.687 65.621 110.586 65.6446 110.485 65.6446C110.383 65.6446 110.283 65.621 110.192 65.5758Z" fill="black"/>
<path d="M94.704 66.4616C95.0413 66.2949 95.3949 66.1636 95.7591 66.0695L95.9528 66.3309L95.4058 66.447C95.2365 66.4746 95.0729 66.5302 94.9218 66.6116C94.4378 66.902 94.6411 67.3328 95.5413 67.8506C96.4416 68.3685 97.1918 68.4992 97.6855 68.2088C97.8038 68.1453 97.9064 68.056 97.9855 67.9474L98.1695 67.6232L98.6535 67.7393C98.4606 67.9733 98.2338 68.1772 97.9807 68.3443L97.8984 68.3927C97.4306 68.6148 96.9144 68.7152 96.3975 68.6847C95.8806 68.6543 95.3797 68.4939 94.9412 68.2185C93.9732 67.6474 93.8377 66.9649 94.6314 66.5051L94.704 66.4616Z" fill="black"/>
<path d="M100.42 65.0289C101.388 65.6 101.509 66.2922 100.686 66.7713C100.212 67.0018 99.6875 67.1084 99.1611 67.0813C98.6347 67.0542 98.1237 66.8943 97.6758 66.6164C96.7078 66.0502 96.5916 65.358 97.4193 64.8837C97.8908 64.6518 98.4135 64.5435 98.9384 64.5689C99.4633 64.5943 99.9731 64.7526 100.42 65.0289ZM98.2856 66.268C99.181 66.7858 99.9651 66.8826 100.531 66.5584C100.957 66.3115 100.71 65.9001 99.8199 65.3871C98.9294 64.874 98.1404 64.7676 97.579 65.0918C97.1531 65.3387 97.3999 65.7549 98.2856 66.268Z" fill="black"/>
<path d="M100.841 62.9574C101.199 62.7419 101.605 62.6205 102.022 62.6044C102.44 62.5883 102.854 62.6781 103.227 62.8654C103.939 63.2768 103.91 63.8334 103.145 64.2884L102.487 64.6659L103.368 65.1499L102.782 65.4887L99.6021 63.6495L100.841 62.9574ZM102.235 64.5207L102.767 64.2158C103.285 63.9157 103.251 63.5672 102.622 63.2139C102.377 63.0553 102.092 62.9677 101.8 62.9608C101.508 62.954 101.22 63.0282 100.967 63.1752L100.435 63.485L102.235 64.5207Z" fill="black"/>
<path d="M102.588 61.9604L103.174 61.5586L105.865 62.0426L105.739 61.7958C105.509 61.3414 105.192 60.9367 104.805 60.6052L105.347 60.3583L106.233 62.033L107.516 62.7735L106.935 63.1123L105.865 62.4976L102.588 61.9604Z" fill="black"/>
<path d="M77.9818 96.9294L99.6069 109.412V112.171L77.9818 99.6833V96.9294Z" fill="#263238"/>
<path d="M98.7551 110.917V124.024L79.095 112.674V99.8527L98.7551 110.917Z" fill="black"/>
<path d="M98.7551 109.654L79.095 98.3039L56.6665 104.78C56.3228 104.881 56.1486 105.046 56.1486 105.23V106.488C56.1486 106.648 56.2793 106.822 56.5503 106.972L74.1147 117.112C74.7974 117.459 75.5809 117.554 76.3265 117.378L98.7551 110.907V109.654Z" fill="#37474F"/>
<path d="M98.7551 109.654L76.312 116.13C75.5664 116.305 74.7829 116.211 74.1001 115.863L56.5358 105.699C55.955 105.365 56.0082 104.944 56.6519 104.76L79.0805 98.2846L98.7551 109.654Z" fill="#455A64"/>
<path d="M75.1601 116.183V117.446C74.7948 117.403 74.4404 117.293 74.1147 117.122L56.5503 106.982C56.2793 106.822 56.1437 106.648 56.1486 106.498V105.24C56.1486 105.399 56.2793 105.574 56.5503 105.724L74.1147 115.888C74.4407 116.053 74.7958 116.153 75.1601 116.183Z" fill="#263238"/>
<path d="M94.3991 107.2C94.3991 107.122 94.3313 107.035 94.1958 106.958L81.4811 99.6156C81.1402 99.4437 80.75 99.3958 80.3776 99.48L60.7659 105.167C60.5917 105.22 60.5046 105.303 60.5046 105.395V106.333C60.5046 106.411 60.5723 106.498 60.7079 106.575L73.408 113.918C73.749 114.09 74.1391 114.138 74.5115 114.053L94.1232 108.361C94.2926 108.313 94.3797 108.236 94.3846 108.144L94.3991 107.2Z" fill="#EBEBEB"/>
<path d="M94.1377 107.427L74.5261 113.114C74.1538 113.201 73.7628 113.153 73.4225 112.979L60.7079 105.641C60.4175 105.472 60.4417 105.264 60.7659 105.157L80.3776 99.4704C80.75 99.3861 81.1402 99.4341 81.4811 99.6059L94.22 106.958C94.4862 107.122 94.4572 107.335 94.1377 107.427Z" fill="#FAFAFA"/>
<path d="M94.3991 107.2V108.168C94.3991 108.255 94.3071 108.337 94.1426 108.386L74.5309 114.073C74.3732 114.114 74.2089 114.126 74.0469 114.107V113.153C74.2093 113.168 74.3731 113.155 74.5309 113.114L94.1426 107.427C94.312 107.374 94.3991 107.292 94.3991 107.2Z" fill="#F0F0F0"/>
<path d="M201.397 119.237H196.872V127.305H201.397V119.237Z" fill="#FFA8A7"/>
<path d="M185.706 118.806L181.185 118.966L180.958 110.428L185.706 110.264V118.806Z" fill="#FFA8A7"/>
<path d="M202.036 49.3667C202.036 53.8679 201.925 90.2598 201.925 90.2598C202.031 91.557 202.646 93.7785 202.409 98.754C202.07 105.53 201.61 123.269 201.61 123.269C200.834 123.669 199.976 123.886 199.103 123.905C198.23 123.923 197.364 123.742 196.572 123.375C196.572 123.375 192.293 98.7783 191.48 92.0797C190.754 86.233 189.568 66.5438 189.568 66.5438L187.1 89.437C187.623 91.8979 187.812 94.418 187.661 96.9294C187.448 100.027 185.991 116.159 185.991 116.159C185.21 116.621 184.333 116.899 183.428 116.971C182.523 117.043 181.614 116.908 180.769 116.575C180.769 116.575 177.429 92.1426 177.381 89.2967C177.323 86.0587 178.693 49.3183 178.693 49.3183L202.036 49.3667Z" fill="#455A64"/>
<path d="M196.872 124.977V124.304C196.441 124.498 195.42 128.501 193.638 130.204C192.186 131.56 190.25 133.108 189.766 134.638C189.282 136.167 192.477 137.082 193.813 136.835C195.361 136.55 198.048 135.412 198.72 134.357C199.393 133.302 199.688 131.748 200.26 130.969C200.831 130.19 202.07 129.333 202.365 128.443C202.53 127.959 202.336 126.874 202.108 125.965C201.9 125.132 201.673 124.217 201.397 124.295V124.808C200.76 125.33 199.96 125.613 199.137 125.606C198.474 125.64 196.867 125.505 196.872 124.977Z" fill="#263238"/>
<path d="M181.137 117.514C180.9 117.514 180.706 117.867 180.169 118.453C179.401 119.263 178.5 119.938 177.507 120.447C175.813 121.328 172.517 122.688 171.026 123.39C170.097 123.825 170.14 124.997 171.103 125.664C172.067 126.332 174.39 126.812 177.182 126.148C178.702 125.795 180.682 124.329 181.935 124.411C183.189 124.493 185.531 124.469 186.456 123.806C187.38 123.143 187.012 121.725 186.751 120.505C186.466 119.174 186.107 117.117 185.686 117.19V117.649C185.144 118.506 182.332 118.859 181.142 118.225L181.137 117.514Z" fill="#263238"/>
<path d="M189.568 66.5438C187.217 65.7728 185.067 64.4863 183.276 62.7783C183.276 62.7783 184.496 65.1499 188.116 67.357L187.342 87.7914L189.568 66.5438Z" fill="#263238"/>
<path d="M185.783 22.9838C181.626 22.2288 179.525 22.7467 177.749 26.2508C176.21 29.2807 172.575 37.2086 172.231 38.8736C171.921 40.3643 174.651 49.8507 174.651 49.8507L181.476 49.1198L179.206 40.6014L183.755 31.5313L185.783 22.9838Z" fill="#455A64"/>
<path d="M199.795 25.9798C199.795 25.9798 204.761 26.6187 203.667 33.6754L202.176 42.6343L202.2 58.7611C198.87 62.5363 181.103 60.9924 178.271 54.1341C178.271 54.1341 178.722 39.9384 179.065 32.5913C179.307 27.3689 181.2 22.0594 187.008 23.1436L192.864 23.8792L199.795 25.9798Z" fill="#7E57C2"/>
<path d="M189.621 28.3514L188.813 34.019L186.771 33.0801L189.055 34.324L189.621 28.3514Z" fill="black"/>
<path d="M194.219 10.1917C194.254 11.9457 193.591 13.6419 192.376 14.9071C191.161 16.1723 189.493 16.9031 187.739 16.9387C184.162 16.9387 181.422 13.9137 181.263 10.1917C180.977 3.60449 184.167 3.44476 187.739 3.44476C189.493 3.48035 191.161 4.21111 192.376 5.47635C193.591 6.74158 194.254 8.4377 194.219 10.1917Z" fill="#263238"/>
<path d="M198.135 7.57812C197.375 6.39716 196.683 6.57625 196.683 6.57625L196.199 12.3165L195.4 12.4762L195.332 20.2202C195.762 19.9856 196.102 19.6166 196.3 19.1699C196.567 18.6327 197.143 15.356 197.462 13.391C197.438 13.3958 198.764 8.58969 198.135 7.57812Z" fill="#263238"/>
<path d="M195.478 13.7878C195.855 14.0202 196.388 13.27 196.852 12.7666C197.317 12.2632 198.827 11.5711 199.577 13.2506C200.327 14.9301 198.914 17.1662 197.723 17.5534C195.676 18.2213 195.366 16.8516 195.366 16.8516L195.211 24.552C192.487 28.7628 186.325 28.6128 188.542 24.3487V22.0062C187.629 22.1589 186.702 22.2093 185.778 22.1562C184.273 21.9142 183.324 20.6752 182.874 18.9763C182.143 16.2466 181.863 14.0395 182.487 8.67196C183.17 2.78652 189.747 2.72844 193.285 5.05164C196.823 7.37484 195.478 13.7878 195.478 13.7878Z" fill="#FFA8A7"/>
<path d="M195.245 22.7806C194.61 24.0744 193.7 25.214 192.579 26.1202C191.627 26.8236 190.522 27.2928 189.355 27.4899C190.31 28.144 191.091 29.0212 191.63 30.0454C192.307 31.541 197.143 28.0852 197.099 25.1618C197.099 25.1618 196.3 21.5609 195.274 21.3721L195.245 22.7806Z" fill="#455A64"/>
<path d="M189.355 27.4899C189.355 27.4899 187.879 26.7542 188.542 24.3003V21.9578L187.893 22.0449C187.135 22.7818 186.597 23.7153 186.34 24.7408C186.19 25.4135 185.827 28.8112 186.475 29.4888C187.124 30.1664 188.034 27.6738 189.355 27.4899Z" fill="#455A64"/>
<path d="M185.498 8.21217C188.547 8.28961 190.439 7.64588 192.961 7.35065C193.122 7.31667 193.29 7.3284 193.445 7.38452C194.001 7.6362 194.122 9.36409 194.219 9.86745C194.553 11.5518 194.824 14.4074 195.458 14.4219C195.647 14.4219 196.363 13.1877 196.833 12.7424C197.481 12.1277 196.644 6.57625 196.644 6.57625C196.615 6.38265 196.789 6.03417 196.799 5.82121C196.803 5.32362 196.665 4.83521 196.402 4.41277C195.886 3.55365 195.087 2.90147 194.142 2.56873C192.433 1.90081 190.56 1.98309 188.861 1.22321C188.211 0.865256 187.533 0.559381 186.833 0.308447C186.481 0.18693 186.102 0.16235 185.737 0.237276C185.372 0.312202 185.033 0.483881 184.757 0.734366C184.46 1.12605 184.282 1.59475 184.244 2.08473C183.925 1.58993 183.49 1.18106 182.976 0.894087C181.984 0.453647 180.754 1.07317 180.241 2.03149C179.792 3.03291 179.75 4.17006 180.125 5.20169C180.222 5.54174 180.363 5.86732 180.546 6.16969C181.49 7.68945 183.852 8.16861 185.498 8.21217Z" fill="#263238"/>
<path d="M196.659 6.86665L198.929 5.59857C198.861 5.44114 198.762 5.29957 198.636 5.18301C198.511 5.06644 198.363 4.97746 198.201 4.92182C198.039 4.86618 197.867 4.84511 197.696 4.85996C197.526 4.87482 197.36 4.92528 197.21 5.00809C196.906 5.19547 196.681 5.48879 196.579 5.83179C196.477 6.17479 196.505 6.5433 196.659 6.86665Z" fill="#263238"/>
<path d="M188.547 21.9578C188.547 21.9578 191.911 21.2511 193.087 20.6026C193.787 20.2209 194.354 19.6351 194.713 18.9231C194.538 19.6373 194.224 20.31 193.788 20.9026C192.932 22.0497 188.547 22.8919 188.547 22.8919V21.9578Z" fill="#F28F8F"/>
<path d="M189.355 12.8876C189.365 13.0191 189.414 13.1446 189.495 13.2489C189.575 13.3532 189.685 13.4317 189.809 13.4748C189.934 13.5179 190.068 13.5236 190.196 13.4914C190.324 13.4591 190.44 13.3903 190.529 13.2933C190.618 13.1963 190.677 13.0753 190.699 12.9452C190.721 12.8151 190.704 12.6816 190.651 12.5609C190.597 12.4403 190.51 12.3378 190.399 12.266C190.289 12.1942 190.16 12.1562 190.028 12.1568C189.842 12.1656 189.667 12.2472 189.541 12.384C189.415 12.5208 189.348 12.7018 189.355 12.8876Z" fill="#263238"/>
<path d="M190.197 10.303L191.649 11.1307C191.754 10.9254 191.777 10.6882 191.714 10.4666C191.651 10.245 191.507 10.0552 191.31 9.93521C191.214 9.88043 191.108 9.84644 190.998 9.83544C190.888 9.82444 190.777 9.83668 190.672 9.87136C190.567 9.90605 190.471 9.9624 190.389 10.0368C190.307 10.1111 190.242 10.2018 190.197 10.303Z" fill="#263238"/>
<path d="M188.852 17.7373L187.313 18.3423C187.342 18.4483 187.394 18.5471 187.464 18.6323C187.534 18.7174 187.621 18.7872 187.719 18.8372C187.817 18.8872 187.924 18.9164 188.035 18.9228C188.145 18.9293 188.255 18.9129 188.358 18.8747C188.568 18.7817 188.736 18.6131 188.827 18.4024C188.918 18.1917 188.927 17.9542 188.852 17.7373Z" fill="#F28F8F"/>
<path d="M183.3 11.1888L184.612 10.1336C184.553 10.0415 184.476 9.96284 184.384 9.90282C184.293 9.84281 184.19 9.8028 184.082 9.78543C183.974 9.76805 183.864 9.77371 183.758 9.80203C183.653 9.83035 183.554 9.88068 183.47 9.94972C183.293 10.0988 183.178 10.3079 183.147 10.5367C183.116 10.7655 183.17 10.9978 183.3 11.1888Z" fill="#263238"/>
<path d="M183.76 12.6892C183.77 12.8204 183.819 12.9458 183.899 13.05C183.98 13.1542 184.089 13.2327 184.213 13.276C184.337 13.3192 184.472 13.3252 184.599 13.2934C184.727 13.2615 184.843 13.1932 184.932 13.0966C185.022 13.0001 185.081 12.8795 185.104 12.7497C185.126 12.62 185.109 12.4865 185.057 12.3658C185.004 12.2451 184.918 12.1422 184.808 12.0699C184.698 11.9975 184.569 11.9587 184.438 11.9583C184.345 11.9614 184.254 11.9829 184.17 12.0213C184.085 12.0598 184.01 12.1146 183.947 12.1826C183.884 12.2505 183.835 12.3303 183.803 12.4172C183.771 12.5042 183.756 12.5966 183.76 12.6892Z" fill="#263238"/>
<path d="M187.356 12.1229L187.279 16.3821L184.859 15.8303L187.356 12.1229Z" fill="#F28F8F"/>
<path d="M162.314 58.8047L182.84 70.6772V58.0835L162.314 46.211V58.8047Z" fill="#E0E0E0"/>
<path d="M197.07 62.4589L182.84 70.6772V58.0835L197.07 49.87V62.4589Z" fill="#F0F0F0"/>
<path d="M162.314 46.211L176.544 37.9975L197.07 49.87L182.84 58.0884L162.314 46.211Z" fill="#FAFAFA"/>
<path d="M173.01 56.6218L182.84 62.2992L188.74 58.8918L182.84 62.6476L173.01 56.6218Z" fill="black"/>
<path d="M167.11 56.3895L182.84 65.4694L194.635 58.6595L182.84 65.813L167.11 56.3895Z" fill="black"/>
<path d="M164.289 50.8816C164.12 51.7941 164.065 52.724 164.124 53.6501C164.124 53.6501 166.699 53.5872 171.045 54.7826L164.289 50.8816Z" fill="black"/>
<path d="M164.289 50.8816L171.045 54.7826L163.568 52.6288L164.289 50.8816Z" fill="#FAFAFA"/>
<path d="M173.01 61.7668L180.416 68.5766C180.416 68.5766 180.624 67.6425 182.047 66.9843L173.01 61.7668Z" fill="black"/>
<path d="M173.01 61.7668L179.965 67.6232L182.047 66.9843L173.01 61.7668Z" fill="#FAFAFA"/>
<path d="M194.698 54.8746L194.635 54.7826L189.955 57.4882L195.226 57.0526C195.318 56.2868 195.131 55.5134 194.698 54.8746Z" fill="black"/>
<path d="M189.955 57.4882L194.635 54.7826L196.194 55.6054L189.955 57.4882Z" fill="#FAFAFA"/>
<path d="M165.929 47.087C165.897 47.0866 165.866 47.078 165.838 47.0619C165.81 47.0458 165.786 47.0228 165.77 46.9951C165.758 46.9745 165.75 46.9517 165.747 46.9281C165.744 46.9044 165.745 46.8804 165.752 46.8574C165.758 46.8344 165.769 46.8129 165.784 46.7942C165.798 46.7754 165.817 46.7598 165.837 46.7482L177.633 39.9238C177.675 39.9006 177.725 39.8947 177.772 39.9073C177.819 39.9199 177.859 39.9501 177.884 39.9916C177.896 40.0122 177.904 40.035 177.907 40.0586C177.91 40.0823 177.909 40.1063 177.902 40.1293C177.896 40.1523 177.885 40.1738 177.87 40.1925C177.856 40.2113 177.837 40.2269 177.816 40.2384L166.021 47.0483C165.994 47.0682 165.963 47.0814 165.929 47.087Z" fill="#455A64"/>
<path d="M167.895 48.2244C167.863 48.2242 167.832 48.2155 167.805 48.1994C167.777 48.1832 167.755 48.1601 167.74 48.1325C167.727 48.1124 167.718 48.0898 167.714 48.0662C167.71 48.0427 167.712 48.0185 167.717 47.9954C167.723 47.9723 167.734 47.9506 167.749 47.9317C167.763 47.9128 167.782 47.8971 167.803 47.8856L179.602 41.0758C179.623 41.0636 179.645 41.0555 179.669 41.052C179.692 41.0486 179.716 41.0498 179.739 41.0557C179.762 41.0615 179.784 41.0719 179.802 41.0861C179.821 41.1004 179.837 41.1182 179.849 41.1387C179.861 41.1593 179.869 41.1821 179.872 41.2057C179.875 41.2293 179.874 41.2534 179.867 41.2764C179.861 41.2993 179.85 41.3208 179.835 41.3396C179.821 41.3583 179.802 41.374 179.782 41.3855L167.986 48.2002C167.958 48.215 167.927 48.2233 167.895 48.2244Z" fill="#455A64"/>
<path d="M169.86 49.357C169.828 49.3567 169.797 49.3481 169.77 49.3319C169.742 49.3158 169.72 49.2927 169.705 49.265C169.682 49.2232 169.676 49.174 169.689 49.1279C169.701 49.0818 169.731 49.0425 169.772 49.0182L181.568 42.2083C181.588 42.1966 181.611 42.189 181.635 42.186C181.658 42.1831 181.682 42.1848 181.705 42.1911C181.728 42.1974 181.749 42.2081 181.768 42.2227C181.787 42.2373 181.803 42.2554 181.814 42.2761C181.826 42.2967 181.834 42.3195 181.837 42.3431C181.84 42.3667 181.838 42.3906 181.832 42.4135C181.825 42.4365 181.815 42.4579 181.8 42.4767C181.785 42.4954 181.767 42.5112 181.747 42.5229L169.952 49.3328C169.924 49.3503 169.892 49.3588 169.86 49.357Z" fill="#455A64"/>
<path d="M171.829 50.4944C171.797 50.494 171.766 50.4853 171.738 50.4692C171.71 50.4531 171.686 50.4301 171.67 50.4024C171.658 50.3819 171.65 50.3591 171.647 50.3354C171.644 50.3118 171.645 50.2878 171.652 50.2648C171.658 50.2418 171.669 50.2203 171.684 50.2015C171.698 50.1828 171.717 50.1672 171.737 50.1556L183.533 43.3457C183.553 43.3327 183.576 43.3239 183.6 43.3199C183.623 43.316 183.648 43.3169 183.671 43.3226C183.695 43.3283 183.717 43.3387 183.736 43.3532C183.756 43.3677 183.772 43.386 183.784 43.407C183.796 43.4279 183.804 43.4511 183.807 43.4751C183.81 43.4991 183.808 43.5235 183.801 43.5467C183.794 43.5699 183.783 43.5915 183.767 43.6102C183.752 43.6289 183.733 43.6443 183.712 43.6555L171.917 50.4702C171.89 50.4856 171.86 50.4939 171.829 50.4944Z" fill="#455A64"/>
<path d="M173.794 51.627C173.762 51.6266 173.731 51.6179 173.703 51.6018C173.675 51.5857 173.651 51.5627 173.635 51.535C173.612 51.4931 173.606 51.4439 173.619 51.3979C173.631 51.3518 173.661 51.3124 173.703 51.2882L185.498 44.4783C185.54 44.4551 185.59 44.4491 185.637 44.4618C185.684 44.4744 185.724 44.5046 185.749 44.546C185.761 44.5666 185.769 44.5894 185.772 44.6131C185.775 44.6367 185.774 44.6607 185.767 44.6837C185.761 44.7067 185.75 44.7282 185.735 44.7469C185.721 44.7657 185.702 44.7813 185.682 44.7929L173.886 51.6028C173.859 51.6197 173.827 51.6281 173.794 51.627Z" fill="#455A64"/>
<path d="M175.76 52.7644C175.728 52.7641 175.697 52.7554 175.67 52.7393C175.642 52.7231 175.62 52.7 175.605 52.6724C175.592 52.6523 175.583 52.6297 175.579 52.6062C175.575 52.5826 175.577 52.5585 175.582 52.5353C175.588 52.5122 175.599 52.4905 175.614 52.4716C175.628 52.4527 175.647 52.437 175.668 52.4256L187.463 45.6157C187.504 45.5908 187.554 45.5834 187.601 45.5952C187.649 45.607 187.689 45.637 187.714 45.6786C187.738 45.7212 187.743 45.7711 187.731 45.818C187.718 45.8649 187.688 45.9051 187.647 45.9303L175.851 52.7402C175.823 52.7549 175.792 52.7632 175.76 52.7644Z" fill="#455A64"/>
<path d="M177.725 53.8969C177.693 53.8976 177.662 53.8899 177.635 53.8746C177.608 53.8593 177.585 53.8369 177.57 53.8098C177.545 53.7681 177.537 53.7181 177.549 53.671C177.561 53.6238 177.591 53.5832 177.633 53.5581L189.432 46.7482C189.453 46.7365 189.476 46.7289 189.5 46.7259C189.523 46.723 189.547 46.7247 189.57 46.731C189.593 46.7373 189.614 46.748 189.633 46.7626C189.652 46.7772 189.668 46.7953 189.679 46.816C189.691 46.8367 189.699 46.8594 189.702 46.883C189.705 46.9066 189.703 46.9305 189.697 46.9535C189.69 46.9764 189.68 46.9978 189.665 47.0166C189.65 47.0354 189.632 47.0511 189.612 47.0628L177.816 53.8727C177.789 53.8902 177.757 53.8987 177.725 53.8969Z" fill="#455A64"/>
<path d="M179.69 55.0343C179.658 55.0336 179.627 55.0247 179.6 55.0086C179.573 54.9925 179.55 54.9697 179.535 54.9424C179.523 54.9218 179.515 54.899 179.512 54.8754C179.509 54.8517 179.51 54.8277 179.517 54.8047C179.523 54.7817 179.534 54.7602 179.549 54.7415C179.563 54.7227 179.582 54.7071 179.602 54.6955L191.398 47.8856C191.418 47.8734 191.44 47.8654 191.464 47.8619C191.487 47.8585 191.511 47.8597 191.534 47.8656C191.557 47.8714 191.579 47.8818 191.598 47.896C191.617 47.9103 191.632 47.9281 191.644 47.9486C191.657 47.9695 191.664 47.9927 191.668 48.0167C191.671 48.0407 191.669 48.0651 191.663 48.0885C191.656 48.1119 191.646 48.1338 191.631 48.153C191.616 48.1721 191.598 48.1882 191.577 48.2002L179.782 55.0101C179.753 55.0255 179.722 55.0338 179.69 55.0343Z" fill="#455A64"/>
<path d="M181.659 56.1669C181.628 56.1675 181.596 56.1597 181.568 56.1445C181.54 56.1292 181.517 56.1069 181.5 56.0798C181.477 56.0372 181.471 55.9872 181.483 55.9404C181.496 55.8935 181.526 55.8533 181.567 55.8281L193.363 49.0182C193.383 49.0062 193.406 48.9984 193.43 48.9953C193.453 48.9922 193.477 48.9939 193.5 49.0002C193.523 49.0065 193.545 49.0173 193.563 49.0321C193.582 49.0468 193.598 49.0651 193.609 49.086C193.622 49.1061 193.631 49.1286 193.635 49.1522C193.639 49.1758 193.637 49.1999 193.632 49.2231C193.626 49.2462 193.615 49.2679 193.6 49.2868C193.586 49.3057 193.567 49.3213 193.546 49.3328L181.747 56.1427C181.721 56.1595 181.69 56.168 181.659 56.1669Z" fill="#455A64"/>
<path d="M201.291 26.5461C202.931 26.972 204.383 27.4512 205.463 29.5856C206.847 32.3202 212.834 46.8596 212.645 47.9776C212.306 49.9765 203.706 58.3884 200.928 61.6022C199.088 63.727 195.637 65.7549 192.67 66.752C190.062 67.6232 189.723 66.7084 189.723 66.7084L195.178 63.5576C195.492 63.3446 196.179 62.5508 195.371 62.546C194.718 62.546 194.064 62.6234 193.411 62.5702C192.853 62.5716 192.307 62.4028 191.848 62.0862C191.741 62.016 191.666 61.9064 191.64 61.7813C191.638 61.7234 191.647 61.6657 191.668 61.6117C191.689 61.5576 191.72 61.5083 191.761 61.4667C191.916 61.3542 192.092 61.2736 192.278 61.2295C192.479 61.1543 192.685 61.0912 192.893 61.0408C193.309 60.9391 193.74 60.8617 194.152 60.7358C194.805 60.5374 195.4 60.3922 195.879 60.2518C196.533 60.0418 197.089 59.6015 197.443 59.0128C198.449 57.6189 199.137 56.4766 199.485 55.9394C200.516 54.347 204.243 48.6794 205.317 46.9951L199.582 36.381C197.714 33.6318 198.57 26.5461 201.291 26.5461Z" fill="#FFA8A7"/>
<path d="M200.047 26.033C200.047 26.033 203.164 26.7687 204.127 27.5431C205.09 28.3175 205.811 29.4356 207.515 33.3511C209.218 37.2667 212.248 45.5673 212.64 46.6998C213.032 47.8324 213.211 48.4568 211.222 50.7412C209.77 52.3868 207.834 54.1825 207.834 54.1825C207.834 54.1825 204.209 53.6985 203.202 50.2379L205.037 46.9709C205.037 46.9709 199.621 37.3974 198.933 35.3549C198.375 33.8226 198.185 32.1805 198.378 30.5612C198.572 28.9419 199.143 27.3908 200.047 26.033Z" fill="#455A64"/>
</svg>
